<?xml version="1.0" encoding="utf-8"?>
<!-- Generator: Adobe Illustrator 19.0.0, SVG Export Plug-In . SVG Version: 6.00 Build 0)  -->
<svg version="1.1" id="图层_1" xmlns="http://www.w3.org/2000/svg" xmlns:xlink="http://www.w3.org/1999/xlink" x="0px" y="0px"
	 viewBox="-823 539.9 54 54" style="enable-background:new -823 539.9 54 54;" xml:space="preserve">
<style type="text/css">
	.st0{fill:none;}
	.st1{fill:#B4B4B4;}
	.st2{fill:none;stroke:#B4B4B4;stroke-width:3;stroke-linecap:round;}
</style>
<title>Page 1</title>
<desc>Created with Sketch.</desc>
<g id="Page-1">
	<g transform="translate(2.000000, 0.000000)">
		<path id="Fill-1" class="st0" d="M-823,539.9"/>
		<path id="Fill-5" class="st1" d="M-774.9,546.6c-1,2.7-2.5,5.2-4.2,7.2c-2.7,3.1-5.6,4.5-8.8,4.2c-5.4-0.5-9.5,0.2-12.4,2.1
			c-1.9,1.2-3,2.8-3.9,4.2l-7.5-17c0.8-0.6,2.6-1.8,5.3-2.7c4.7-1.6,9.5-1.6,14.4,0c5.8,1.9,9.8,2.6,12.8,2c2.2-0.4,3.8-1.5,5.1-2.6
			C-774.3,544.7-774.5,545.6-774.9,546.6 M-772,540.1c-0.3-0.2-1.3-0.7-2.4,0.4c-0.1,0.1-0.3,0.3-0.4,0.4c-3.1,2.9-5.1,4.8-16.3,1.1
			c-3-1-6.1-1.5-9.1-1.3c-2.4,0.1-4.8,0.6-7.2,1.4c-4,1.4-6.3,3.4-6.4,3.4c-0.1,0.1-0.2,0.2-0.2,0.2c-0.6,0.4-0.8,1.1-0.5,1.7
			l17.4,39.3c0.3,0.7,1.1,1,1.8,0.7c0.7-0.3,1-1.1,0.7-1.8l-8.1-18.2c0-0.1,0.1-0.2,0.1-0.3c1.8-3.5,3.9-7.5,14.5-6.5
			c1.9,0.2,3.8-0.1,5.6-0.9c0.1,0,0.2-0.1,0.3-0.2c1.6-0.8,3.2-2,4.6-3.5c2.3-2.4,4.2-5.9,5.5-9.4c0.5-1.3,0.8-2.6,0.9-3.6
			C-771,542.1-771,540.8-772,540.1"/>
		<path id="Stroke-7" class="st2" d="M-780.3,575.4c3.7,1.7,6,4,6,6.5c0,5.4-10.9,9.9-24.2,9.9c-13.4,0-24.2-4.4-24.2-9.9
			c0-5.4,10.9-9.9,24.2-9.9c1.4,0,2.8,0.1,4.2,0.1"/>
	</g>
</g>
</svg>
