<?xml version="1.0" encoding="utf-8"?>
<!-- Generator: Adobe Illustrator 19.0.0, SVG Export Plug-In . SVG Version: 6.00 Build 0)  -->
<svg version="1.1" id="图层_1" xmlns="http://www.w3.org/2000/svg" xmlns:xlink="http://www.w3.org/1999/xlink" x="0px" y="0px"
	 viewBox="0 0 200 200" style="enable-background:new 0 0 200 200;" xml:space="preserve">
<style type="text/css">
	.st0{fill:#211332;}
</style>
<path class="st0" d="M190,7.6c-1-0.6-4.5-2.4-8.8,1.6c-0.5,0.5-1.1,1-1.6,1.5c-11,10.5-18.3,17.4-58.7,3.8C110,10.8,99,9.2,88.1,9.6
	c-8.7,0.3-17.4,2-25.8,5C48,19.6,39.6,26.7,39.2,27c-0.3,0.3-0.6,0.6-0.8,0.9c-2.1,1.3-2.9,3.9-1.9,6.2l37,83.9
	c-16.2,1.5-31.1,4.9-43.2,9.8c-18.6,7.6-28.9,18.3-28.9,30.1c0,11.8,10.3,22.5,28.9,30.1c17.1,7,39.7,10.8,63.7,10.8
	s46.6-3.8,63.8-10.8c18.6-7.6,28.9-18.3,28.9-30.1c0-10.8-8.7-20.9-24.6-28.2c-2.7-1.3-5.9-0.1-7.2,2.6s-0.1,5.9,2.6,7.2
	c11.7,5.4,18.4,12.1,18.4,18.4c0,14.2-33.6,30.1-81.9,30.1c-48.2,0-81.8-15.9-81.8-30.1c0-12.6,26.4-26.5,66-29.5L99,175.6
	c1.1,2.5,4,3.6,6.5,2.5c2.5-1.1,3.6-4,2.5-6.6l-19.3-43.6c1.8,0,3.6-0.1,5.4-0.1c4.6,0,9.4,0.2,14.8,0.5c3,0.2,5.5-2.1,5.7-5.1
	c0.1-3-2.1-5.5-5.1-5.7c-5.6-0.3-10.6-0.5-15.4-0.5c-3.4,0-6.8,0.1-10.1,0.2l-5-11.3c0.2-0.3,0.3-0.6,0.5-0.9
	c6.6-12.6,14-26.8,52.3-23.4c7,0.6,13.8-0.5,20.3-3.4c0.4-0.2,0.8-0.4,1.2-0.6c5.9-2.8,11.5-7.1,16.7-12.7
	c8.1-8.8,15.3-21.1,19.6-33.8c1.7-4.8,2.8-9.3,3.2-12.9C193.4,14.8,193.5,9.9,190,7.6z M179.4,30.8c-3.7,9.7-9,18.8-15,25.8
	c-9.6,11-20.1,16.1-31.5,15.1c-19.6-1.7-34.2,0.8-44.8,7.7c-6.7,4.4-10.8,9.9-13.9,15.1l-27-61c2.8-2,9.4-6.3,18.9-9.6
	c16.8-5.9,34.3-5.8,51.8,0.1c20.7,7,35.4,9.3,46.2,7.3c8.1-1.5,13.5-5.2,18.3-9.4C181.6,24.3,180.7,27.3,179.4,30.8z"/>
</svg>
