<?xml version="1.0" encoding="UTF-8" standalone="no"?>
<svg width="200px" height="200px" viewBox="0 0 200 200" version="1.1" xmlns="http://www.w3.org/2000/svg" xmlns:xlink="http://www.w3.org/1999/xlink">
    <!-- Generator: Sketch 3.7 (28169) - http://www.bohemiancoding.com/sketch -->
    <title>支付宝（第三方支付）</title>
    <desc>Created with Sketch.</desc>
    <defs>
        <path d="M197.060446,167.55131 C193.162157,184.975122 177.592421,198 159.0065,198 L41.9935,198 C20.45575,198 3,180.52475 3,159.00975 L3,41.9935 C3,20.45575 20.4785,3 41.9935,3 L159.0065,3 C180.541,3 198,20.4785 198,41.9935 L198,147.816612 L198,136.623474 C198,136.623474 136.445568,117.196643 133.200787,116.019769 C139.743574,104.241174 144.931849,91.7967851 148.304765,78.02125 L148.902073,75.3345191 L109.292993,75.3345193 L109.292989,62.0028894 L158.261974,62.0028893 L158.261974,53.5394489 L109.292989,53.539449 L109.292993,31.2500001 L91.8200956,31.25 C87.9563221,31.25 86.5547186,34.3666458 86.5547186,36.4621515 L86.5547152,53.5394489 L41.0074077,53.5394484 L41.0074077,62.0028888 L86.5547152,62.0028893 L86.5547188,75.3345191 L49.5075055,75.3345191 L49.5075062,83.1647313 L124.842547,83.1647313 C122.469087,90.7542862 117.916992,102.344634 114.293718,109.220574 C91.0834793,101.674388 74.1739805,96.8960873 61.1596269,96.8351364 C54.7143656,96.8049509 18.9673851,96.1247642 17.1926393,130.997849 C15.964944,155.121597 42.6194287,166.381783 61.1596273,166.381783 C83.2166482,166.381783 103.583663,154.522856 121.173689,133.490918 C144.348436,144.500329 189.957125,164.449795 197.060446,167.55131 Z M53.9927653,110.194866 C45.3431518,110.194866 25.7129338,113.220161 25.0879133,130.795324 C24.5745133,145.231794 40.2624923,153.300641 56.7485827,153.30064 C74.1756586,153.300639 90.9628328,141.604015 104.271167,125.129752 C104.271167,125.129752 80.0934581,110.194866 53.9927653,110.194866 Z" id="path-1"></path>
    </defs>
    <g id="第三方支付方式" stroke="none" stroke-width="1" fill="none" fill-rule="evenodd">
        <g id="支付宝（第三方支付）">
            <mask id="mask-2" fill="white">
                <use xlink:href="#path-1"></use>
            </mask>
            <use id="Combined-Shape" fill="#26262E" xlink:href="#path-1"></use>
        </g>
    </g>
</svg>