<?xml version="1.0" encoding="utf-8"?>
<!-- Generator: Adobe Illustrator 19.0.0, SVG Export Plug-In . SVG Version: 6.00 Build 0)  -->
<svg version="1.1" id="图层_1" xmlns="http://www.w3.org/2000/svg" xmlns:xlink="http://www.w3.org/1999/xlink" x="0px" y="0px"
	 viewBox="-49 0 200 200" style="enable-background:new -49 0 200 200;" xml:space="preserve">
<style type="text/css">
	.st0{fill-rule:evenodd;clip-rule:evenodd;fill:#1E1231;}
	.st1{fill:#FFFFFF;}
</style>
<g>
	<g>
		<circle class="st0" cx="51" cy="100" r="92"/>
	</g>
	<g>
		<path class="st1" d="M50.1,146.7c-2.5,0-4.6-2-4.6-4.5V142c0-2.5,2.1-4.6,4.6-4.6s4.6,2.1,4.6,4.6S52.6,146.7,50.1,146.7z"/>
	</g>
	<path class="st1" d="M84.8,101.7L55.2,71.3c-2.8-2.9-7.7-2.9-10.5,0l-29.6,30.5c-1.8,1.8-1.7,4.7,0.1,6.5c1.8,1.8,4.7,1.7,6.5-0.1
		l23.8-24.5v46.1c0,2.5,2.1,4.6,4.6,4.6s4.6-2.1,4.6-4.6V83.9l23.5,24.2c0.9,0.9,2.1,1.4,3.3,1.4c1.2,0,2.3-0.4,3.2-1.3
		C86.5,106.5,86.6,103.5,84.8,101.7z"/>
	<g>
		<path class="st1" d="M83.7,62.8H16.9c-2.5,0-4.6-2.1-4.6-4.6c0-2.5,2.1-4.6,4.6-4.6h66.8c2.5,0,4.6,2.1,4.6,4.6
			C88.3,60.7,86.3,62.8,83.7,62.8z"/>
	</g>
</g>
</svg>
