<?xml version="1.0" standalone="no"?><!DOCTYPE svg PUBLIC "-//W3C//DTD SVG 1.1//EN" "http://www.w3.org/Graphics/SVG/1.1/DTD/svg11.dtd"><svg width="200.1953125" height="200" viewBox="0 0 200.1953125 200" version="1.1" xmlns="http://www.w3.org/2000/svg" xmlns:xlink="http://www.w3.org/1999/xlink"><defs><style type="text/css"><![CDATA[
@font-face { font-family: ifont; src: url("http://at.alicdn.com/t/font_1442373896_4754455.eot?#iefix") format("embedded-opentype"), url("http://at.alicdn.com/t/font_1442373896_4754455.woff") format("woff"), url("http://at.alicdn.com/t/font_1442373896_4754455.ttf") format("truetype"), url("http://at.alicdn.com/t/font_1442373896_4754455.svg#ifont") format("svg"); }

]]></style></defs><g class="transform-group"><g transform="scale(0.1953125, 0.1953125)"><path d="M79.232 800.896l0 0 5.376 5.28 427.456-423.264 427.392 423.264 5.376-5.312c19.68 12 45.152 10.24 62.08-7.008 16.64-16.864 18.592-42.176 7.616-62.048l9.536-9.44-511.968-507.008-512.032 507.008 9.536 9.44c-10.944 19.872-8.992 45.152 7.616 62.048 16.992 17.248 42.4 19.008 62.08 7.04zM104.544 757.024c0-6.656-1.28-13.344-3.712-19.584 2.464 6.272 3.712 12.928 3.712 19.584z" fill="#272636"></path></g></g></svg>