<?xml version="1.0" encoding="UTF-8" standalone="no"?>
<svg width="200px" height="200px" viewBox="0 0 200 200" version="1.1" xmlns="http://www.w3.org/2000/svg" xmlns:xlink="http://www.w3.org/1999/xlink">
    <!-- Generator: Sketch 3.7 (28169) - http://www.bohemiancoding.com/sketch -->
    <title>购物车空</title>
    <desc>Created with Sketch.</desc>
    <defs></defs>
    <g id="nothing页面" stroke="none" stroke-width="1" fill="none" fill-rule="evenodd">
        <g id="购物车空" fill="#26262E">
            <g id="Page-1" transform="translate(4.000000, 5.000000)">
                <path d="M57.3022,81.8382 C57.3022,85.7522 54.1292,88.9252 50.2152,88.9252 C46.3022,88.9252 43.1292,85.7522 43.1292,81.8382 C43.1292,77.9242 46.3022,74.7512 50.2152,74.7512 C54.1292,74.7512 57.3022,77.9242 57.3022,81.8382" id="Fill-1"></path>
                <path d="M148.8022,81.8382 C148.8022,85.7522 145.6292,88.9252 141.7152,88.9252 C137.8022,88.9252 134.6292,85.7522 134.6292,81.8382 C134.6292,77.9242 137.8022,74.7512 141.7152,74.7512 C145.6292,74.7512 148.8022,77.9242 148.8022,81.8382" id="Fill-3"></path>
                <path d="M35.2119,53.1358 L25.8389,53.1358 C16.4352963,53.1358 8.6166406,60.37427 7.89276908,69.7498848 L0.0547658486,171.281927 C-0.752682021,181.737605 7.51357428,190.6668 18.0009,190.6668 L173.0889,190.6668 C183.57632,190.6668 191.843475,181.737511 191.036025,171.281814 L183.197031,69.7498876 C182.473159,60.37427 174.654504,53.1358 165.2509,53.1358 L142.1109,53.1358 C141.232932,53.1358 140.508074,52.4540586 140.451832,51.5698773 C138.539914,21.6215846 122.755899,0.0008 95.4989,0.0008 C68.5094799,0.0008 53.4402043,20.9277084 51.4229743,50.8245199 C51.047487,56.4056253 55.4867887,61.1358 61.0789,61.1358 L112.6289,61.1358 C114.838039,61.1358 116.6289,59.344939 116.6289,57.1358 C116.6289,54.926661 114.838039,53.1358 112.6289,53.1358 L61.0789,53.1358 C60.1095525,53.1358 59.3406782,52.3165473 59.4048779,51.3623062 C61.1718907,25.1738968 73.5380809,8.0008 95.4989,8.0008 C117.755555,8.0008 130.794283,25.8611182 132.468026,52.0786437 C132.79192,57.1705865 137.007912,61.1358 142.1109,61.1358 L165.2509,61.1358 C170.475034,61.1358 174.81862,65.1570689 175.220769,70.3657152 L183.059769,171.897712 C183.508326,177.706096 178.915473,182.6668 173.0889,182.6668 L18.0009,182.6668 C12.1746016,182.6668 7.58245308,177.70637 8.03102545,171.897786 L15.8690342,70.3656733 C16.2711796,65.1570689 20.6147655,61.1358 25.8389,61.1358 L35.2119,61.1358 C37.421039,61.1358 39.2119,59.344939 39.2119,57.1358 C39.2119,54.926661 37.421039,53.1358 35.2119,53.1358 L35.2119,53.1358 Z" id="Stroke-5"></path>
            </g>
        </g>
    </g>
</svg>