<?xml version="1.0" encoding="UTF-8" standalone="no"?>
<svg width="200px" height="200px" viewBox="0 0 200 200" version="1.1" xmlns="http://www.w3.org/2000/svg" xmlns:xlink="http://www.w3.org/1999/xlink">
    <!-- Generator: Sketch 3.7 (28169) - http://www.bohemiancoding.com/sketch -->
    <title>购物车</title>
    <desc>Created with Sketch.</desc>
    <defs></defs>
    <g id="内容区域" stroke="none" stroke-width="1" fill="none" fill-rule="evenodd">
        <g id="购物车" fill="#26262E">
            <g id="Group" transform="translate(3.000000, 10.000000)">
                <path d="M7.33325734,13.8945618 L37.993695,13.8945618 L31.1794909,8.04432572 L47.0144147,110.667684 C49.4134898,126.476087 63.0054697,138.168558 78.9903013,138.168558 L167.686455,138.313402 C182.050489,138.313411 193.683572,126.662309 193.683572,112.288455 L193.519536,39.2498619 C193.510993,35.4461786 190.431988,32.3658115 186.633539,32.3608176 L76.455664,32.215965 C72.6476266,32.2109585 69.5565493,35.2981831 69.5515497,39.1114741 C69.5465501,42.9247652 72.6295215,46.0201069 76.4375589,46.0251134 L186.615433,46.169966 L179.729436,39.2809216 L179.893454,112.303985 C179.893437,119.036243 174.433885,124.504251 167.697698,124.504251 L79.0015449,124.359407 C69.8199522,124.359398 62.0227927,117.651908 60.6454191,108.57596 L44.8078992,5.93563748 C44.2884828,2.56939096 41.3951958,0.0854014478 37.993695,0.0854014478 L7.33325734,0.0854014478 C3.5252166,0.0854014478 0.438189638,3.17668728 0.438189638,6.9899816 C0.438189638,10.8032759 3.5252166,13.8945618 7.33325734,13.8945618 L7.33325734,13.8945618 Z" id="Stroke-1"></path>
                <path d="M92.4032882,168.013396 C92.4032882,174.366684 87.254971,179.522975 80.9115087,179.522975 C74.5680464,179.522975 69.4197292,174.366684 69.4197292,168.013396 C69.4197292,161.660108 74.5680464,156.503817 80.9115087,156.503817 C87.254971,156.503817 92.4032882,161.660108 92.4032882,168.013396" id="Fill-3"></path>
                <path d="M179.740812,168.013396 C179.740812,174.366684 174.592495,179.522975 168.249033,179.522975 C161.905571,179.522975 156.757253,174.366684 156.757253,168.013396 C156.757253,161.660108 161.905571,156.503817 168.249033,156.503817 C174.592495,156.503817 179.740812,161.660108 179.740812,168.013396" id="Fill-5"></path>
            </g>
        </g>
    </g>
</svg>