<?xml version="1.0" encoding="UTF-8" standalone="no"?>
<svg width="194px" height="194px" viewBox="0 0 194 194" version="1.1" xmlns="http://www.w3.org/2000/svg" xmlns:xlink="http://www.w3.org/1999/xlink">
    <!-- Generator: Sketch 3.7.1 (28215) - http://www.bohemiancoding.com/sketch -->
    <title>Group Copy</title>
    <desc>Created with Sketch.</desc>
    <defs></defs>
    <g id="Page-1" stroke="none" stroke-width="1" fill="none" fill-rule="evenodd">
        <g id="Artboard-1" transform="translate(-3.000000, -3.000000)" fill="#26262E">
            <g id="Group-Copy" transform="translate(3.000000, 3.000000)">
                <path d="M0,97 C0,150.567106 43.4328943,194 97,194 C150.567106,194 194,150.567106 194,97 C194,43.4328943 150.567106,0 97,0 C43.4328943,0 0,43.4328943 0,97 L0,97 Z M11.4117647,97 C11.4117647,49.7354379 49.7354379,11.4117647 97,11.4117647 C144.264562,11.4117647 182.588235,49.7354379 182.588235,97 C182.588235,144.264562 144.264562,182.588235 97,182.588235 C49.7354379,182.588235 11.4117647,144.264562 11.4117647,97 L11.4117647,97 Z" id="Stroke-1"></path>
                <path d="M64.517021,142.488293 L142.488293,64.517021 C144.716579,62.2887354 144.716579,58.6759705 142.488293,56.4476848 C140.260008,54.2193992 136.647243,54.2193992 134.418957,56.4476848 L56.4476848,134.418957 C54.2193992,136.647243 54.2193992,140.260008 56.4476848,142.488293 C58.6759705,144.716579 62.2887354,144.716579 64.517021,142.488293 L64.517021,142.488293 Z" id="Stroke-3"></path>
                <path d="M142.488293,134.418957 L64.517021,56.4476848 C62.2887354,54.2193992 58.6759705,54.2193992 56.4476848,56.4476848 C54.2193992,58.6759705 54.2193992,62.2887354 56.4476848,64.517021 L134.418957,142.488293 C136.647243,144.716579 140.260008,144.716579 142.488293,142.488293 C144.716579,140.260008 144.716579,136.647243 142.488293,134.418957 L142.488293,134.418957 Z" id="Stroke-5"></path>
            </g>
        </g>
    </g>
</svg>