<?xml version="1.0" standalone="no"?><!DOCTYPE svg PUBLIC "-//W3C//DTD SVG 1.1//EN" "http://www.w3.org/Graphics/SVG/1.1/DTD/svg11.dtd"><svg width="200" height="200" viewBox="0 0 200 200" version="1.1" xmlns="http://www.w3.org/2000/svg" xmlns:xlink="http://www.w3.org/1999/xlink"><defs><style type="text/css"><![CDATA[
@font-face { font-family: ifont; src: url("http://at.alicdn.com/t/font_1442373896_4754455.eot?#iefix") format("embedded-opentype"), url("http://at.alicdn.com/t/font_1442373896_4754455.woff") format("woff"), url("http://at.alicdn.com/t/font_1442373896_4754455.ttf") format("truetype"), url("http://at.alicdn.com/t/font_1442373896_4754455.svg#ifont") format("svg"); }

]]></style></defs><g class="transform-group"><g transform="scale(0.1953125, 0.1953125)"><path d="M997.521378 154.253719l-357.806255 357.746281 357.806255 357.746281c16.312991 16.312991 26.448635 38.923275 26.448635 63.872555 0 49.898559-40.482605 90.381164-90.381164 90.381164-24.94928 0-47.559564-10.135645-63.872555-26.448635l-357.686307-357.746281-357.806255 357.746281c-16.312991 16.312991-38.923275 26.448635-63.872555 26.448635-49.898559 0-90.32119-40.482605-90.32119-90.381164 0-24.94928 10.075671-47.559564 26.388661-63.872555l357.806255-357.746281-357.806255-357.746281c-16.312991-16.372965-26.388661-38.983249-26.388661-63.872555 0-49.898559 40.422631-90.381164 90.32119-90.381164 24.94928 0 47.559564 10.075671 63.872555 26.448635l357.806255 357.746281 357.686307-357.746281c16.312991-16.372965 38.923275-26.448635 63.872555-26.448635 49.898559 0 90.381164 40.482605 90.381164 90.381164C1023.970013 115.27047 1013.834368 137.880754 997.521378 154.253719" fill="#272636"></path></g></g></svg>