<?xml version="1.0" encoding="UTF-8" standalone="no"?>
<svg width="200px" height="200px" viewBox="0 0 200 200" version="1.1" xmlns="http://www.w3.org/2000/svg" xmlns:xlink="http://www.w3.org/1999/xlink">
    <!-- Generator: Sketch 3.7 (28169) - http://www.bohemiancoding.com/sketch -->
    <title>退换货</title>
    <desc>Created with Sketch.</desc>
    <defs></defs>
    <g id="侧边栏" stroke="none" stroke-width="1" fill="none" fill-rule="evenodd">
        <g id="退换货" fill="#26262E">
            <g id="Group" transform="translate(6.000000, 3.000000)">
                <path d="M94.3987404,160.846415 C91.5889026,160.846415 89.3176593,158.568991 89.3176593,155.751507 L89.3176593,103.299429 L59.7305242,56.6606407 C58.2214431,54.2813186 58.9226323,51.1377604 61.285335,49.6245727 C63.663281,48.11648 66.798308,48.8195773 68.302308,51.1887095 L94.4241458,92.365756 L120.861011,51.1683299 C122.385335,48.7991976 125.525443,48.11648 127.883065,49.6398574 C130.245767,51.1632349 130.921551,54.316983 129.407389,56.6810203 L99.4798215,103.314713 L99.4798215,155.751507 C99.4798215,158.568991 97.2085783,160.846415 94.3987404,160.846415" id="Fill-1"></path>
                <path d="M94.4881675,193.58018 C45.4455729,193.58018 4.36503232,155.454983 0.97087016,106.773137 C0.777789079,103.965843 2.88643773,101.535571 5.6861134,101.33687 C5.86903232,101.32668 6.05195124,101.31649 6.23487016,101.331775 C6.29584313,101.32668 6.35681611,101.32668 6.41778908,101.32668 L145.370113,101.32668 C148.17487,101.32668 150.451194,103.604104 150.451194,106.421588 C150.451194,109.233977 148.17487,111.516496 145.370113,111.516496 L11.6716269,111.516496 C17.2455729,152.240096 52.6098972,183.390364 94.4881675,183.390364 C140.248384,183.390364 177.477465,146.059973 177.477465,100.170136 C177.477465,54.2853946 140.248384,16.9550036 94.4881675,16.9550036 C70.1497891,16.9550036 47.1172485,27.618646 31.2998431,46.2099654 C29.7805999,48.003373 27.2451404,48.4975791 25.151735,47.4582178 C23.0583296,46.398477 21.9608161,44.0446295 22.4841675,41.7621107 L31.101681,4.34510625 C31.7368161,1.60404574 34.4653566,-0.112938257 37.1989783,0.523925245 C39.9325999,1.16078875 41.6398431,3.89675435 41.0097891,6.63781486 L36.2538972,27.2569076 C52.6556269,14.0865704 73.1171404,6.76518756 94.4881675,6.76518756 C145.847735,6.76518756 187.639627,48.6708059 187.639627,100.170136 C187.639627,151.674561 145.847735,193.58018 94.4881675,193.58018" id="Fill-3"></path>
            </g>
        </g>
    </g>
</svg>