<?xml version="1.0" encoding="utf-8"?>
<!-- Generator: Adobe Illustrator 19.0.0, SVG Export Plug-In . SVG Version: 6.00 Build 0)  -->
<svg version="1.1" id="图层_1" xmlns="http://www.w3.org/2000/svg" xmlns:xlink="http://www.w3.org/1999/xlink" x="0px" y="0px"
	 viewBox="0 0 200 200" style="enable-background:new 0 0 200 200;" xml:space="preserve">
<style type="text/css">
	.st0{fill:#1E1231;}
</style>
<path id="XMLID_32_" class="st0" d="M100.2,17.6c-19.6,0-38.3,6.7-53.3,18.7l4.3-18.8c0.6-2.5-1-5-3.5-5.6s-5,1-5.6,3.5l-7.9,34.2
	c-0.5,2.1,0.5,4.2,2.4,5.2s4.2,0.5,5.6-1.1C56.7,36.7,77.8,27,100,27c41.9,0,76,34.1,76,76s-34.1,76-76,76
	c-38.3,0-70.7-28.4-75.8-65.6h71.1v40.4c0,2.6,2.1,4.7,4.7,4.7s4.7-2.1,4.7-4.7v-40.4h42c2.6,0,4.7-2.1,4.7-4.7s-2.1-4.7-4.7-4.7
	h-40.8l26.2-40.8c1.4-2.2,0.8-5-1.4-6.4s-5-0.8-6.4,1.4l-24.2,37.6L76.2,58.2c-1.4-2.2-4.3-2.8-6.4-1.4c-2.2,1.4-2.8,4.3-1.4,6.4
	L94.3,104H19.6h-0.1c-0.2,0-0.4,0-0.5,0c-2.6,0.2-4.5,2.4-4.3,5c3.1,44.4,40.7,79.2,85.6,79.2c47,0,85.3-38.3,85.3-85.3
	C185.4,55.9,147.2,17.6,100.2,17.6z"/>
</svg>
