<?xml version="1.0" encoding="UTF-8" standalone="no"?>
<svg width="200px" height="200px" viewBox="0 0 200 200" version="1.1" xmlns="http://www.w3.org/2000/svg" xmlns:xlink="http://www.w3.org/1999/xlink">
    <!-- Generator: Sketch 3.7 (28169) - http://www.bohemiancoding.com/sketch -->
    <title>复制链接（分享方式） </title>
    <desc>Created with Sketch.</desc>
    <defs></defs>
    <g id="-分享方式" stroke="none" stroke-width="1" fill="none" fill-rule="evenodd">
        <g id="复制链接（分享方式）-" fill="#26262E">
            <g id="Group" transform="translate(3.000000, 3.000000)">
                <path d="M3.62616822,97 C3.62616822,45.4284152 45.4284152,3.62616822 97,3.62616822 C148.571585,3.62616822 190.373832,45.4284152 190.373832,97 C190.373832,148.571585 148.571585,190.373832 97,190.373832 C60.1076563,190.373832 27.1357058,168.776999 12.0523856,135.81361 C11.6357416,134.903068 10.5598447,134.502685 9.64930256,134.919329 C8.73876043,135.335973 8.33837689,136.41187 8.7550209,137.322412 C24.423375,171.564346 58.6759576,194 97,194 C150.574262,194 194,150.574262 194,97 C194,43.4257378 150.574262,0 97,0 C43.4257378,0 0,43.4257378 0,97 C0,98.0013387 0.811745407,98.8130841 1.81308411,98.8130841 C2.81442282,98.8130841 3.62616822,98.0013387 3.62616822,97 L3.62616822,97 Z" id="Stroke-1"></path>
                <path d="M85.7192988,130.073825 C79.7840607,136.019752 69.8630541,136.042168 63.933418,130.096242 C57.9869761,124.133502 57.9869761,114.2367 63.933418,108.304784 L79.6804251,92.4872729 C82.6830562,89.5451319 86.6044027,88.043239 90.5817684,88.043239 C94.5591342,88.043239 98.4804807,89.5451319 101.480311,92.4872729 C102.413031,93.4427683 103.149684,94.4571064 103.785502,95.5358915 C104.468937,96.6146765 104.959105,97.794335 105.309226,98.9683893 C105.84701,100.834547 107.762868,101.8685 109.569488,101.327706 C111.390114,100.786913 112.471285,98.87312 111.936301,97.0293783 C111.390114,95.2640937 110.647859,93.56886 109.77676,91.9969161 C108.78802,90.4249722 107.664834,88.9510996 106.390397,87.6229331 C102.012493,83.2993868 96.3237401,81.1222024 90.5817684,81.1222024 C84.8453987,81.1222024 79.1510434,83.2993868 74.775941,87.6229331 L59.020531,103.415225 C50.4327821,112.028694 50.4327821,126.344311 59.020531,135.008216 L59.2614137,135.184744 C67.8967789,143.60207 81.9464032,143.529217 90.536953,135.058653 L105.253206,120.328333 C106.583663,118.958136 106.583663,116.794962 105.208391,115.419161 C103.877934,114.090994 101.673577,114.090994 100.345921,115.419161 L85.7192988,130.073825 Z M94.6039496,77.6056434 C93.2762937,78.9366119 91.0691358,78.9366119 89.6966645,77.6056434 C88.3774115,76.2606646 88.3774115,74.0722721 89.6966645,72.7216893 L104.323287,58.0614208 C108.698389,53.7406765 114.434759,51.5578881 120.129114,51.5578881 C132.450545,51.5578881 142.357547,61.5303452 142.357547,73.8789314 C142.357547,79.5754769 140.200807,85.319657 135.881723,89.6404012 L120.129114,105.401871 L119.938649,105.595212 C115.616765,109.817885 109.967225,111.930622 104.323287,111.930622 C96.4245747,111.930622 89.2064962,107.73597 85.2291304,101.083929 C84.2487938,99.4587462 83.5121409,97.7410962 82.9687543,96.0262483 C82.4337706,94.2077249 83.4701264,92.2631098 85.2767468,91.7251183 C87.1505902,91.1899289 89.0636471,92.2154752 89.5930289,94.0592169 C89.9431491,95.2640937 90.4781328,96.4437521 91.1139512,97.5477555 C93.8700976,102.162714 98.9258336,105.062824 104.323287,105.062824 C108.253036,105.062824 112.129567,103.58615 115.115393,100.686039 L115.263844,100.537531 L131.027657,84.7592492 C134.019084,81.7582653 135.495191,77.8045882 135.495191,73.8789314 C135.495191,65.3355142 128.663645,58.506945 120.129114,58.506945 C116.199365,58.506945 112.230402,59.9836196 109.278188,62.9761973 L94.6039496,77.6056434 Z" id="Fill-1"></path>
            </g>
        </g>
    </g>
</svg>