<?xml version="1.0" encoding="utf-8"?>
<!-- Generator: Adobe Illustrator 19.0.0, SVG Export Plug-In . SVG Version: 6.00 Build 0)  -->
<svg version="1.1" id="图层_1" xmlns="http://www.w3.org/2000/svg" xmlns:xlink="http://www.w3.org/1999/xlink" x="0px" y="0px"
	 viewBox="0 0 200 200" style="enable-background:new 0 0 200 200;" xml:space="preserve">
<style type="text/css">
	.st0{fill:#1E1231;}
</style>
<g id="XMLID_5_">
	<path id="XMLID_3_" class="st0" d="M105.5,193.5c-1.4,0-2.8-0.2-4.2-0.6c-4.3-1.2-8.1-4.1-10.4-8.1L22,65.4
		c-4.6-8-2.2-18.2,5.4-22.6l17-9.8c1.7-1,3.9-0.4,4.9,1.3l3.9,6.8c1.6,2.8,4.2,4.9,7.2,5.8c2.9,0.9,5.9,0.6,8.4-0.9
		c2.5-1.4,4.3-3.9,5-6.8c0.7-3,0.2-6.3-1.4-9.1l-3.9-6.7c-1-1.7-0.4-3.9,1.3-4.9l17.1-9.9C90.6,6.4,95,6,99.3,7.3
		c4.2,1.3,7.7,4.1,9.9,7.9c1,1.7,0.4,3.9-1.3,4.9c-1.7,1-3.9,0.4-4.9-1.3c-1.3-2.3-3.4-3.9-5.8-4.7c-2.3-0.7-4.7-0.5-6.7,0.7
		l-14,8.1l2.1,3.7c2.5,4.4,3.3,9.5,2.2,14.3c-1.1,4.9-4.1,8.9-8.3,11.4c-4.2,2.4-9.2,3-14,1.5c-4.7-1.4-8.7-4.6-11.3-9L44.9,41
		L31,49c-4.2,2.4-5.5,8.2-2.8,12.8l69,119.4c1.4,2.3,3.6,4.1,6.1,4.8c2.2,0.6,4.5,0.3,6.4-0.8l13.9-8l-2.1-3.7
		c-2.5-4.4-3.3-9.5-2.2-14.3c1.1-4.9,4.1-9,8.4-11.4c4.2-2.5,9.2-3,14-1.5c4.7,1.4,8.7,4.7,11.3,9l2.1,3.7l14-8.1
		c4.2-2.4,5.5-8.2,2.8-12.8L125,56.9c-1-1.7-3.1-2.3-4.9-1.2L69.2,85.1c-1.7,1-3.9,0.4-4.9-1.3c-1-1.7-0.4-3.9,1.3-4.9l50.9-29.4
		c5.1-3,11.7-1.2,14.6,3.9l46.9,81.2c4.6,8,2.2,18.2-5.4,22.6l-17.1,9.9c-0.8,0.5-1.8,0.6-2.7,0.4c-0.9-0.2-1.7-0.8-2.2-1.7
		l-3.9-6.7c-1.6-2.8-4.2-4.9-7.2-5.8c-2.9-0.9-5.9-0.6-8.4,0.9s-4.3,3.9-5,6.8c-0.7,3-0.2,6.3,1.4,9.1l3.9,6.8
		c0.5,0.8,0.6,1.8,0.4,2.7c-0.2,0.9-0.8,1.7-1.7,2.2l-17,9.8C110.9,192.8,108.2,193.5,105.5,193.5z"/>
</g>
</svg>
