<?xml version="1.0" encoding="UTF-8" standalone="no"?>
<svg width="200px" height="200px" viewBox="0 0 200 200" version="1.1" xmlns="http://www.w3.org/2000/svg" xmlns:xlink="http://www.w3.org/1999/xlink">
    <!-- Generator: Sketch 3.7.1 (28215) - http://www.bohemiancoding.com/sketch -->
    <title>youhuijuan</title>
    <desc>Created with Sketch.</desc>
    <defs></defs>
    <g id="nothing页面" stroke="none" stroke-width="1" fill="none" fill-rule="evenodd">
        <g id="youhuijuan" fill="#26262E">
            <path d="M110.32037,12.907858 C105.562595,4.66714997 95.2454258,1.53658646 87.3255224,6.10914485 L69.6553909,16.3165681 C67.8928913,17.334703 67.2892203,19.5886993 68.3069388,21.3514393 L72.3260404,28.3127277 C73.9926665,31.1921254 74.5372872,34.546379 73.8007519,37.6954175 C72.3328901,44.0038879 66.2086116,47.5397417 60.0154378,45.657941 C56.9169511,44.720348 54.2826671,42.5717272 52.6215935,39.6946633 L48.5976699,32.7250231 C47.5797813,30.9619885 45.3253977,30.3579282 43.562363,31.3758167 L26.0295566,41.4983872 C18.1138623,46.0685154 15.6667057,56.5675247 20.4188868,64.8099518 L91.5986384,188.078837 C96.3426247,196.329868 106.65538,199.465916 114.580138,194.890555 L132.116855,184.765727 C133.879889,183.747838 134.48395,181.493454 133.466061,179.73042 L129.444548,172.764955 C127.783669,169.895494 127.241961,166.545045 127.97594,163.385119 C129.444648,157.083945 135.573663,153.544079 141.769145,155.423989 C144.867565,156.36415 147.500257,158.511019 149.155711,161.385616 L153.179241,168.354578 C154.197299,170.117907 156.452213,170.721824 158.215302,169.703349 L175.888589,159.494104 C183.802662,154.917691 186.250302,144.422358 181.495901,136.187494 L133.092047,52.3495591 C130.042133,47.0669532 123.29785,45.2930383 117.974567,48.3669401 L65.4459764,78.6992973 C63.6830138,79.7173107 63.0791132,81.9717372 64.0971266,83.7346997 C65.1151401,85.4976623 67.3695665,86.1015629 69.1325291,85.0835494 L121.661119,54.7511923 C123.471282,53.7059233 125.70107,54.2924131 126.707533,56.0356595 L175.111388,139.873595 C177.8824,144.673129 176.493606,150.628196 172.199551,153.111287 L154.527693,163.319707 L159.563754,164.668478 L155.542241,157.703013 C152.969499,153.235597 148.834668,149.863784 143.909736,148.3694 C133.635608,145.251897 123.232196,151.260478 120.795553,161.71438 C119.629887,166.732797 120.480644,171.994717 123.062058,176.454555 L127.081548,183.41652 L128.430754,178.381213 L110.894037,188.506042 C106.596087,190.987464 100.753285,189.210702 97.9863402,184.398271 L26.8043875,61.125563 C24.0337132,56.3199614 25.4225292,50.361539 29.715657,47.8829005 L47.2484635,37.76033 L42.2131566,36.4111236 L46.2370802,43.3807638 C48.8175211,47.8502185 52.9528568,51.2231533 57.8761977,52.7129378 C68.145125,55.8331619 78.5469459,49.8276678 80.9801785,39.3702796 C82.1514441,34.3625731 81.2958749,29.0932255 78.7085332,24.6231319 L74.691452,17.6653389 L73.3429999,22.7002101 L91.0123771,12.4932225 C95.3083626,10.0129343 101.161734,11.7890368 103.935857,16.5939585 C104.953745,18.3569931 107.208129,18.9610534 108.971164,17.9431649 C110.734198,16.9252764 111.338258,14.6708927 110.32037,12.907858 L110.32037,12.907858 Z" id="Imported-Layers-Copy"></path>
        </g>
    </g>
</svg>