<?xml version="1.0" encoding="UTF-8" standalone="no"?>
<svg width="200px" height="200px" viewBox="0 0 200 200" version="1.1" xmlns="http://www.w3.org/2000/svg" xmlns:xlink="http://www.w3.org/1999/xlink">
    <!-- Generator: Sketch 3.7 (28169) - http://www.bohemiancoding.com/sketch -->
    <title>优惠券</title>
    <desc>Created with Sketch.</desc>
    <defs>
        <path d="M26.59,0.828 C25.049,0.828 23.795,2.066 23.786,3.598 C23.786,3.641 23.747,7.134 22.354,11.726 L18.354,11.726 C16.986,6.145 14.625,3.404 14.351,3.099 C14.351,3.099 12.589,1.286 10.672,2.679 C8.214,4.465 10.155,6.793 10.171,6.813 L10.149,6.789 C10.165,6.808 11.513,8.404 12.54,11.726 L8.001,11.726 C6.452,11.726 5.198,12.974 5.198,14.512 C5.198,16.05 6.452,17.297 8.001,17.297 L20.116,17.297 C19.515,18.472 18.852,19.584 18.13,20.633 L4.298,20.633 C2.749,20.633 1.493,21.879 1.493,23.417 C1.493,24.956 2.749,26.203 4.298,26.203 L13.01,26.203 C10.098,28.583 6.645,30.372 2.669,31.558 C1.184,32 0.343,33.552 0.788,35.025 C1.152,36.232 2.266,37.011 3.472,37.011 C3.74,37.011 4.011,36.973 4.279,36.893 C5.973,36.388 7.595,35.782 9.14,35.079 C9.503,36.2 10.562,37.01 11.81,37.01 L20.661,37.01 C19.859,39.264 16.52,46.255 5.667,47.711 C4.132,47.917 3.056,49.319 3.263,50.844 C3.453,52.242 4.657,53.257 6.039,53.257 C6.164,53.257 6.29,53.248 6.418,53.231 C23.171,50.982 26.232,38.06 26.355,37.511 C26.392,37.344 26.413,37.176 26.42,37.01 L39.06,37.01 C39.981,37.01 40.729,37.754 40.729,38.669 L40.729,44.517 C40.729,45.377 40.493,46.212 40.044,46.932 C38.869,48.816 36.382,49.514 34.257,48.552 L26.762,45.161 C25.352,44.524 23.689,45.141 23.047,46.542 C22.405,47.941 23.027,49.593 24.437,50.231 L31.932,53.621 C33.322,54.249 34.787,54.55 36.229,54.55 C39.649,54.55 42.943,52.862 44.812,49.864 C45.81,48.264 46.337,46.415 46.337,44.517 L46.337,38.669 C46.337,34.683 43.073,31.44 39.06,31.44 L15.335,31.44 C17.39,29.916 19.247,28.166 20.894,26.203 L36.495,26.203 C36.536,26.261 36.581,26.318 36.626,26.374 C36.851,26.645 42.207,33.034 49.738,35.404 C50.02,35.492 50.305,35.534 50.586,35.534 C51.776,35.534 52.88,34.776 53.258,33.59 C53.726,32.123 52.909,30.558 51.432,30.093 C48.732,29.244 46.325,27.669 44.5,26.203 L50.585,26.203 C52.134,26.203 53.39,24.956 53.39,23.417 C53.39,21.879 52.134,20.633 50.585,20.633 L24.683,20.633 C25.243,19.608 25.76,18.543 26.231,17.44 C26.252,17.393 26.272,17.345 26.293,17.297 L47.679,17.297 C49.227,17.297 50.484,16.05 50.484,14.512 C50.484,12.974 49.227,11.726 47.679,11.726 L39.794,11.726 L42.499,6.168 C43.173,4.784 42.589,3.118 41.194,2.448 C39.8,1.779 38.123,2.359 37.449,3.744 L33.565,11.726 L28.174,11.726 C29.356,7.164 29.393,3.821 29.394,3.629 C29.403,2.091 28.155,0.837 26.606,0.828 L26.59,0.828 L26.59,0.828 Z" id="path-1"></path>
    </defs>
    <g id="nothing页面" stroke="none" stroke-width="1" fill="none" fill-rule="evenodd">
        <g id="优惠券">
            <g id="Page-1" transform="translate(100.000000, 100.500000) rotate(-315.000000) translate(-100.000000, -100.500000) translate(7.000000, 46.000000)">
                <g id="Group-3" transform="translate(83.000000, 27.000000)">
                    <mask id="mask-2" fill="white">
                        <use xlink:href="#path-1"></use>
                    </mask>
                    <g id="Clip-2"></g>
                    <polygon id="Fill-1" fill="#26262E" mask="url(#mask-2)" points="-4.331 59.549 58.391 59.549 58.391 -4.172 -4.331 -4.172"></polygon>
                </g>
                <path d="M19.0042,0.8964 L16.3332,0.8964 C7.497061,0.8964 0.3332,8.060261 0.3332,16.8964 L0.3332,35.8954 C0.3332,38.9971023 2.68996898,41.5369562 5.73824494,41.8618693 C12.3408067,42.5625624 17.4135512,48.1377554 17.4462477,54.8329341 C17.4789592,61.557043 12.4172558,67.1999425 5.7895867,67.9294102 C2.75920614,68.2638173 0.421185781,70.7883055 0.409230104,73.8698812 L0.333231963,92.8804094 C0.3332,101.732539 7.497061,108.8964 16.3332,108.8964 L170.0002,108.8964 C178.836339,108.8964 186.0002,101.732539 186.0002,92.8964 L186.0002,73.8974 C186.0002,70.7956977 183.643431,68.2558438 180.595155,67.9309307 C173.992593,67.2302376 168.919849,61.6550446 168.887152,54.9598659 C168.854441,48.235757 173.916144,42.5928575 180.543813,41.8633898 C183.574194,41.5289827 185.912214,39.0044945 185.92417,35.9229188 L186.000168,16.9123906 C186.0002,8.060261 178.836339,0.8964 170.0002,0.8964 L58.6702,0.8964 C50.9387775,0.8964 44.6702,7.1645445 44.6702,14.8964 L44.6702,81.4464 C44.6702,83.655539 46.461061,85.4464 48.6702,85.4464 C50.879339,85.4464 52.6702,83.655539 52.6702,81.4464 L52.6702,14.8964 C52.6702,11.5829462 55.3569318,8.8964 58.6702,8.8964 L170.0002,8.8964 C174.418061,8.8964 178.0002,12.478539 178.0002,16.8964 L177.924232,35.8914094 C177.928252,34.8552279 178.703749,34.0178814 179.667457,33.9115347 C168.98133,35.0876923 160.834567,44.1698859 160.887247,54.998859 C160.939907,65.7819074 169.105732,74.756546 179.749073,75.8860637 C178.781417,75.7829225 178.0002,74.941017 178.0002,73.8974 L178.0002,92.8964 C178.0002,97.314261 174.418061,100.8964 170.0002,100.8964 L16.3332,100.8964 C11.915339,100.8964 8.3332,97.314261 8.3332,92.8964 L8.40916804,73.9013906 C8.40514796,74.9375721 7.62965097,75.7749186 6.66594294,75.8812653 C17.3520698,74.7051077 25.4988335,65.6229141 25.4461527,54.793941 C25.3934927,44.0108926 17.2276681,35.036254 6.58432701,33.9067363 C7.5519831,34.0098775 8.3332,34.851783 8.3332,35.8954 L8.3332,16.8964 C8.3332,12.478539 11.915339,8.8964 16.3332,8.8964 L19.0042,8.8964 C21.213339,8.8964 23.0042,7.105539 23.0042,4.8964 C23.0042,2.687261 21.213339,0.8964 19.0042,0.8964 L19.0042,0.8964 Z" id="Stroke-4" fill="#26262E"></path>
            </g>
        </g>
    </g>
</svg>