<?xml version="1.0" encoding="utf-8"?>
<!-- Generator: Adobe Illustrator 19.0.0, SVG Export Plug-In . SVG Version: 6.00 Build 0)  -->
<svg version="1.1" id="图层_1" xmlns="http://www.w3.org/2000/svg" xmlns:xlink="http://www.w3.org/1999/xlink" x="0px" y="0px"
	 viewBox="0 0 200 200" style="enable-background:new 0 0 200 200;" xml:space="preserve">
<style type="text/css">
	.st0{fill:#211332;}
</style>
<g>
	<g>
		<path class="st0" d="M136.9,83.4H62.6c-3,0-5.4-2.4-5.4-5.4s2.4-5.4,5.4-5.4h74.3c3,0,5.4,2.4,5.4,5.4S139.9,83.4,136.9,83.4z"/>
	</g>
	<g>
		<path class="st0" d="M136.9,111.4H62.6c-3,0-5.4-2.4-5.4-5.4s2.4-5.4,5.4-5.4h74.3c3,0,5.4,2.4,5.4,5.4S139.9,111.4,136.9,111.4z"
			/>
	</g>
	<path class="st0" d="M179.8,144.4c0-0.2,0.1-0.3,0.1-0.5c0-0.2,0-0.4,0.1-0.6c0-0.1,0-0.2,0-0.4V66.3c0-3-2.4-5.4-5.4-5.4
		s-5.4,2.4-5.4,5.4v68.6c-0.2-0.1-0.5-0.2-0.7-0.2c-0.3-0.1-7.2-1.5-14.6-2.2c-9.5-0.9-18.7-0.9-21.3,5.4c-2,4.8-1.4,14.1-1.1,17.9
		c0.7,7.4,2.2,14.9,4.5,21.5H30.8V22.6H128c3,0,5.4-2.4,5.4-5.4s-2.4-5.4-5.4-5.4H25.4c-3,0-5.4,2.4-5.4,5.4v165.6
		c0,3,2.4,5.4,5.4,5.4h124.2c1.9,0,3.6-1,4.6-2.5l25-39.9c0.1-0.1,0.1-0.2,0.2-0.3c0.1-0.2,0.2-0.4,0.3-0.6
		C179.7,144.7,179.7,144.6,179.8,144.4z M147.2,176.5c-5.3-13.6-5.7-28.6-4.8-33.4c3.6-0.8,14.2,0.1,24,2.1c0.1,0,0.2,0,0.4,0.1
		L147.2,176.5z"/>
</g>
</svg>
