<?xml version="1.0" encoding="UTF-8" standalone="no"?>
<svg width="200px" height="200px" viewBox="0 0 200 200" version="1.1" xmlns="http://www.w3.org/2000/svg" xmlns:xlink="http://www.w3.org/1999/xlink">
    <!-- Generator: Sketch 3.7 (28169) - http://www.bohemiancoding.com/sketch -->
    <title>积分纪录</title>
    <desc>Created with Sketch.</desc>
    <defs></defs>
    <g id="nothing页面" stroke="none" stroke-width="1" fill="none" fill-rule="evenodd">
        <g id="积分纪录" fill="#26262E">
            <g id="Page-1" transform="translate(26.000000, 18.000000)">
                <path d="M28.5070555,16.543289 C40.6808726,11.7736359 56.7821161,9.04895448 73.9425077,9.04895448 C110.002683,9.04895448 138.776754,21.2364736 138.776754,33.9147476 C138.776754,46.5930216 110.002683,58.7805407 73.9425077,58.7805407 C37.8815802,58.7805407 9.10826154,46.5932022 9.10826154,33.9147476 C9.10826154,31.4161352 7.06943517,29.3906097 4.55441538,29.3906097 C2.0393956,29.3906097 0.000569230769,31.4161352 0.000569230769,33.9147476 C0.000569230769,53.6996032 33.3584971,67.8288166 73.9425077,67.8288166 C114.52578,67.8288166 147.884446,53.6994508 147.884446,33.9147476 C147.884446,14.1300444 114.52578,0.00067862069 73.9425077,0.00067862069 C55.6907832,0.00067862069 38.4635006,2.91591037 25.1657138,8.12593033 C22.826061,9.04259696 21.6773825,11.669992 22.6000686,13.9943814 C23.5227546,16.3187708 26.1674027,17.4599556 28.5070555,16.543289 L28.5070555,16.543289 Z" id="Stroke-1"></path>
                <path d="M117.401312,83.8408619 C105.455692,88.1580073 90.1650217,90.5920166 73.9421662,90.5920166 C58.0806904,90.5920166 43.1045002,88.265627 31.2655497,84.1196835 C28.8935783,83.2890305 26.2929164,84.5259717 25.4568088,86.882469 C24.6207012,89.2389663 25.8657649,91.8226621 28.2377364,92.6533151 C41.0942392,97.1556005 57.0895048,99.6402924 73.9421662,99.6402924 C91.1835759,99.6402924 107.522538,97.0394133 120.514836,92.3439988 C122.878331,91.4898319 124.097336,88.8939009 123.237561,86.5458245 C122.377785,84.197748 119.764807,82.9866951 117.401312,83.8408619 L117.401312,83.8408619 Z" id="Stroke-3"></path>
                <path d="M117.401312,115.574523 C105.455692,119.891668 90.1650217,122.325677 73.9421662,122.325677 C58.0806904,122.325677 43.1045002,119.999288 31.2655497,115.853344 C28.8935783,115.022691 26.2929164,116.259632 25.4568088,118.61613 C24.6207012,120.972627 25.8657649,123.556323 28.2377364,124.386976 C41.0942392,128.889261 57.0895048,131.373953 73.9421662,131.373953 C91.1835759,131.373953 107.522538,128.773074 120.514836,124.077659 C122.878331,123.223493 124.097336,120.627562 123.237561,118.279485 C122.377785,115.931409 119.764807,114.720356 117.401312,115.574523 L117.401312,115.574523 Z" id="Stroke-5"></path>
                <path d="M138.776526,130.014789 C138.776526,142.693063 110.002455,154.880582 73.94228,154.880582 C37.882105,154.880582 9.10803385,142.693063 9.10803385,130.014789 L9.10803385,32.8046372 L0.000341538461,32.8046372 L0.000341538461,130.014789 C0.000341538461,149.799492 33.3590074,163.928858 73.94228,163.928858 C114.525553,163.928858 147.884218,149.799492 147.884218,130.014789 L147.884218,32.8046372 L138.776526,32.8046372 L138.776526,130.014789 Z" id="Stroke-7"></path>
            </g>
        </g>
    </g>
</svg>