<?xml version="1.0" encoding="utf-8"?>
<!-- Generator: Adobe Illustrator 19.0.0, SVG Export Plug-In . SVG Version: 6.00 Build 0)  -->
<svg version="1.1" id="图层_1" xmlns="http://www.w3.org/2000/svg" xmlns:xlink="http://www.w3.org/1999/xlink" x="0px" y="0px"
	 viewBox="0 0 200 200" style="enable-background:new 0 0 200 200;" xml:space="preserve">
<style type="text/css">
	.st0{fill:#1E1231;}
</style>
<g id="XMLID_2_">
	<g id="XMLID_9_">
		<path id="XMLID_7_" class="st0" d="M100,173.4c-19.8,0-38.5-3.1-52.7-8.8c-15.2-6.1-23.5-14.5-23.5-23.9V59.2c0-2,1.6-3.6,3.6-3.6
			s3.6,1.6,3.6,3.6c0,6.1,6.9,12.4,19,17.2c13.3,5.3,31.1,8.3,50,8.3s36.7-2.9,50-8.3c12.1-4.8,19-11.1,19-17.2s-6.9-12.4-19-17.2
			c-13.3-5.3-31.1-8.3-50-8.3c-11.9,0-23.7,1.2-34,3.5c-1.9,0.4-3.8-0.8-4.3-2.7c-0.4-1.9,0.8-3.8,2.7-4.3
			c10.9-2.4,23.2-3.6,35.6-3.6c19.8,0,38.5,3.1,52.7,8.8c15.2,6.1,23.5,14.6,23.5,23.9s-8.3,17.8-23.5,23.9
			C138.6,88.9,119.9,92,100,92c-19.8,0-38.5-3.1-52.7-8.8c-6.9-2.8-12.4-6-16.4-9.7v67.4c0,6.1,6.9,12.4,19,17.2
			c13.3,5.3,31.1,8.3,50,8.3s36.7-2.9,50-8.3c12.1-4.8,19-11.1,19-17.2v-38.5c0-2,1.6-3.6,3.6-3.6s3.6,1.6,3.6,3.6v38.5
			c0,9.3-8.3,17.8-23.5,23.9C138.5,170.3,119.8,173.4,100,173.4z"/>
	</g>
	<g id="XMLID_8_">
		<path id="XMLID_6_" class="st0" d="M99,134.8c-24,0-42-7.1-55.1-12.3l-0.2-0.1c-1.8-0.7-2.7-2.8-2-4.6c0.7-1.8,2.8-2.7,4.6-2
			l0.2,0.1c12.6,5,29.8,11.8,52.5,11.8c22.6,0,39.2-6.5,52.4-11.8l0.2-0.1c1.8-0.7,3.9,0.2,4.6,2c0.7,1.8-0.2,3.9-2,4.6l-0.2,0.1
			C140.9,127.7,123,134.8,99,134.8z"/>
	</g>
</g>
</svg>
