<?xml version="1.0" encoding="UTF-8" standalone="no"?>
<svg width="200px" height="200px" viewBox="0 0 200 200" version="1.1" xmlns="http://www.w3.org/2000/svg" xmlns:xlink="http://www.w3.org/1999/xlink">
    <!-- Generator: Sketch 3.7 (28169) - http://www.bohemiancoding.com/sketch -->
    <title>不可漂白</title>
    <desc>Created with Sketch.</desc>
    <defs></defs>
    <g id="内容区域" stroke="none" stroke-width="1" fill="none" fill-rule="evenodd">
        <g id="不可漂白" fill="#26262E">
            <g id="Group" transform="translate(3.000000, 8.000000)">
                <path d="M10.3720767,166.342982 L91.5664517,12.4489889 C93.7344739,8.57777192 99.3950404,8.57777192 101.618522,12.5510299 L182.761984,166.343077 C185.016557,170.372913 182.198596,175.212276 177.759132,175.212276 L15.3703822,175.212276 C10.9349739,175.212276 8.11767301,170.372521 10.3161407,166.445875 L10.3720767,166.342982 Z M2.0706843,161.860462 C-3.62651932,172.03614 3.70031252,184.62268 15.3703822,184.62268 L177.759132,184.62268 C189.432538,184.62268 196.761095,172.037149 191.063326,161.860462 L109.920341,8.06926652 C104.040018,-2.44153109 89.0894967,-2.44153109 83.2645823,7.96732049 L2.01474827,161.963355 L2.0706843,161.860462 Z" id="Stroke-1"></path>
                <path d="M185.18054,37.9677646 L4.29846531,113.627418 C1.89422392,114.633068 0.763200636,117.390757 1.7722541,119.786889 C2.78130755,122.183022 5.54832974,123.31023 7.95257113,122.30458 L188.834646,46.644927 C191.238887,45.6392769 192.369911,42.8815875 191.360857,40.4854553 C190.351804,38.0893231 187.584782,36.9621146 185.18054,37.9677646 L185.18054,37.9677646 Z" id="Stroke-3"></path>
                <path d="M4.29711642,46.644927 L185.179191,122.30458 C187.583433,123.31023 190.350455,122.183022 191.359508,119.786889 C192.368562,117.390757 191.237539,114.633068 188.833297,113.627418 L7.95122224,37.9677646 C5.54698085,36.9621146 2.77995866,38.0893231 1.7709052,40.4854553 C0.761851743,42.8815875 1.89287503,45.6392769 4.29711642,46.644927 L4.29711642,46.644927 Z" id="Stroke-5"></path>
            </g>
        </g>
    </g>
</svg>