<?xml version="1.0" encoding="UTF-8" standalone="no"?>
<svg width="200px" height="200px" viewBox="0 0 200 200" version="1.1" xmlns="http://www.w3.org/2000/svg" xmlns:xlink="http://www.w3.org/1999/xlink">
    <!-- Generator: Sketch 3.7 (28169) - http://www.bohemiancoding.com/sketch -->
    <title>不可干洗</title>
    <desc>Created with Sketch.</desc>
    <defs></defs>
    <g id="内容区域" stroke="none" stroke-width="1" fill="none" fill-rule="evenodd">
        <g id="不可干洗" fill="#26262E">
            <g id="Group" transform="translate(3.000000, 7.000000)">
                <path d="M180.693097,93.6165443 C180.693097,139.893513 143.267789,177.411872 97.1055933,177.411872 C50.9433976,177.411872 13.5180899,139.893513 13.5180899,93.6165443 C13.5180899,47.3395753 50.9433976,9.82121682 97.1055933,9.82121682 C143.267789,9.82121682 180.693097,47.3395753 180.693097,93.6165443 L180.693097,93.6165443 Z M190.226025,93.6165443 C190.226025,42.0615944 148.53268,0.264586983 97.1055933,0.264586983 C45.6785068,0.264586983 3.98516184,42.0615944 3.98516184,93.6165443 C3.98516184,145.171494 45.6785068,186.968502 97.1055933,186.968502 C148.53268,186.968502 190.226025,145.171494 190.226025,93.6165443 L190.226025,93.6165443 Z" id="Stroke-1"></path>
                <path d="M186.889384,38.7315648 L2.73181455,140.125076 C0.424459296,141.395461 -0.418726073,144.300442 0.848507321,146.613534 C2.11574071,148.926626 5.01351737,149.771908 7.32087262,148.501524 L191.478442,47.1080121 C193.785797,45.837628 194.628983,42.9326466 193.361749,40.6195545 C192.094516,38.3064625 189.196739,37.4611807 186.889384,38.7315648 L186.889384,38.7315648 Z" id="Stroke-3"></path>
                <path d="M2.73320962,47.1080121 L186.890779,148.501524 C189.198134,149.771908 192.095911,148.926626 193.363144,146.613534 C194.630378,144.300442 193.787192,141.395461 191.479837,140.125076 L7.32226769,38.7315648 C5.01491243,37.4611807 2.11713578,38.3064625 0.849902383,40.6195545 C-0.417331011,42.9326466 0.425854359,45.837628 2.73320962,47.1080121 L2.73320962,47.1080121 Z" id="Stroke-5"></path>
            </g>
        </g>
    </g>
</svg>