<?xml version="1.0" encoding="UTF-8" standalone="no"?>
<svg width="200px" height="200px" viewBox="0 0 200 200" version="1.1" xmlns="http://www.w3.org/2000/svg" xmlns:xlink="http://www.w3.org/1999/xlink">
    <!-- Generator: Sketch 3.7 (28169) - http://www.bohemiancoding.com/sketch -->
    <title>不可熨烫</title>
    <desc>Created with Sketch.</desc>
    <defs></defs>
    <g id="内容区域" stroke="none" stroke-width="1" fill="none" fill-rule="evenodd">
        <g id="不可熨烫" fill="#26262E">
            <g id="Group" transform="translate(8.000000, 3.000000)">
                <path d="M15.3123258,50.7697555 C17.1609463,50.7697555 20.1827575,50.4912026 24.0006759,49.6700125 C30.3083285,48.3133094 36.6166637,45.8709794 42.5240632,42.0591395 C47.6523175,38.7500548 52.230472,34.5495671 56.1028243,29.3787504 C55.7539567,29.8434084 54.9179299,29.9275479 54.2204922,29.0268511 C74.6321448,55.318507 107.019986,60.5295412 132.504803,29.7822039 C132.096403,30.2743503 131.365518,30.2665057 130.961332,29.7519496 C140.973154,42.5354894 157.720349,50.7975045 170.894567,50.2568012 C173.367199,50.1553181 175.289023,48.0776398 175.187079,45.6161769 C175.085136,43.154714 172.998029,41.2415723 170.525396,41.3430554 C160.333014,41.7613766 146.313931,34.8452408 138.024997,24.2615666 C134.890954,20.2717065 128.826779,20.2066199 125.593925,24.1023963 C104.220037,49.8899129 78.535647,45.757429 61.3148748,23.5758582 C58.1192505,19.4489053 51.8999355,20.0748308 48.9212074,24.0421603 C45.6962892,28.3484418 41.9047537,31.8272012 37.6495396,34.5729433 C32.7181059,37.7550264 27.4134057,39.8087898 22.1080229,40.9499163 C20.2580059,41.3478336 18.5482239,41.6024327 17.0282226,41.7425476 C16.1541434,41.8231209 15.5656377,41.848437 15.3123258,41.848437 C12.8375924,41.848437 10.8314246,43.8455422 10.8314246,46.3090963 C10.8314246,48.7726503 12.8375924,50.7697555 15.3123258,50.7697555 L15.3123258,50.7697555 Z" id="Stroke-1"></path>
                <path d="M175.019964,4.13377002 L146.377168,165.152688 L150.789424,161.469827 L33.2105755,161.469827 L37.6228316,165.152688 L8.98003649,4.13377002 C8.54852145,1.70795636 6.22327505,0.0896776468 3.78645328,0.519243353 C1.34963152,0.948809059 -0.275990785,3.26355139 0.155524248,5.68936505 L28.7983194,166.708283 C29.1772768,168.838638 31.0372595,170.391145 33.2105755,170.391145 L150.789424,170.391145 C152.962741,170.391145 154.822723,168.838638 155.201681,166.708283 L183.844476,5.68936505 C184.275991,3.26355139 182.650368,0.948809059 180.213547,0.519243353 C177.776725,0.0896776468 175.451479,1.70795636 175.019964,4.13377002 L175.019964,4.13377002 Z" id="Stroke-3"></path>
                <path d="M34.3493802,193.782407 L149.65062,193.782407 C152.125353,193.782407 154.131521,191.785302 154.131521,189.321748 C154.131521,186.858194 152.125353,184.861088 149.65062,184.861088 L34.3493802,184.861088 C31.8746467,184.861088 29.8684789,186.858194 29.8684789,189.321748 C29.8684789,191.785302 31.8746467,193.782407 34.3493802,193.782407 L34.3493802,193.782407 Z" id="Stroke-5"></path>
            </g>
        </g>
    </g>
</svg>