<?xml version="1.0" encoding="utf-8"?>
<!-- Generator: Adobe Illustrator 19.0.0, SVG Export Plug-In . SVG Version: 6.00 Build 0)  -->
<svg version="1.1" id="图层_1" xmlns="http://www.w3.org/2000/svg" xmlns:xlink="http://www.w3.org/1999/xlink" x="0px" y="0px"
	 viewBox="0 0 200 200" style="enable-background:new 0 0 200 200;" xml:space="preserve">
<style type="text/css">
	.st0{fill:#211332;}
</style>
<g id="XMLID_153_">
	<g id="XMLID_9_">
		<path id="XMLID_126_" class="st0" d="M90.7,183.2c-2.6,0-4.7-2.1-4.7-4.7V165c0-2.6,2.1-4.7,4.7-4.7s4.7,2.1,4.7,4.7v13.5
			C95.3,181.2,93.3,183.2,90.7,183.2z"/>
	</g>
	<g id="XMLID_8_">
		<path id="XMLID_125_" class="st0" d="M90.8,146.5c-0.2,0-0.4,0-0.7,0c-2.5-0.4-4.3-2.7-3.9-5.3c1.3-9.3,3.7-20,15-30.4
			c1.5-1.4,3.4-2.8,5.4-4.4c7-5.4,15.7-12.2,16.8-22.1c0.6-6-1.4-12-5.8-16.8c-5.2-5.8-13.1-9.3-21.1-9.3c-9.5,0-18.4,5.1-23.2,13.2
			c-1.3,2.2-4.1,3-6.4,1.7c-2.2-1.3-3-4.2-1.7-6.4c6.5-11,18.4-17.8,31.2-17.8c10.5,0,21,4.6,28,12.4c6.1,6.8,9,15.4,8.1,24
			c-1.5,13.9-12.4,22.3-20.3,28.5c-1.8,1.4-3.5,2.7-4.8,3.9c-8.2,7.5-10.7,14.8-12.1,24.8C95,144.9,93.1,146.5,90.8,146.5z"/>
	</g>
	<g id="XMLID_7_">
		<path id="XMLID_124_" class="st0" d="M100,183.7c-3,0-6.1-0.2-9.1-0.5c-2.6-0.3-4.4-2.6-4.1-5.1c0.3-2.6,2.6-4.4,5.1-4.1
			c2.7,0.3,5.4,0.4,8.1,0.4c41,0,74.4-33.4,74.4-74.4S141,25.6,100,25.6C59,25.6,25.6,59,25.6,100c0,26,13.2,49.6,35.3,63.3
			c2.2,1.4,2.9,4.2,1.5,6.4s-4.2,2.9-6.4,1.5c-24.9-15.4-39.7-42-39.7-71.2c0-46.2,37.6-83.7,83.7-83.7s83.7,37.6,83.7,83.7
			S146.2,183.7,100,183.7z"/>
	</g>
</g>
</svg>
