<?xml version="1.0" encoding="UTF-8" standalone="no"?>
<svg width="200px" height="200px" viewBox="0 0 200 200" version="1.1" xmlns="http://www.w3.org/2000/svg" xmlns:xlink="http://www.w3.org/1999/xlink">
    <!-- Generator: Sketch 3.7 (28169) - http://www.bohemiancoding.com/sketch -->
    <title>常见问题</title>
    <desc>Created with Sketch.</desc>
    <defs></defs>
    <g id="侧边栏" stroke="none" stroke-width="1" fill="none" fill-rule="evenodd">
        <g id="常见问题" fill="#26262E">
            <g id="Group" transform="translate(4.000000, 4.000000)">
                <path d="M85.3333333,191.453333 C82.3893333,191.453333 80,189.069333 80,186.12 L80,170.669333 C80,167.72 82.3893333,165.336 85.3333333,165.336 C88.2773333,165.336 90.6666667,167.72 90.6666667,170.669333 L90.6666667,186.12 C90.6666667,189.069333 88.2773333,191.453333 85.3333333,191.453333" id="Fill-1"></path>
                <path d="M85.4298667,149.344 C85.1738667,149.344 84.9178667,149.328 84.6565333,149.285333 C81.7445333,148.864 79.7232,146.16 80.1445333,143.242667 C81.6805333,132.618667 84.4112,120.288 97.3925333,108.421333 C99.0778667,106.88 101.200533,105.232 103.536533,103.424 C111.557867,97.216 121.541867,89.4826667 122.7632,78.048 C123.493867,71.152 121.141867,64.2933333 116.144533,58.736 C110.133867,52.0533333 101.104533,48.064 91.9898667,48.064 C81.0938667,48.064 70.9072,53.8826667 65.4138667,63.2426667 C63.9205333,65.776 60.6565333,66.6346667 58.1125333,65.1413333 C55.5738667,63.6533333 54.7205333,60.3786667 56.2138667,57.84 C63.6218667,45.232 77.3285333,37.3973333 91.9898667,37.3973333 C104.080533,37.3973333 116.0752,42.7093333 124.0752,51.6 C131.120533,59.44 134.421867,69.232 133.365867,79.1786667 C131.664533,95.136 119.1792,104.8 110.064533,111.856 C107.984533,113.461333 106.085867,114.928 104.5872,116.298667 C95.1738667,124.901333 92.3685333,133.253333 90.6992,144.778667 C90.3152,147.434667 88.0378667,149.344 85.4298667,149.344" id="Fill-3"></path>
                <path d="M96,192 C92.512,192 89.008,191.813333 85.584,191.445333 C82.6613333,191.125333 80.5386667,188.496 80.8586667,185.568 C81.168,182.634667 83.7866667,180.501333 86.7306667,180.837333 C89.776,181.168 92.8906667,181.333333 96,181.333333 C143.050667,181.333333 181.333333,143.050667 181.333333,96 C181.333333,48.9493333 143.050667,10.6666667 96,10.6666667 C48.9493333,10.6666667 10.6666667,48.9493333 10.6666667,96 C10.6666667,125.765333 25.792,152.906667 51.1306667,168.602667 C53.6373333,170.149333 54.4106667,173.445333 52.8586667,175.941333 C51.3013333,178.448 48.016,179.226667 45.5146667,177.664 C17.0133333,160.016 0,129.482667 0,96 C0,43.0666667 43.0666667,0 96,0 C148.933333,0 192,43.0666667 192,96 C192,148.933333 148.933333,192 96,192" id="Fill-5"></path>
            </g>
        </g>
    </g>
</svg>