<?xml version="1.0" encoding="utf-8"?>
<!-- Generator: Adobe Illustrator 19.0.0, SVG Export Plug-In . SVG Version: 6.00 Build 0)  -->
<svg version="1.1" id="图层_1" xmlns="http://www.w3.org/2000/svg" xmlns:xlink="http://www.w3.org/1999/xlink" x="0px" y="0px"
	 viewBox="0 0 200 200" style="enable-background:new 0 0 200 200;" xml:space="preserve">
<style type="text/css">
	.st0{fill:#1E1231;}
</style>
<g>
	<g>
		<path class="st0" d="M99.2,184.3c-1.7,0-3.4-0.6-4.8-1.8c-13.3-11.3-58.1-50.5-76.9-81.7C10.9,91.2,7.6,79.9,8,68.2
			C9,40.6,31.3,17.6,58.8,15.9c15.3-1,30.2,4.4,41.1,14.9c10.2-9.7,23.4-15.1,37.6-15.1c30,0,54.4,24.4,54.4,54.3
			c0,2.1-0.1,4.1-0.4,6.3c-0.1,3.1-0.9,6.6-2.2,10.3c-2,6.2-5.1,11.9-9.1,17c-1.4,1.7-3.9,2-5.6,0.6c-1.7-1.4-2-3.9-0.6-5.6
			c3.5-4.4,6.1-9.3,7.8-14.5l0.1-0.2c1.1-3,1.7-5.7,1.8-8l0-0.4c0.2-2,0.3-3.8,0.3-5.6c0-25.5-20.8-46.3-46.4-46.3
			c-12.8,0-24.7,5.1-33.6,14.3c-1.1,1.1-2.5,1.7-4,1.7c-1.5,0-3-0.6-4-1.7C86.5,28.2,73.1,23,59.4,23.8C35.9,25.3,16.8,44.9,16,68.4
			c-0.3,10,2.5,19.7,8.2,27.9l0.1,0.2C42.7,127.1,89,167.4,99.2,176c9.9-8.4,41.8-35.9,63.6-62.4c1.4-1.7,3.9-1.9,5.6-0.5
			c1.7,1.4,1.9,3.9,0.5,5.6c-22.6,27.4-55.5,55.8-65.1,63.8C102.6,183.7,100.9,184.3,99.2,184.3z"/>
	</g>
	<g>
		<path class="st0" d="M33.6,80.1c0,0-0.1,0-0.1,0c-2.2-0.1-3.9-1.9-3.9-4.1c0.6-16.6,11-31.4,26.5-37.6c2.1-0.8,4.4,0.2,5.2,2.2
			s-0.2,4.4-2.2,5.2c-12.6,5-21,17-21.5,30.4C37.5,78.4,35.7,80.1,33.6,80.1z"/>
	</g>
</g>
</svg>
