<?xml version="1.0" encoding="utf-8"?>
<!-- Generator: Adobe Illustrator 19.0.0, SVG Export Plug-In . SVG Version: 6.00 Build 0)  -->
<svg version="1.1" id="图层_1" xmlns="http://www.w3.org/2000/svg" xmlns:xlink="http://www.w3.org/1999/xlink" x="0px" y="0px"
	 viewBox="0 0 200 200" style="enable-background:new 0 0 200 200;" xml:space="preserve">
<style type="text/css">
	.st0{fill-rule:evenodd;clip-rule:evenodd;fill:#1E1231;}
	.st1{fill:#FFFFFF;}
</style>
<g>
	<g>
		<path class="st0" d="M176.5,97.1c2.2-3.5,4-7.4,5.2-11.4c1.2-3.3,1.9-6.4,1.9-9.2c0.2-2,0.4-3.9,0.4-6c0-27.3-21.5-49.5-48.1-49.5
			c-13.7,0-26,5.9-34.8,15.3c-0.6,0.6-1.6,0.6-2.2,0c-9.4-10.1-23-16.2-37.9-15.2C36.5,22.8,16.9,43.6,16,68.8
			c-0.4,11.1,2.8,21.4,8.5,29.8c18,30.8,62.6,70.7,72.7,79.5c1.2,1,2.9,1,4.1,0c7.6-6.6,34.4-30.3,55.4-54.8"/>
	</g>
	<g>
		<path class="st1" d="M44.2,86.4c-0.1,0-0.1,0-0.2,0c-2.6-0.1-4.6-2.3-4.5-4.8c0.5-16,10.9-29.9,25.9-34.7c2.5-0.8,5.1,0.6,5.9,3
			c0.8,2.5-0.6,5.1-3,5.9c-11.2,3.6-18.9,14-19.3,26.1C48.8,84.4,46.7,86.4,44.2,86.4z"/>
	</g>
</g>
</svg>
