<?xml version="1.0" encoding="UTF-8" standalone="no"?>
<svg width="200px" height="200px" viewBox="0 0 200 200" version="1.1" xmlns="http://www.w3.org/2000/svg" xmlns:xlink="http://www.w3.org/1999/xlink">
    <!-- Generator: Sketch 3.7 (28169) - http://www.bohemiancoding.com/sketch -->
    <title>联系客服</title>
    <desc>Created with Sketch.</desc>
    <defs></defs>
    <g id="内容区域" stroke="none" stroke-width="1" fill="none" fill-rule="evenodd">
        <g id="联系客服" fill="#26262E">
            <g id="联系客服-+-Group" transform="translate(6.000000, 3.000000)">
                <g id="Group">
                    <path d="M162.243637,103.427251 C162.243637,140.431316 133.697993,170.343385 98.6038434,170.343385 C96.0578969,170.343385 93.9939995,172.403092 93.9939995,174.94387 C93.9939995,177.484647 96.0578969,179.544354 98.6038434,179.544354 C138.893214,179.544354 171.463325,145.415174 171.463325,103.427251 C171.463325,100.886473 169.399427,98.8267665 166.853481,98.8267665 C164.307534,98.8267665 162.243637,100.886473 162.243637,103.427251 L162.243637,103.427251 Z" id="Stroke-1"></path>
                    <path d="M32.2893825,76.5538983 C32.2893825,39.5498334 60.8350262,9.63776359 95.929176,9.63776359 C131.023326,9.63776359 159.56897,39.5498334 159.56897,76.5538983 C159.56897,79.0946756 161.632867,81.1543826 164.178814,81.1543826 C166.72476,81.1543826 168.788657,79.0946756 168.788657,76.5538983 C168.788657,34.5659755 136.218547,0.436795069 95.929176,0.436795069 C55.6398052,0.436795069 23.0696946,34.5659755 23.0696946,76.5538983 C23.0696946,79.0946756 25.133592,81.1543826 27.6795385,81.1543826 C30.225485,81.1543826 32.2893825,79.0946756 32.2893825,76.5538983 L32.2893825,76.5538983 Z" id="Stroke-3"></path>
                    <path d="M38.5490165,129.339195 C38.5490165,136.190921 32.7667947,140.851306 25.9389545,138.978064 C10.3606853,134.701415 -0.109954571,122.815666 0.000871346497,102.588684 C0.0972417093,84.911535 10.8425372,71.8038857 25.9389545,66.3255346 C32.1162948,64.0887516 38.5490165,69.1126773 38.5490165,75.964403 L38.5490165,129.339195 Z" id="Fill-5"></path>
                    <path d="M190.673866,129.339195 C190.673866,136.190921 184.891645,140.851306 178.063804,138.978064 C162.485535,134.701415 152.014895,122.815666 152.125721,102.588684 C152.222092,84.911535 162.967387,71.8038857 178.063804,66.3255346 C184.241145,64.0887516 190.673866,69.1126773 190.673866,75.964403 L190.673866,129.339195 Z" id="Fill-5-Copy" transform="translate(171.399358, 102.590799) scale(-1, 1) translate(-171.399358, -102.590799) "></path>
                    <path d="M118.360317,174.94387 C118.360317,183.258618 109.516601,190 98.6038434,190 C87.6910856,190 78.8473694,183.258618 78.8473694,174.94387 C78.8473694,166.629122 87.6910856,159.887739 98.6038434,159.887739 C109.516601,159.887739 118.360317,166.629122 118.360317,174.94387" id="Fill-10"></path>
                </g>
            </g>
        </g>
    </g>
</svg>