<?xml version="1.0" encoding="UTF-8" standalone="no"?>
<svg width="200px" height="200px" viewBox="0 0 200 200" version="1.1" xmlns="http://www.w3.org/2000/svg" xmlns:xlink="http://www.w3.org/1999/xlink">
    <!-- Generator: Sketch 3.7 (28169) - http://www.bohemiancoding.com/sketch -->
    <title>上商城</title>
    <desc>Created with Sketch.</desc>
    <defs></defs>
    <g id="nothing页面" stroke="none" stroke-width="1" fill="none" fill-rule="evenodd">
        <g id="上商城" fill="#26262E">
            <g id="Page-1" transform="translate(3.000000, 26.000000)">
                <g id="Group">
                    <path d="M74.6373703,53.0899417 C74.6373703,61.2064884 68.0210685,67.7864994 59.8597564,67.7864994 C51.6984444,67.7864994 45.0821426,61.2064884 45.0821426,53.0899417 C45.0821426,50.9799307 43.3622068,49.2694288 41.2405584,49.2694288 C39.1189101,49.2694288 37.3989743,50.9799307 37.3989743,53.0899417 C37.3989743,65.4265103 47.4551477,75.427525 59.8597564,75.427525 C72.2643652,75.427525 82.3205386,65.4265103 82.3205386,53.0899417 C82.3205386,50.9799307 80.6006028,49.2694288 78.4789545,49.2694288 C76.3573061,49.2694288 74.6373703,50.9799307 74.6373703,53.0899417 L74.6373703,53.0899417 Z" id="Stroke-1"></path>
                    <path d="M111.921481,53.0899417 C111.921481,61.2064884 105.305179,67.7864994 97.1438673,67.7864994 C88.9825553,67.7864994 82.3662535,61.2064884 82.3662535,53.0899417 C82.3662535,50.9799307 80.6463177,49.2694288 78.5246693,49.2694288 C76.403021,49.2694288 74.6830851,50.9799307 74.6830851,53.0899417 C74.6830851,65.4265103 84.7392586,75.427525 97.1438673,75.427525 C109.548476,75.427525 119.60465,65.4265103 119.60465,53.0899417 C119.60465,50.9799307 117.884714,49.2694288 115.763065,49.2694288 C113.641417,49.2694288 111.921481,50.9799307 111.921481,53.0899417 L111.921481,53.0899417 Z" id="Stroke-3"></path>
                    <path d="M149.205496,53.0899417 C149.205496,61.2064884 142.589194,67.7864994 134.427882,67.7864994 C126.26657,67.7864994 119.650268,61.2064884 119.650268,53.0899417 C119.650268,50.9799307 117.930333,49.2694288 115.808684,49.2694288 C113.687036,49.2694288 111.9671,50.9799307 111.9671,53.0899417 C111.9671,65.4265103 122.023273,75.427525 134.427882,75.427525 C146.832491,75.427525 156.888664,65.4265103 156.888664,53.0899417 C156.888664,50.9799307 155.168729,49.2694288 153.04708,49.2694288 C150.925432,49.2694288 149.205496,50.9799307 149.205496,53.0899417 L149.205496,53.0899417 Z" id="Stroke-5"></path>
                    <path d="M22.3459188,67.6459045 C14.1959216,67.6459045 7.68355248,61.1478434 7.68355248,53.0200263 L7.28022038,54.7241594 L30.079062,9.22853757 C30.564599,8.26008377 31.665209,7.64093013 33.0418495,7.64093013 L161.245117,7.64093013 C162.579673,7.64093013 163.647237,8.25763371 164.151556,9.26355158 L186.405098,54.9260848 L186.020453,53.2597635 C186.020453,60.2790274 180.835069,66.246199 173.798381,67.5416234 C171.977348,67.8768679 170.656038,69.4565025 170.656038,71.2983147 L170.656038,145.179392 L174.497622,141.358879 L147.606533,141.358879 L151.448117,145.179392 L151.448117,99.1488981 C151.448117,93.4357281 147.605724,89.7819558 141.662642,89.7819558 L51.3527604,89.7819558 C45.4118727,89.7819558 40.7202158,94.6546143 40.7202158,100.378148 L40.7432658,145.181346 L44.5848495,141.358879 L17.9530673,141.358879 L21.7946515,145.179392 L21.7946515,85.0063147 C21.7946515,82.8963038 20.0747157,81.1858019 17.9530673,81.1858019 C15.831419,81.1858019 14.1114832,82.8963038 14.1114832,85.0063147 L14.1114832,145.179392 C14.1114832,147.289403 15.831419,148.999904 17.9530673,148.999904 L44.5848495,148.999904 C46.7072655,148.999904 48.4275191,147.288211 48.4264332,145.177437 L48.4033837,100.376193 C48.4033842,98.8023067 49.7314725,97.4229814 51.3527604,97.4229814 L141.662642,97.4229814 C143.437573,97.4229814 143.764949,97.7342861 143.764949,99.1488981 L143.764949,145.179392 C143.764949,147.289403 145.484884,148.999904 147.606533,148.999904 L174.497622,148.999904 C176.61927,148.999904 178.339206,147.289403 178.339206,145.179392 L178.339206,71.2983147 L175.196862,75.0550061 C185.817317,73.0998253 193.703622,64.0245228 193.703622,53.2597635 C193.703622,52.6825576 193.572114,52.1128543 193.318977,51.5934421 L171.046432,5.89246777 C169.184476,2.17806519 165.413904,-9.55128205e-05 161.245117,-9.55128205e-05 L33.0418495,-9.55128205e-05 C28.8609309,-9.55128205e-05 25.0441299,2.14706489 23.2028733,5.81964201 L0.403716257,51.3158932 C0.138452827,51.8452326 0.000384158416,52.4285915 0.000384158416,53.0200263 C0.000384158416,65.3622298 9.94693764,75.2869301 22.3459188,75.2869301 C34.7045226,75.2869301 44.5762059,65.193946 44.5762059,52.8089429 C44.5762059,50.698932 42.8562701,48.9884301 40.7346218,48.9884301 C38.6129734,48.9884301 36.8930376,50.698932 36.8930376,52.8089429 C36.8930376,61.020517 30.4129197,67.6459045 22.3459188,67.6459045 Z" id="Stroke-7"></path>
                    <path d="M123.59692,141.358974 L68.8543455,141.358974 C66.7326972,141.358974 65.0127614,143.069476 65.0127614,145.179487 C65.0127614,147.289498 66.7326972,149 68.8543455,149 L123.59692,149 C125.718568,149 127.438504,147.289498 127.438504,145.179487 C127.438504,143.069476 125.718568,141.358974 123.59692,141.358974 L123.59692,141.358974 Z" id="Stroke-9"></path>
                    <path d="M123.59692,115.570513 L68.8543455,115.570513 C66.7326972,115.570513 65.0127614,117.281015 65.0127614,119.391026 C65.0127614,121.501037 66.7326972,123.211538 68.8543455,123.211538 L123.59692,123.211538 C125.718568,123.211538 127.438504,121.501037 127.438504,119.391026 C127.438504,117.281015 125.718568,115.570513 123.59692,115.570513 L123.59692,115.570513 Z" id="Stroke-11"></path>
                </g>
            </g>
        </g>
    </g>
</svg>