<?xml version="1.0" standalone="no"?><!DOCTYPE svg PUBLIC "-//W3C//DTD SVG 1.1//EN" "http://www.w3.org/Graphics/SVG/1.1/DTD/svg11.dtd"><svg width="200" height="200" viewBox="0 0 200 200" version="1.1" xmlns="http://www.w3.org/2000/svg" xmlns:xlink="http://www.w3.org/1999/xlink"><defs><style type="text/css"><![CDATA[
@font-face { font-family: ifont; src: url("http://at.alicdn.com/t/font_1442373896_4754455.eot?#iefix") format("embedded-opentype"), url("http://at.alicdn.com/t/font_1442373896_4754455.woff") format("woff"), url("http://at.alicdn.com/t/font_1442373896_4754455.ttf") format("truetype"), url("http://at.alicdn.com/t/font_1442373896_4754455.svg#ifont") format("svg"); }

]]></style></defs><g class="transform-group"><g transform="scale(0.1953125, 0.1953125)"><path d="M507.531222 244.23249c-88.173179 0-159.635767 71.462588-159.635767 159.635767s71.462588 159.635767 159.635767 159.635767 159.635767-71.462588 159.635767-159.635767S595.7044 244.23249 507.531222 244.23249zM507.531222 523.595083c-66.13014 0-119.726825-53.596685-119.726825-119.726825s53.596685-119.726825 119.726825-119.726825 119.726825 53.596685 119.726825 119.726825S573.662385 523.595083 507.531222 523.595083zM510.85185 71.290673c-184.835705 0-335.226924 150.391219-335.226924 335.235111 0 178.654936 304.032458 507.074827 316.971142 522.337439l18.255783 21.51399 18.255783-21.51399c12.938684-15.262612 316.979328-343.682503 316.979328-522.337439C846.086961 221.681892 695.695742 71.290673 510.85185 71.290673zM510.773056 875.860055C416.162258 760.481258 223.515656 531.585057 223.515656 406.525784c0-158.435429 128.908952-287.344381 287.336194-287.344381 158.435429 0 287.344381 128.908952 287.344381 287.344381C798.196231 544.476669 576.561411 795.044448 510.773056 875.860055z" fill="#272636"></path></g></g></svg>