<?xml version="1.0" encoding="UTF-8" standalone="no"?>
<svg width="200px" height="200px" viewBox="0 0 200 200" version="1.1" xmlns="http://www.w3.org/2000/svg" xmlns:xlink="http://www.w3.org/1999/xlink">
    <!-- Generator: Sketch 3.7 (28169) - http://www.bohemiancoding.com/sketch -->
    <title>地址</title>
    <desc>Created with Sketch.</desc>
    <defs></defs>
    <g id="nothing页面" stroke="none" stroke-width="1" fill="none" fill-rule="evenodd">
        <g id="地址" fill="#26262E">
            <g id="Group" transform="translate(24.000000, 6.000000)">
                <path d="M96.5702,56.7306 C96.5702,68.041461 87.401061,77.2106 76.0902,77.2106 C64.779339,77.2106 55.6102,68.041461 55.6102,56.7306 C55.6102,45.419739 64.779339,36.2506 76.0902,36.2506 C87.401061,36.2506 96.5702,45.419739 96.5702,56.7306 L96.5702,56.7306 Z M104.5702,56.7306 C104.5702,41.001461 91.819339,28.2506 76.0902,28.2506 C60.361061,28.2506 47.6102,41.001461 47.6102,56.7306 C47.6102,72.459739 60.361061,85.2106 76.0902,85.2106 C91.819339,85.2106 104.5702,72.459739 104.5702,56.7306 L104.5702,56.7306 Z" id="Stroke-1"></path>
                <path d="M40.1783363,93.6775507 C31.9242728,77.4734007 27.3601,64.6623314 27.3601,56.7311 C27.3601,29.8173819 49.1770961,8.0001 76.0901,8.0001 C103.003104,8.0001 124.8201,29.8173819 124.8201,56.7311 C124.8201,66.8301569 117.524767,84.5029453 104.940438,106.791608 C96.0998292,122.449602 85.8084867,138.442647 76.0885855,152.492338 C76.0879255,152.493292 76.0922745,152.493292 76.0917439,152.492525 C67.7096496,140.378057 58.6878757,126.484435 50.5209946,112.503524 C49.4067183,110.595991 46.9570576,109.952929 45.0495243,111.067205 C43.1419909,112.181482 42.4989291,114.631142 43.6132054,116.538676 C51.8974301,130.720468 61.0240932,144.775619 69.5127157,157.044051 C72.6939255,161.642908 79.4862745,161.642908 82.6677439,157.043675 C92.5141828,142.81108 102.927169,126.628998 111.906762,110.724842 C125.178402,87.2188519 132.8201,68.7070024 132.8201,56.7311 C132.8201,25.3991274 107.421405,0.0001 76.0901,0.0001 C44.7587946,0.0001 19.3601,25.3991274 19.3601,56.7311 C19.3601,66.3082096 24.2493418,80.0317074 33.0498637,97.3086493 C34.0525638,99.2771227 36.4611759,100.060037 38.4296493,99.0573363 C40.3981227,98.0546362 41.1810365,95.6460241 40.1783363,93.6775507 L40.1783363,93.6775507 Z" id="Stroke-3"></path>
                <path d="M115.72684,137.787314 C133.878774,142.34229 144.5704,149.65243 144.5704,156.1706 C144.5704,161.217169 138.07162,166.923992 126.005943,171.405384 C113.014073,176.23078 95.2679319,179.0186 76.2854,179.0186 C57.3028681,179.0186 39.5567268,176.23078 26.5648565,171.405384 C14.4991802,166.923992 8.0004,161.217169 8.0004,156.1706 C8.0004,150.108869 17.2957385,143.27967 33.5266375,138.672589 C35.651823,138.069363 36.8856148,135.857548 36.2823887,133.732363 C35.6791626,131.607177 33.467348,130.373385 31.3421625,130.976611 C11.9940648,136.468498 0.0004,145.280133 0.0004,156.1706 C0.0004,174.287899 34.2764725,187.0186 76.2854,187.0186 C118.294327,187.0186 152.5704,174.287899 152.5704,156.1706 C152.5704,144.627431 139.070152,135.396964 117.67396,130.027886 C115.531254,129.490204 113.358369,130.791333 112.820686,132.93404 C112.283004,135.076746 113.584133,137.249631 115.72684,137.787314 L115.72684,137.787314 Z" id="Stroke-5"></path>
            </g>
        </g>
    </g>
</svg>