<?xml version="1.0" encoding="utf-8"?>
<!-- Generator: Adobe Illustrator 19.0.0, SVG Export Plug-In . SVG Version: 6.00 Build 0)  -->
<svg version="1.1" id="图层_1" xmlns="http://www.w3.org/2000/svg" xmlns:xlink="http://www.w3.org/1999/xlink" x="0px" y="0px"
	 viewBox="-52.9 0 200 200" style="enable-background:new -52.9 0 200 200;" xml:space="preserve">
<style type="text/css">
	.st0{fill-rule:evenodd;clip-rule:evenodd;fill:#1E1231;}
	.st1{fill-rule:evenodd;clip-rule:evenodd;fill:none;}
	.st2{fill:#1E1231;stroke:#1E1231;stroke-width:2.005;stroke-miterlimit:10;}
</style>
<g>
	<path class="st0" d="M47.1,177c-9.8,0-37-48.7-37.3-49.1c0,0-1.9-3.4,1.2-4.7c2.6-1.1,4.1,1.9,4.1,1.9c12.7,24.2,28.3,44,32,45.9
		c8.5-4.1,47.4-69.2,47.4-94.7c0-26.1-21.3-47.4-47.4-47.4S-0.3,50.2-0.3,76.3c0,7,3,17.7,8.5,30.9c0,0,1.2,3.2-1,4.3
		c-2.6,1.3-4.5-2-4.5-2c-6-14.2-9-25.3-9-33.2C-6.2,46.9,17.7,23,47.1,23c29.4,0,53.3,23.9,53.3,53.3C100.4,103.3,58.6,177,47.1,177
		"/>
	<path class="st1" d="M73.2,76.3c0,14.4-11.7,26.1-26.1,26.1C32.7,102.4,21,90.7,21,76.3c0-14.4,11.7-26.1,26.1-26.1
		C61.5,50.2,73.2,61.9,73.2,76.3z"/>
	<path class="st2" d="M73.2,76.3c0,14.4-11.7,26.1-26.1,26.1C32.7,102.4,21,90.7,21,76.3c0-14.4,11.7-26.1,26.1-26.1
		C61.5,50.2,73.2,61.9,73.2,76.3z"/>
</g>
</svg>
