<?xml version="1.0" encoding="UTF-8" standalone="no"?>
<svg width="200px" height="200px" viewBox="0 0 200 200" version="1.1" xmlns="http://www.w3.org/2000/svg" xmlns:xlink="http://www.w3.org/1999/xlink">
    <!-- Generator: Sketch 3.7 (28169) - http://www.bohemiancoding.com/sketch -->
    <title>投诉建议</title>
    <desc>Created with Sketch.</desc>
    <defs></defs>
    <g id="侧边栏" stroke="none" stroke-width="1" fill="none" fill-rule="evenodd">
        <g id="投诉建议" fill="#26262E">
            <g id="Group" transform="translate(4.000000, 7.000000)">
                <path d="M168.213433,185.975603 L28.603138,185.975603 C12.831355,185.975603 0.00109147287,173.185889 0.00109147287,157.470636 L0.00109147287,69.2912114 C0.00109147287,66.2841059 2.44053333,63.8534077 5.45845581,63.8534077 L27.4079752,63.8534077 L27.4079752,22.8686813 C27.4079752,10.3291059 37.6459907,0.127786211 50.2361302,0.127786211 L141.084874,0.127786211 C153.669557,0.127786211 163.907572,10.3291059 163.907572,22.8686813 L163.907572,96.4584786 C163.907572,98.3508343 162.941619,100.009364 161.473588,100.988169 L111.096657,144.186082 C102.528595,151.434674 90.1130915,151.450987 81.5668589,144.245897 L40.2164093,108.350955 C37.9461457,106.377033 37.7060217,102.940341 39.687045,100.672776 C41.6735256,98.4106502 45.1225798,98.1822624 47.387386,100.150747 L88.6778047,135.996749 C93.0655256,139.694456 99.5488744,139.694456 104.002084,135.92062 L152.992843,93.9081487 L152.992843,22.8686813 C152.992843,16.3270034 147.650084,11.0033936 141.084874,11.0033936 L50.2361302,11.0033936 C43.6709209,11.0033936 38.3227039,16.3270034 38.3227039,22.8686813 L38.3227039,69.3075248 C38.3227039,72.4560131 35.4739597,74.9574028 32.4451225,74.7290151 L10.9158202,74.7290151 L10.9158202,157.470636 C10.9158202,167.193429 18.8508279,175.099996 28.603138,175.099996 L168.213433,175.099996 C174.778642,175.099996 180.126859,169.776386 180.126859,163.234708 L180.126859,69.2912114 C180.126859,66.2841059 182.566301,63.8534077 185.584223,63.8534077 C188.596688,63.8534077 191.041588,66.2841059 191.041588,69.2912114 L191.041588,163.234708 C191.041588,175.774283 180.803572,185.975603 168.213433,185.975603" id="Fill-1"></path>
                <path d="M130.965829,47.5720797 L59.9546047,47.5720797 C56.9421395,47.5720797 54.4972403,45.1413814 54.4972403,42.134276 C54.4972403,39.1271705 56.9421395,36.6964723 59.9546047,36.6964723 L130.965829,36.6964723 C133.983752,36.6964723 136.423194,39.1271705 136.423194,42.134276 C136.423194,45.1413814 133.983752,47.5720797 130.965829,47.5720797 M130.982202,85.6367055 L59.9546047,85.6367055 C56.9421395,85.6367055 54.4972403,83.2060073 54.4972403,80.1989018 C54.4972403,77.1917964 56.9421395,74.7610981 59.9546047,74.7610981 L130.982202,74.7610981 C134.000124,74.7610981 136.439566,77.1917964 136.439566,80.1989018 C136.439566,83.2060073 134.000124,85.6367055 130.982202,85.6367055" id="Fill-4"></path>
            </g>
        </g>
    </g>
</svg>