<?xml version="1.0" encoding="utf-8"?>
<!-- Generator: Adobe Illustrator 19.0.0, SVG Export Plug-In . SVG Version: 6.00 Build 0)  -->
<svg version="1.1" id="图层_1" xmlns="http://www.w3.org/2000/svg" xmlns:xlink="http://www.w3.org/1999/xlink" x="0px" y="0px"
	 viewBox="0 0 200 200" style="enable-background:new 0 0 200 200;" xml:space="preserve">
<style type="text/css">
	.st0{fill:#211332;}
</style>
<g id="XMLID_12_">
	<g id="XMLID_18_">
		<path id="XMLID_297_" class="st0" d="M162,179.5H43c-13.4,0-24.4-10.9-24.4-24.4V79.7c0-2.6,2.1-4.7,4.7-4.7H42V40
			c0-10.7,8.7-19.5,19.5-19.5h77.4c10.7,0,19.5,8.7,19.5,19.5v62.9c0,1.6-0.8,3-2.1,3.9l-42.9,36.9c-7.3,6.2-17.9,6.2-25.2,0L53,113
			c-1.9-1.7-2.1-4.6-0.5-6.6c1.7-1.9,4.6-2.1,6.6-0.5l35.2,30.7c3.8,3.2,9.3,3.2,13.1-0.1l41.8-35.9V40c0-5.6-4.6-10.1-10.1-10.1
			H61.4c-5.6,0-10.1,4.6-10.1,10.1v39.7c0,2.6-2.1,4.7-4.7,4.7c-0.1,0-0.3,0-0.4,0H27.9v70.8c0,8.3,6.8,15.1,15.1,15.1h119
			c5.6,0,10.1-4.6,10.1-10.1V79.7c0-2.6,2.1-4.7,4.7-4.7s4.7,2.1,4.7,4.7V160C181.4,170.8,172.7,179.5,162,179.5z"/>
	</g>
	<g id="XMLID_15_">
		<path id="XMLID_298_" class="st0" d="M130.2,93.7H69.7c-2.6,0-4.7-2.1-4.7-4.7s2.1-4.7,4.7-4.7h60.5c2.6,0,4.7,2.1,4.7,4.7
			S132.8,93.7,130.2,93.7z M130.2,61.1H69.7c-2.6,0-4.7-2.1-4.7-4.7s2.1-4.7,4.7-4.7h60.5c2.6,0,4.7,2.1,4.7,4.7
			S132.8,61.1,130.2,61.1z"/>
	</g>
</g>
</svg>
