<?xml version="1.0" encoding="utf-8"?>
<!-- Generator: Adobe Illustrator 19.0.0, SVG Export Plug-In . SVG Version: 6.00 Build 0)  -->
<svg version="1.1" id="图层_1" xmlns="http://www.w3.org/2000/svg" xmlns:xlink="http://www.w3.org/1999/xlink" x="0px" y="0px"
	 viewBox="0 0 200 200" style="enable-background:new 0 0 200 200;" xml:space="preserve">
<style type="text/css">
	.st0{fill:#26262E;}
</style>
<g>
	<path class="st0" d="M151.5,104.2H48.7c-2.4,0-4.3-1.9-4.3-4.3s1.9-4.3,4.3-4.3h102.9c2.4,0,4.3,1.9,4.3,4.3
		S153.9,104.2,151.5,104.2z"/>
</g>
<g>
	<path class="st0" d="M100.1,189.9c-49.6,0-90-40.4-90-90s40.4-90,90-90s90,40.4,90,90S149.7,189.9,100.1,189.9z M100.1,18.5
		c-44.9,0-81.4,36.5-81.4,81.4s36.5,81.4,81.4,81.4s81.4-36.5,81.4-81.4S145,18.5,100.1,18.5z"/>
</g>
</svg>
