<?xml version="1.0" encoding="utf-8"?>
<!-- Generator: Adobe Illustrator 19.0.0, SVG Export Plug-In . SVG Version: 6.00 Build 0)  -->
<svg version="1.1" id="图层_1" xmlns="http://www.w3.org/2000/svg" xmlns:xlink="http://www.w3.org/1999/xlink" x="0px" y="0px"
	 viewBox="0 0 200 200" style="enable-background:new 0 0 200 200;" xml:space="preserve">
<style type="text/css">
	.st0{fill:#211332;}
</style>
<g id="XMLID_49_">
	<g id="XMLID_55_">
		<path id="XMLID_51_" class="st0" d="M164.9,172.1H35.1c-10.3,0-18.6-8.4-18.6-18.7V46.6c0-10.3,8.4-18.7,18.6-18.7h129.8
			c10.3,0,18.6,8.4,18.6,18.7V55c0,2.6-2.1,4.7-4.7,4.7s-4.7-2.1-4.7-4.7v-8.4c0-5.2-4.2-9.4-9.3-9.4H35.1c-5.1,0-9.3,4.2-9.3,9.4
			v106.8c0,5.2,4.2,9.4,9.3,9.4h129.8c5.1,0,9.3-4.2,9.3-9.4v-65H58c-2.6,0-4.7-2.1-4.7-4.7S55.4,79,58,79h120.9
			c2.6,0,4.7,2.1,4.7,4.7v69.6C183.5,163.7,175.2,172.1,164.9,172.1z"/>
	</g>
	<g id="XMLID_54_">
		<path id="XMLID_50_" class="st0" d="M141.7,130.2H58c-2.6,0-4.7-2.1-4.7-4.7s2.1-4.7,4.7-4.7h83.7c2.6,0,4.7,2.1,4.7,4.7
			C146.4,128.1,144.2,130.2,141.7,130.2z"/>
	</g>
</g>
</svg>
