<?xml version="1.0" encoding="UTF-8" standalone="no"?>
<svg width="200px" height="200px" viewBox="0 0 200 200" version="1.1" xmlns="http://www.w3.org/2000/svg" xmlns:xlink="http://www.w3.org/1999/xlink">
    <!-- Generator: Sketch 3.7 (28169) - http://www.bohemiancoding.com/sketch -->
    <title>没有订单</title>
    <desc>Created with Sketch.</desc>
    <defs></defs>
    <g id="nothing页面" stroke="none" stroke-width="1" fill="none" fill-rule="evenodd">
        <g id="没有订单" fill="#26262E">
            <g id="Group" transform="translate(5.000000, 11.000000)">
                <path d="M81.912514,170.700986 C82.0730031,170.765556 71.4073979,166.855639 64.7034963,164.32668 C52.5395844,159.738005 40.6650481,155.054214 29.5470669,150.375533 C27.8955129,149.680525 26.2716757,148.990094 24.6770071,148.304638 C15.8507098,144.510465 10.5271448,135.1815 9.37220893,122.093503 C8.89480478,116.687917 9.76775799,109.573404 11.2671444,102.650053 C10.9872926,103.94137 9.617941,104.675603 8.39188929,104.201096 L97.2272519,138.520723 C96.406534,138.204088 95.8568587,137.407989 95.8547052,136.520617 C95.8631402,140.63168 96.2196717,145.226061 97.12861,149.767661 C98.5030323,156.635096 100.920008,162.214788 104.834995,165.94728 C109.385454,170.2865 115.354886,172.036596 122.673062,171.361697 C128.130432,170.858207 132.5334,168.393008 137.002546,163.51682 C143.456842,156.485972 149.050427,144.897094 157.226074,123.281085 C158.770116,119.199852 160.415696,114.871395 162.27986,109.984863 C162.549236,109.278747 162.823715,108.559567 163.104587,107.823928 C164.421366,104.375115 165.411045,101.787259 167.856901,95.3950098 C173.695325,80.1328941 181.26653,58.942161 189.113944,36.3406942 C192.100317,27.7407991 186.790335,18.493606 177.851851,16.7153251 L96.2819515,0.489542152 C89.32268,-0.895421214 82.3418241,2.77455008 79.5431053,9.28890326 L43.7979714,92.5092275 C42.8633115,94.6852635 43.871535,97.2061701 46.0499017,98.13983 C48.2282683,99.0734899 50.7518749,98.066345 51.6865348,95.890309 L87.4315268,12.670315 C88.6308975,9.87863618 91.6228666,8.30570003 94.6051434,8.89920238 L176.175299,25.1250363 C180.008542,25.8876469 182.282726,29.8480783 181.003926,33.5306545 C173.184041,56.0528312 165.636208,77.1781535 159.838497,92.3338411 C157.392004,98.7277529 156.401867,101.316806 155.084101,104.768204 C154.802954,105.504565 154.528195,106.22448 154.258532,106.931349 C152.391744,111.824758 150.743442,116.160375 149.196194,120.250082 C141.421199,140.806785 136.118914,151.792143 130.673568,157.723915 C127.555098,161.126408 125.045594,162.531466 121.883776,162.823171 C116.901731,163.282627 113.393803,162.254185 110.761925,159.744484 C106.356333,155.544255 104.458332,146.060707 104.438718,136.501436 C104.432274,133.846131 102.796665,131.477263 100.321735,130.522429 L11.4906162,96.2044423 C7.80630846,94.7785405 3.71470882,96.9724171 2.87732705,100.836338 C1.20826993,108.543136 0.24874906,116.36317 0.821359115,122.846761 C2.22914208,138.800078 9.17798643,150.977167 21.283963,156.181181 C22.8991432,156.875454 24.5430891,157.574434 26.2144996,158.277799 C37.443495,163.003197 49.4138556,167.724784 61.6708558,172.348576 C68.488043,174.920271 79.01262,178.778488 78.7054988,178.654922 C80.9042702,179.539567 83.4046414,178.476165 84.2902342,176.279746 C85.175827,174.083327 84.1112854,171.585631 81.912514,170.700986 L81.912514,170.700986 Z" id="Stroke-6"></path>
                <path d="M113.790831,42.2319851 L160.198267,54.0470569 C162.495253,54.6318567 164.83191,53.2458475 165.417336,50.9513186 C166.002762,48.6567898 164.615269,46.3226327 162.318282,45.7378329 L115.910847,33.9227611 C113.61386,33.3379612 111.277203,34.7239705 110.691777,37.0184993 C110.106351,39.3130282 111.493845,41.6471853 113.790831,42.2319851 L113.790831,42.2319851 Z" id="Stroke-8"></path>
                <path d="M100.528151,74.1364906 L147.124436,88.400754 C149.390818,89.094549 151.791118,87.8216811 152.485656,85.557724 C153.180194,83.2937668 151.905963,80.896035 149.639581,80.20224 L103.043296,65.9379765 C100.776914,65.2441815 98.3766144,66.5170494 97.6820763,68.7810066 C96.9875383,71.0449637 98.2617695,73.4426956 100.528151,74.1364906 L100.528151,74.1364906 Z" id="Stroke-10"></path>
                <path d="M86.7350633,106.386041 L133.181127,122.211999 C135.424617,122.976442 137.863691,121.779384 138.628953,119.538295 C139.394215,117.297206 138.195875,114.860741 135.952385,114.096298 L89.5063213,98.2703397 C87.2628319,97.5058966 84.8237571,98.7029548 84.0584954,100.944044 C83.2932336,103.185133 84.4915739,105.621598 86.7350633,106.386041 L86.7350633,106.386041 Z" id="Stroke-12"></path>
                <path d="M102.251944,31.5912491 C102.251944,35.5656922 98.8408636,38.7876922 94.6336137,38.7876922 C90.4263639,38.7876922 87.0152833,35.5656922 87.0152833,31.5912491 C87.0152833,27.616806 90.4263639,24.394806 94.6336137,24.394806 C98.8408636,24.394806 102.251944,27.616806 102.251944,31.5912491" id="Fill-14"></path>
                <path d="M90.7062034,64.3330287 C90.7062034,68.3074719 87.2951228,71.5294719 83.0878729,71.5294719 C78.8806231,71.5294719 75.4695424,68.3074719 75.4695424,64.3330287 C75.4695424,60.3585856 78.8806231,57.1365856 83.0878729,57.1365856 C87.2951228,57.1365856 90.7062034,60.3585856 90.7062034,64.3330287" id="Fill-16"></path>
                <path d="M77.825538,95.0700084 C77.825538,99.0444515 74.4144573,102.266451 70.2072075,102.266451 C65.9999576,102.266451 62.588877,99.0444515 62.588877,95.0700084 C62.588877,91.0955653 65.9999576,87.8735653 70.2072075,87.8735653 C74.4144573,87.8735653 77.825538,91.0955653 77.825538,95.0700084" id="Fill-18"></path>
            </g>
        </g>
    </g>
</svg>