<?xml version="1.0" encoding="UTF-8" standalone="no"?>
<svg width="200px" height="200px" viewBox="0 0 200 200" version="1.1" xmlns="http://www.w3.org/2000/svg" xmlns:xlink="http://www.w3.org/1999/xlink">
    <!-- Generator: Sketch 3.7 (28169) - http://www.bohemiancoding.com/sketch -->
    <title>全部订单</title>
    <desc>Created with Sketch.</desc>
    <defs></defs>
    <g id="侧边栏" stroke="none" stroke-width="1" fill="none" fill-rule="evenodd">
        <g id="全部订单" fill="#26262E">
            <g id="Page-1" transform="translate(19.000000, 3.000000)">
                <path d="M20.1660348,193.649006 C9.04081574,193.649006 0.00252043929,184.574601 0.00252043929,173.41622 L0.158787675,42.0447408 C0.158787675,30.8914176 9.20212386,21.8170131 20.322302,21.8170131 L59.0715357,21.8170131 C61.8591415,21.8170131 64.1124143,24.0830851 64.1124143,26.8752096 C64.1124143,36.1114763 71.6082007,43.6330145 80.812845,43.6330145 C90.0174893,43.6330145 97.5082349,36.1114763 97.5082349,26.8752096 C97.5082349,17.6338846 90.0174893,10.1174046 80.812845,10.1174046 C77.0573905,10.1174046 73.5035711,11.3414882 70.5395345,13.6682585 C68.3366705,15.3880453 65.1709988,14.993506 63.4621409,12.7982487 C61.7482422,10.5979333 62.1414308,7.41632769 64.3342129,5.69654088 C69.0877614,1.96865007 74.7839542,0.0010116393 80.812845,0.0010116393 C95.5775784,0.0010116393 107.589992,12.0546939 107.589992,26.8752096 C107.589992,41.6906671 95.5775784,53.7494075 80.812845,53.7494075 C67.7670513,53.7494075 56.8737126,44.341162 54.5095406,31.9334061 L20.322302,31.9334061 C14.7622129,31.9334061 10.2405448,36.4706083 10.2405448,42.049799 L10.0842776,173.421278 C10.0842776,178.995411 14.6059457,183.532613 20.1660348,183.532613 L141.459655,183.532613 C147.019744,183.532613 151.541412,178.995411 151.541412,173.41622 L151.702721,42.0396826 C151.702721,36.4706083 147.181052,31.9334061 141.620963,31.9334061 C138.833358,31.9334061 136.580085,29.667334 136.580085,26.8752096 C136.580085,24.0830851 138.833358,21.8170131 141.620963,21.8170131 C152.741142,21.8170131 161.784478,30.8914176 161.784478,42.049799 L161.62317,173.421278 C161.62317,184.574601 152.579833,193.649006 141.459655,193.649006 L20.1660348,193.649006 Z" id="Fill-1"></path>
                <path d="M121.094506,92.3267546 L40.4404484,92.3267546 C37.6528426,92.3267546 35.3995699,90.0606826 35.3995699,87.2685581 C35.3995699,84.4764337 37.6528426,82.2103617 40.4404484,82.2103617 L121.094506,82.2103617 C123.882112,82.2103617 126.135384,84.4764337 126.135384,87.2685581 C126.135384,90.0606826 123.882112,92.3267546 121.094506,92.3267546 M121.094506,137.850523 L40.4404484,137.850523 C37.6528426,137.850523 35.3995699,135.584451 35.3995699,132.792327 C35.3995699,130.000202 37.6528426,127.73413 40.4404484,127.73413 L121.094506,127.73413 C123.882112,127.73413 126.135384,130.000202 126.135384,132.792327 C126.135384,135.584451 123.882112,137.850523 121.094506,137.850523" id="Fill-3"></path>
            </g>
        </g>
    </g>
</svg>