<?xml version="1.0" encoding="UTF-8" standalone="no"?>
<svg width="200px" height="200px" viewBox="0 0 200 200" version="1.1" xmlns="http://www.w3.org/2000/svg" xmlns:xlink="http://www.w3.org/1999/xlink">
    <!-- Generator: Sketch 3.7 (28169) - http://www.bohemiancoding.com/sketch -->
    <title>Group</title>
    <desc>Created with Sketch.</desc>
    <defs></defs>
    <g id="个人中心" stroke="none" stroke-width="1" fill="none" fill-rule="evenodd">
        <g id="Artboard-10" fill="#26262E">
            <g id="Group" transform="translate(3.000000, 16.000000)">
                <path d="M182.894274,70.1424345 C182.894127,95.2731709 182.894127,145.498981 182.894127,145.498981 C182.894127,151.5463 178.036869,156.436063 172.069332,156.436063 L21.6356196,156.436067 C15.6648234,156.436067 10.8108245,151.548459 10.8108245,145.498986 L10.8108227,21.722388 C10.8108227,15.6729142 15.6648215,10.7853066 21.6356179,10.7853066 L172.06933,10.7853022 C178.036868,10.7853022 182.894125,15.6750652 182.894125,21.7223837 L182.894125,31.4384021 C182.894125,34.4165209 185.308367,36.8307632 188.286486,36.8307632 C191.264605,36.8307632 193.678847,34.4165209 193.678847,31.4384021 L193.678847,21.7223837 C193.678847,9.73487048 184.009267,0.000580026006 172.06933,0.000580026006 L21.6356178,0.000584419542 C9.69186224,0.000584419542 0.0261004465,9.73327114 0.0261004465,21.7223881 L0.026102316,145.498986 C0.026102316,157.488103 9.69186411,167.220789 21.6356198,167.220789 L172.069332,167.220785 C184.009269,167.220785 193.678849,157.486494 193.678849,145.498981 L193.678849,64.7659237 C193.678849,61.787805 191.264607,59.3735627 188.286488,59.3735626 L48.1423455,59.3735602 C45.1642267,59.3735602 42.7499844,61.7878024 42.7499843,64.7659212 C42.7499843,67.74404 45.1642266,70.1582824 48.1423454,70.1582824 L182.894274,70.1424345 Z" id="Stroke-2"></path>
                <path d="M48.1116322,118.631944 L145.174132,118.631944 C148.152251,118.631944 150.566493,116.217702 150.566493,113.239583 C150.566493,110.261465 148.152251,107.847222 145.174132,107.847222 L48.1116322,107.847222 C45.1335134,107.847222 42.7192711,110.261465 42.7192711,113.239583 C42.7192711,116.217702 45.1335134,118.631944 48.1116322,118.631944 L48.1116322,118.631944 Z" id="Stroke-1"></path>
            </g>
        </g>
    </g>
</svg>