<?xml version="1.0" encoding="utf-8"?>
<!-- Generator: Adobe Illustrator 19.0.0, SVG Export Plug-In . SVG Version: 6.00 Build 0)  -->
<svg version="1.1" id="图层_1" xmlns="http://www.w3.org/2000/svg" xmlns:xlink="http://www.w3.org/1999/xlink" x="0px" y="0px"
	 viewBox="0 0 200 200" style="enable-background:new 0 0 200 200;" xml:space="preserve">
<style type="text/css">
	.st0{fill:#211332;}
</style>
<g id="XMLID_2_">
	<g id="XMLID_30_">
		<path id="XMLID_13_" class="st0" d="M155.9,189H44c-10.3,0-18.6-8.3-18.6-18.6l0.1-120.8c0-10.3,8.3-18.6,18.6-18.6h35.8
			c2.6,0,4.7,2.1,4.7,4.7c0,8.5,6.9,15.4,15.4,15.4s15.4-6.9,15.4-15.4s-6.9-15.4-15.4-15.4c-3.5,0-6.7,1.1-9.5,3.3
			c-2,1.6-4.9,1.2-6.5-0.8s-1.2-4.9,0.8-6.5c4.4-3.4,9.6-5.2,15.2-5.2c13.6,0,24.7,11.1,24.7,24.7S113.6,60.5,100,60.5
			c-12,0-22.1-8.7-24.3-20.1H44.1c-5.1,0-9.3,4.2-9.3,9.3l-0.1,120.8c0,5.1,4.2,9.3,9.3,9.3h111.9c5.1,0,9.3-4.2,9.3-9.3l0.1-120.8
			c0-5.1-4.2-9.3-9.3-9.3c-2.6,0-4.7-2.1-4.7-4.7s2.1-4.7,4.7-4.7c10.3,0,18.6,8.3,18.6,18.6l-0.1,120.8
			C174.5,180.7,166.1,189,155.9,189z"/>
	</g>
	<g id="XMLID_29_">
		<path id="XMLID_11_" class="st0" d="M137.1,137.7H62.7c-2.6,0-4.7-2.1-4.7-4.7s2.1-4.7,4.7-4.7h74.4c2.6,0,4.7,2.1,4.7,4.7
			S139.7,137.7,137.1,137.7z"/>
	</g>
	<g id="XMLID_28_">
		<path id="XMLID_10_" class="st0" d="M137.1,95.9H62.7c-2.6,0-4.7-2.1-4.7-4.7s2.1-4.7,4.7-4.7h74.4c2.6,0,4.7,2.1,4.7,4.7
			S139.7,95.9,137.1,95.9z"/>
	</g>
</g>
</svg>
