<?xml version="1.0" encoding="utf-8"?>
<!-- Generator: Adobe Illustrator 19.0.0, SVG Export Plug-In . SVG Version: 6.00 Build 0)  -->
<svg version="1.1" id="图层_1" xmlns="http://www.w3.org/2000/svg" xmlns:xlink="http://www.w3.org/1999/xlink" x="0px" y="0px"
	 viewBox="0 0 200 200" style="enable-background:new 0 0 200 200;" xml:space="preserve">
<style type="text/css">
	.st0{fill-rule:evenodd;clip-rule:evenodd;fill:#26262E;}
	.st1{fill:#26262E;}
</style>
<g id="XMLID_1_">
	<path id="XMLID_21_" class="st0" d="M148.6,78.6c-19.3,0-35,15.7-35,35c0,19.3,15.7,35,35,35s35-15.7,35-35
		C183.6,94.3,167.9,78.6,148.6,78.6z M169.3,108.8L149.1,129c-1.1,1.1-2.7,1.8-4.2,1.8c-1.6,0-3.1-0.6-4.2-1.8l-12.7-12.7
		c-2.3-2.3-2.3-6.1,0-8.5c2.3-2.3,6.1-2.3,8.5,0l8.4,8.4l16-16c2.3-2.3,6.1-2.3,8.5,0C171.6,102.6,171.6,106.4,169.3,108.8z"/>
	<g id="XMLID_30_">
		<path id="XMLID_14_" class="st1" d="M148.4,184.2h-126c-3.3,0-6-2.7-6-6v-130c0-3.3,2.7-6,6-6h11.1c3.3,0,6,2.7,6,6s-2.7,6-6,6
			h-5.1v118h114v-13.6c0-3.3,2.7-6,6-6s6,2.7,6,6v19.6C154.4,181.6,151.7,184.2,148.4,184.2z"/>
	</g>
	<g id="XMLID_29_">
		<path id="XMLID_13_" class="st1" d="M148.4,74.7c-3.3,0-6-2.7-6-6V54.2h-4.9c-3.3,0-6-2.7-6-6s2.7-6,6-6h10.9c3.3,0,6,2.7,6,6
			v20.4C154.4,72,151.7,74.7,148.4,74.7z"/>
	</g>
	<path id="XMLID_12_" class="st0" d="M116.4,33h-13.1c-0.2-10-8.2-17.6-18-17.6c-9.8,0-17.8,7.6-18,17.6H54.4
		C48.9,33,44,37.5,44,43.4v11.3c0,1.1,1.3,2.3,2.4,2.3h78c1.1,0,1.6-1.2,1.6-2.3V43.4C126,37.5,121.9,33,116.4,33z M85.4,26.1
		c3.7,0,6.8,2.9,7,6.6h0c0,0.1,0,0.3,0,0.4c0,3.9-3.1,7-7,7c-3.9,0-7-3.1-7-7S81.5,26.1,85.4,26.1z"/>
	<g id="XMLID_7_">
		<path id="XMLID_9_" class="st1" d="M102.5,82.7h-54c-2.2,0-4-1.8-4-4s1.8-4,4-4h54c2.2,0,4,1.8,4,4S104.7,82.7,102.5,82.7z"/>
	</g>
	<g id="XMLID_6_">
		<path id="XMLID_8_" class="st1" d="M102.5,151.7h-54c-2.2,0-4-1.8-4-4s1.8-4,4-4h54c2.2,0,4,1.8,4,4S104.7,151.7,102.5,151.7z"/>
	</g>
	<g id="XMLID_5_">
		<path id="XMLID_3_" class="st1" d="M92.5,105.7h-44c-2.2,0-4-1.8-4-4s1.8-4,4-4h44c2.2,0,4,1.8,4,4S94.7,105.7,92.5,105.7z"/>
	</g>
	<g id="XMLID_4_">
		<path id="XMLID_2_" class="st1" d="M92.5,128.7h-44c-2.2,0-4-1.8-4-4s1.8-4,4-4h44c2.2,0,4,1.8,4,4S94.7,128.7,92.5,128.7z"/>
	</g>
</g>
</svg>
