<?xml version="1.0" encoding="utf-8"?>
<!-- Generator: Adobe Illustrator 19.0.0, SVG Export Plug-In . SVG Version: 6.00 Build 0)  -->
<svg version="1.1" id="图层_1" xmlns="http://www.w3.org/2000/svg" xmlns:xlink="http://www.w3.org/1999/xlink" x="0px" y="0px"
	 viewBox="0 0 200 200" style="enable-background:new 0 0 200 200;" xml:space="preserve">
<style type="text/css">
	.st0{fill:#26262E;}
</style>
<g>
	<path class="st0" d="M150.8,104.2H48c-2.4,0-4.3-1.9-4.3-4.3s1.9-4.3,4.3-4.3h102.9c2.4,0,4.3,1.9,4.3,4.3S153.2,104.2,150.8,104.2
		z"/>
</g>
<g>
	<path class="st0" d="M99.4,155.6c-2.4,0-4.3-1.9-4.3-4.3V48.5c0-2.4,1.9-4.3,4.3-4.3c2.4,0,4.3,1.9,4.3,4.3v102.9
		C103.7,153.7,101.8,155.6,99.4,155.6z"/>
</g>
<g>
	<path class="st0" d="M99.4,189.9c-49.6,0-90-40.4-90-90s40.4-90,90-90s90,40.4,90,90S149,189.9,99.4,189.9z M99.4,18.5
		C54.5,18.5,18,55,18,99.9s36.5,81.4,81.4,81.4s81.4-36.5,81.4-81.4S144.3,18.5,99.4,18.5z"/>
</g>
</svg>
