<?xml version="1.0" encoding="UTF-8" standalone="no"?>
<svg width="200px" height="200px" viewBox="0 0 200 200" version="1.1" xmlns="http://www.w3.org/2000/svg" xmlns:xlink="http://www.w3.org/1999/xlink">
    <!-- Generator: Sketch 3.7 (28169) - http://www.bohemiancoding.com/sketch -->
    <title>QQ（第三方支付）</title>
    <desc>Created with Sketch.</desc>
    <defs>
        <path d="M3,41.7935333 L3,158.2097 C3,179.614367 20.3662333,197 41.7935333,197 L158.206467,197 C179.614367,197 197,179.630533 197,158.2097 L197,41.7935333 C197,20.3888667 179.630533,3 158.206467,3 L41.7935333,3 C20.3888667,3 3,20.3662333 3,41.7935333 Z M140.891274,81.8245314 C140.98793,81.8319712 144.705488,63.6268245 131.597381,49.2829247 C127.32219,44.6033018 119.753244,35.3333333 99.0761905,35.3333333 C78.3991373,35.3333333 71.0606794,44.6925792 66.5475649,49.2829247 C53.1940994,62.8754065 57.261107,81.8245314 57.261107,81.8245314 C51.669901,88.0739483 53.3725422,92.9470056 53.3725422,92.9470056 C29.379428,117.751239 36.2420386,131.894265 36.2420386,131.894265 C41.1046034,142.920022 49.9523895,127.675908 49.9523895,127.675908 C49.5880689,133.739331 58.9711833,145.665301 58.9711833,145.665301 C39.4837484,155.217981 44.3463133,161.281404 51.216359,163.855568 C56.0863589,165.51464 62.0344505,165.51464 62.0344505,165.51464 C82.607412,164.778101 92.3399768,159.815767 92.3399768,159.815767 C94.5110302,160.529986 96.7936104,160.961493 99.0761905,161.214446 C101.358771,160.961493 103.641351,160.529986 105.804969,159.815767 C105.804969,159.815767 115.552404,164.778101 136.11793,165.51464 C136.11793,165.51464 142.073457,165.51464 146.936022,163.855568 C153.798633,161.281404 158.668633,155.217981 139.181198,145.665301 C139.181198,145.665301 148.571747,133.739331 148.207427,127.675908 C148.207427,127.675908 157.047778,142.920022 161.910342,131.894265 C161.910342,131.894265 168.772953,117.751239 144.779839,92.9470056 C144.779839,92.9470056 146.48248,88.0739483 140.891274,81.8245314 Z" id="path-1"></path>
    </defs>
    <g id="第三方支付方式" stroke="none" stroke-width="1" fill="none" fill-rule="evenodd">
        <g id="QQ（第三方支付）">
            <mask id="mask-2" fill="white">
                <use xlink:href="#path-1"></use>
            </mask>
            <use id="Combined-Shape" fill="#26262E" xlink:href="#path-1"></use>
        </g>
    </g>
</svg>