<?xml version="1.0" encoding="UTF-8" standalone="no"?>
<svg width="200px" height="200px" viewBox="0 0 200 200" version="1.1" xmlns="http://www.w3.org/2000/svg" xmlns:xlink="http://www.w3.org/1999/xlink">
    <!-- Generator: Sketch 3.7 (28169) - http://www.bohemiancoding.com/sketch -->
    <title>QQ（分享方式）</title>
    <desc>Created with Sketch.</desc>
    <defs></defs>
    <g id="-分享方式" stroke="none" stroke-width="1" fill="none" fill-rule="evenodd">
        <g id="QQ（分享方式）" fill="#26262E">
            <g id="Group-2" transform="translate(3.000000, 3.000000)">
                <g id="Group">
                    <path d="M3.62616822,97 C3.62616822,45.4284152 45.4284152,3.62616822 97,3.62616822 C148.571585,3.62616822 190.373832,45.4284152 190.373832,97 C190.373832,148.571585 148.571585,190.373832 97,190.373832 C60.1076563,190.373832 27.1357058,168.776999 12.0523856,135.81361 C11.6357416,134.903068 10.5598447,134.502685 9.64930256,134.919329 C8.73876043,135.335973 8.33837689,136.41187 8.7550209,137.322412 C24.423375,171.564346 58.6759576,194 97,194 C150.574262,194 194,150.574262 194,97 C194,43.4257378 150.574262,0 97,0 C43.4257378,0 0,43.4257378 0,97 C0,98.0013387 0.811745407,98.8130841 1.81308411,98.8130841 C2.81442282,98.8130841 3.62616822,98.0013387 3.62616822,97 L3.62616822,97 Z" id="Stroke-1-Copy-2"></path>
                    <path d="M129.396003,81.0696878 C129.472983,81.0756977 132.433735,66.3695491 121.994122,54.7825224 C118.589256,51.002315 112.561164,43.5140187 96.0934579,43.5140187 C79.625752,43.5140187 73.7812264,51.0744334 70.1868728,54.7825224 C59.5518495,65.7625524 62.7909128,81.0696878 62.7909128,81.0696878 C58.3379409,86.1179775 59.6939656,90.0544414 59.6939656,90.0544414 C40.5852684,110.091343 46.0508177,121.516104 46.0508177,121.516104 C49.923482,130.422729 56.9700732,118.108508 56.9700732,118.108508 C56.6799195,123.006551 64.152859,132.640371 64.152859,132.640371 C48.6325939,140.357042 52.5052583,145.255085 57.9767291,147.334499 C61.855315,148.6747 66.5925191,148.6747 66.5925191,148.6747 C82.977324,148.079723 90.7285742,144.071141 90.7285742,144.071141 C92.4576538,144.648088 94.2755559,144.996661 96.0934579,145.200996 C97.91136,144.996661 99.7292621,144.648088 101.45242,144.071141 C101.45242,144.071141 109.215513,148.079723 125.594397,148.6747 C125.594397,148.6747 130.337522,148.6747 134.210187,147.334499 C139.675736,145.255085 143.554322,140.357042 128.034057,132.640371 C128.034057,132.640371 135.512918,123.006551 135.222764,118.108508 C135.222764,118.108508 142.263434,130.422729 146.136098,121.516104 C146.136098,121.516104 151.601648,110.091343 132.49295,90.0544414 C132.49295,90.0544414 133.848975,86.1179775 129.396003,81.0696878 Z" id="Page-1"></path>
                </g>
            </g>
        </g>
    </g>
</svg>