<?xml version="1.0" encoding="UTF-8" standalone="no"?>
<svg width="200px" height="200px" viewBox="0 0 200 200" version="1.1" xmlns="http://www.w3.org/2000/svg" xmlns:xlink="http://www.w3.org/1999/xlink">
    <!-- Generator: Sketch 3.7 (28169) - http://www.bohemiancoding.com/sketch -->
    <title>QQ空间（分享方式）</title>
    <desc>Created with Sketch.</desc>
    <defs>
        <polyline id="path-1" points="0 0.357800818 116.024678 0.357800818 116.024678 108.785047 0 108.785047"></polyline>
    </defs>
    <g id="-分享方式" stroke="none" stroke-width="1" fill="none" fill-rule="evenodd">
        <g id="QQ空间（分享方式）">
            <g id="Group" transform="translate(3.000000, 3.000000)">
                <path d="M3.62616822,97 C3.62616822,45.4284152 45.4284152,3.62616822 97,3.62616822 C148.571585,3.62616822 190.373832,45.4284152 190.373832,97 C190.373832,148.571585 148.571585,190.373832 97,190.373832 C60.1076563,190.373832 27.1357058,168.776999 12.0523856,135.81361 C11.6357416,134.903068 10.5598447,134.502685 9.64930256,134.919329 C8.73876043,135.335973 8.33837689,136.41187 8.7550209,137.322412 C24.423375,171.564346 58.6759576,194 97,194 C150.574262,194 194,150.574262 194,97 C194,43.4257378 150.574262,0 97,0 C43.4257378,0 0,43.4257378 0,97 C0,98.0013387 0.811745407,98.8130841 1.81308411,98.8130841 C2.81442282,98.8130841 3.62616822,98.0013387 3.62616822,97 L3.62616822,97 Z" id="Stroke-1" fill="#26262E"></path>
                <g id="Page-1" transform="translate(39.887850, 41.700935)">
                    <mask id="mask-2" fill="white">
                        <use xlink:href="#path-1"></use>
                    </mask>
                    <g id="Clip-2"></g>
                    <path d="M79.0744794,36.9199451 C76.4606738,36.6811279 75.874558,36.2808329 75.0589084,34.1952196 L60.4500559,2.38069276 C59.1143555,-0.315986565 56.929126,-0.315986565 55.5942726,2.38069276 L40.0223945,34.1952196 C38.9619653,35.9595771 38.4715592,36.3590222 35.897562,36.5986893 L2.80742708,40.2446881 C-0.231566573,40.5429971 -0.911698097,42.4807307 1.29978809,44.5510461 L27.2633643,67.9780759 C28.4872623,69.1007716 28.508437,69.5801057 28.1603248,71.1243435 L21.5029976,105.502118 C20.9414444,108.452912 22.6464317,109.63425 25.2907288,108.134206 L54.9276929,91.3396647 C57.0095898,90.0563411 58.9288651,90.0189463 60.9701067,91.2580759 L90.7502117,108.134206 C93.3962029,109.63425 95.10966,108.450363 94.5557297,105.501268 L89.4619427,78.0712886 C92.5111002,77.0582278 95.467089,75.8173984 97.2330594,74.4150911 L96.5148134,74.5519223 C85.9748923,77.0284819 71.4820772,78.4962301 58.0479974,78.4962301 C53.0880345,78.4962301 48.2720596,78.3245537 43.6568209,78.0032979 C39.5777257,77.7398341 35.6790391,77.3454883 31.9836296,76.8466069 C30.6021918,76.6315864 32.1030549,75.7570567 32.1030549,75.7570567 L67.8129243,50.8546297 C67.8129243,50.8546297 68.7488463,50.2826583 67.8239352,50.161125 C53.1439357,47.9080847 36.8817623,47.3378131 21.5961663,47.3378131 C21.2438192,47.3378131 20.8940131,47.3463119 20.541666,47.3463119 C30.871534,45.0329299 43.8787318,43.6535695 58.0098829,43.6535695 C66.3467877,43.6535695 74.2906901,44.1312039 81.5256633,45.0006343 C81.5171934,45.0091332 85.6123813,45.5573078 87.568924,45.8700648 C89.0833389,46.094434 87.6688687,46.9579153 87.6688687,46.9579153 L51.9107209,71.2824217 C51.9107209,71.2824217 51.0789785,71.7617558 51.975939,71.8926379 C62.9749277,73.419028 76.5377498,73.9629533 88.7276039,74.1159322 L88.1796025,71.1702371 C87.9077193,69.4611221 88.1796025,68.8713032 89.4881993,67.6423721 L114.698803,44.5060023 C116.934852,42.4620333 116.275048,40.5429971 113.23436,40.2438382 L79.0744794,36.9199451 Z" id="Fill-1" fill="#26262E" mask="url(#mask-2)"></path>
                </g>
            </g>
        </g>
    </g>
</svg>