<?xml version="1.0" encoding="utf-8"?>
<!-- Generator: Adobe Illustrator 19.0.0, SVG Export Plug-In . SVG Version: 6.00 Build 0)  -->
<svg version="1.1" id="图层_1" xmlns="http://www.w3.org/2000/svg" xmlns:xlink="http://www.w3.org/1999/xlink" x="0px" y="0px"
	 viewBox="0 0 200 200" style="enable-background:new 0 0 200 200;" xml:space="preserve">
<style type="text/css">
	.st0{fill:#211332;}
</style>
<g id="XMLID_1_">
	<path id="XMLID_12_" class="st0" d="M134.3,72.6l-26.8-21.7c-4.2-3.4-10.7-3.4-14.9,0L65.7,72.6c-2.5,2-2.8,5.6-0.8,8
		c2,2.5,5.7,2.8,8.1,0.8l21.1-17.1V91c0,3.2,2.6,5.7,5.7,5.7s5.7-2.6,5.7-5.7V64.3L127,81.5c1.1,0.9,2.3,1.3,3.6,1.3
		c1.7,0,3.3-0.7,4.5-2.1C137.1,78.2,136.7,74.6,134.3,72.6z"/>
	<path id="XMLID_15_" class="st0" d="M164,28.3c-2.3-6.4-8.4-10.7-15.4-10.7H53c-6.8,0-12.9,4.2-15.3,10.4L10,101.5v64.9
		c0,8.8,7.3,15.9,16.3,15.9h147.4c9,0,16.3-7.1,16.3-15.9v-64.9L164,28.3z M178.5,166.4c0,2.4-2.1,4.4-4.8,4.4H26.3
		c-2.6,0-4.8-2-4.8-4.4v-53l41.4-0.1c2.9,17.6,18.9,30.6,37.9,30.6c19,0,35-13,37.9-30.6l24.6,0.1c0,0,0,0,0,0
		c3.2,0,5.7-2.6,5.7-5.7c0-3.2-2.6-5.8-5.7-5.8l-26.3-0.1c-4.9,0-8.9,3.6-9.5,8.4c-1.4,12.7-12.9,22.3-26.8,22.3
		s-25.3-9.6-26.8-22.3c-0.5-4.8-4.6-8.4-9.5-8.4l-42.4,0.1l26.3-69.8c0.7-1.8,2.5-3,4.5-3h95.7c2.1,0,3.9,1.2,4.5,3l25.3,71.3V166.4
		z"/>
</g>
</svg>
