<?xml version="1.0" encoding="utf-8"?>
<!-- Generator: Adobe Illustrator 19.0.0, SVG Export Plug-In . SVG Version: 6.00 Build 0)  -->
<svg version="1.1" id="图层_1" xmlns="http://www.w3.org/2000/svg" xmlns:xlink="http://www.w3.org/1999/xlink" x="0px" y="0px"
	 viewBox="0 0 200 200" style="enable-background:new 0 0 200 200;" xml:space="preserve">
<style type="text/css">
	.st0{fill:#211332;}
	.st1{fill-rule:evenodd;clip-rule:evenodd;fill:#211332;}
</style>
<g id="XMLID_3_">
	<g id="XMLID_12_">
		<path id="XMLID_2_" class="st0" d="M100,190c-49.6,0-90-40.4-90-90s40.4-90,90-90s90,40.4,90,90c0,9.7-3.3,23.2-3.4,23.7
			c-0.7,2.9-2.7,5.2-5.4,6c-2.7,0.7-5.6-0.1-7.8-2.4l-18.2-18.9c-2.2-2.3-2.1-5.9,0.1-8.1c2.3-2.2,5.9-2.1,8.1,0.1l13.4,13.9
			c0.8-4.3,1.7-10,1.7-14.4c0-43.3-35.2-78.5-78.5-78.5S21.5,56.7,21.5,100s35.2,78.5,78.5,78.5c15.5,0,30.5-4.5,43.4-13.1
			c2.6-1.8,6.2-1,8,1.6c1.8,2.6,1,6.2-1.6,8C135,184.8,117.8,190,100,190z"/>
	</g>
	<path id="XMLID_6_" class="st1" d="M136.4,97.1c3.6-4.5,1.8-8.1-4-8.1h-20.9l5.7-43c1.1-8.4-2.4-9.8-7.9-3.1l-45.7,56
		c-3.6,4.5-1.8,8.1,4,8.1h20.9l-6.7,50.6c-0.6,4.2,1.2,4.9,3.9,1.6L136.4,97.1z"/>
</g>
</svg>
