<?xml version="1.0" encoding="utf-8"?>
<!-- Generator: Adobe Illustrator 19.0.0, SVG Export Plug-In . SVG Version: 6.00 Build 0)  -->
<svg version="1.1" id="图层_1" xmlns="http://www.w3.org/2000/svg" xmlns:xlink="http://www.w3.org/1999/xlink" x="0px" y="0px"
	 viewBox="0 0 200 200" style="enable-background:new 0 0 200 200;" xml:space="preserve">
<style type="text/css">
	.st0{fill-rule:evenodd;clip-rule:evenodd;fill:#211332;}
	.st1{fill:#211332;}
</style>
<g id="XMLID_1_">
	<path id="XMLID_9_" class="st0" d="M131.5,64.2c3.2-2.9,3.3-7.7,0.2-10.7c-3.1-3-8.2-3.1-11.4-0.2l-20.1,18.3L80.1,53.3
		c-3.2-2.9-8.3-2.9-11.4,0.2c-3.1,3-3,7.8,0.2,10.7c0,0,15.1,13.7,22.6,20.6v4.5H75.4c-4.5,0-8.1,3.4-8.1,7.6c0,4.2,3.6,7.6,8.1,7.6
		h16.1v7.6H75.4c-4.5,0-8.1,3.4-8.1,7.6c0,4.2,3.6,7.6,8.1,7.6h16.1v16c0,4.2,3.6,7.6,8.1,7.6c4.5,0,8.1-3.4,8.1-7.6v-16h16.1
		c4.5,0,8.1-3.4,8.1-7.6c0-4.2-3.6-7.6-8.1-7.6h-16.1v-7.6h16.1c4.5,0,8.1-3.4,8.1-7.6c0-4.2-3.6-7.6-8.1-7.6h-16.1V86L131.5,64.2z"
		/>
	<g id="XMLID_7_">
		<path id="XMLID_2_" class="st1" d="M100,190c-49.6,0-90-40.4-90-90s40.4-90,90-90s90,40.4,90,90c0,9.7-3.3,23.2-3.4,23.7
			c-0.7,2.9-2.7,5.2-5.4,6c-2.7,0.7-5.6-0.1-7.8-2.4l-18.2-18.9c-2.2-2.3-2.1-5.9,0.1-8.1s5.9-2.1,8.1,0.1l13.4,13.9
			c0.8-4.3,1.7-10,1.7-14.4c0-43.3-35.2-78.5-78.5-78.5S21.5,56.7,21.5,100s35.2,78.5,78.5,78.5c15.5,0,30.5-4.5,43.4-13.1
			c2.6-1.8,6.2-1,8,1.6c1.8,2.6,1,6.2-1.6,8C135,184.8,117.8,190,100,190z"/>
	</g>
</g>
</svg>
