<?xml version="1.0" encoding="UTF-8" standalone="no"?>
<svg width="200px" height="200px" viewBox="0 0 200 200" version="1.1" xmlns="http://www.w3.org/2000/svg" xmlns:xlink="http://www.w3.org/1999/xlink">
    <!-- Generator: Sketch 3.7 (28169) - http://www.bohemiancoding.com/sketch -->
    <title>七天退货</title>
    <desc>Created with Sketch.</desc>
    <defs></defs>
    <g id="内容区域" stroke="none" stroke-width="1" fill="none" fill-rule="evenodd">
        <g id="七天退货" fill="#26262E">
            <g id="Group" transform="translate(3.000000, 3.000000)">
                <path d="M0,97 C0,150.573052 43.4269477,194 97,194 C150.573052,194 194,150.573052 194,97 C194,43.4269477 150.573052,0 97,0 C43.4269477,0 0,43.4269477 0,97 L0,97 Z M6.25806452,97 C6.25806452,46.8831813 46.8831813,6.25806452 97,6.25806452 C147.116819,6.25806452 187.741935,46.8831813 187.741935,97 C187.741935,147.116819 147.116819,187.741935 97,187.741935 C46.8831813,187.741935 6.25806452,147.116819 6.25806452,97 L6.25806452,97 Z" id="Stroke-1"></path>
                <path d="M14.5252806,97 C14.5252806,98.0662122 14.5455208,99.1300751 14.5859058,100.191216 C14.6187664,101.05465 15.3453563,101.727962 16.2087896,101.695101 C17.0722229,101.66224 17.7455351,100.935651 17.7126745,100.072217 C17.6737983,99.0507215 17.6543129,98.0265321 17.6543129,97 C17.6543129,96.1359416 16.9538552,95.4354839 16.0897968,95.4354839 C15.2257384,95.4354839 14.5252806,96.1359416 14.5252806,97 L14.5252806,97 Z M15.9581331,112.385718 C16.7192419,116.418951 17.7790103,120.37522 19.1261178,124.228302 C19.4112824,125.043948 20.3036656,125.473988 21.1193114,125.188823 C21.9349572,124.903659 22.3649972,124.011275 22.0798326,123.19563 C20.7842169,119.489828 19.7649561,115.68478 19.0328963,111.805481 C18.8726684,110.956409 18.0544689,110.39799 17.2053965,110.558218 C16.3563241,110.718446 15.7979053,111.536645 15.9581331,112.385718 L15.9581331,112.385718 Z M24.0513853,135.513207 C24.5485775,136.453042 25.0639124,137.383084 25.5970643,138.302835 C26.0303933,139.05038 26.9876804,139.305102 27.735225,138.871773 C28.4827696,138.438444 28.7374918,137.481157 28.3041629,136.733612 C27.791267,135.848805 27.2955196,134.954113 26.8172335,134.050016 C26.4131845,133.286248 25.466482,132.994638 24.7027141,133.398687 C23.9389462,133.802736 23.6473364,134.749439 24.0513853,135.513207 L24.0513853,135.513207 Z M32.6146719,148.547176 C35.173527,151.739292 37.9662212,154.738691 40.9677852,157.519037 C41.6016793,158.106213 42.5915518,158.06834 43.1787274,157.434446 C43.765903,156.800552 43.7280302,155.810679 43.0941361,155.223503 C40.205771,152.548013 37.5183976,149.66173 35.0561082,146.590079 C34.5156706,145.915895 33.5310252,145.807472 32.8568412,146.347909 C32.1826572,146.888347 32.0742343,147.872992 32.6146719,148.547176 L32.6146719,148.547176 Z M50.4793704,165.11178 C51.3565809,165.712055 52.2452963,166.295358 53.1450214,166.861325 C53.8764089,167.321401 54.8422803,167.101459 55.3023555,166.370071 C55.7624308,165.638684 55.5424887,164.672812 54.8111012,164.212737 C53.9454769,163.668221 53.0904313,163.107017 52.2464419,162.529475 C51.5333579,162.041512 50.5597168,162.224008 50.0717535,162.937092 C49.5837901,163.650176 49.7662865,164.623817 50.4793704,165.11178 L50.4793704,165.11178 Z M64.1002845,172.65123 C67.8474057,174.283039 71.7158178,175.634439 75.6782267,176.691959 C76.5130641,176.914768 77.3704553,176.41862 77.5932635,175.583783 C77.8160718,174.748945 77.3199242,173.891554 76.4850869,173.668746 C72.6741468,172.651651 68.9536155,171.351912 65.3496019,169.782424 C64.557403,169.437434 63.6355296,169.799969 63.2905401,170.592168 C62.9455507,171.384367 63.3080856,172.30624 64.1002845,172.65123 L64.1002845,172.65123 Z M88.0380918,178.993583 C89.0934327,179.10765 90.152462,179.201561 91.2147791,179.275196 C92.0767692,179.334946 92.8239865,178.684601 92.8837358,177.822611 C92.943485,176.960621 92.2931403,176.213403 91.4311502,176.153654 C90.4088651,176.082794 89.3898006,175.992426 88.3743355,175.88267 C87.5152804,175.789819 86.743608,176.41095 86.6507569,177.270005 C86.5579057,178.12906 87.1790368,178.900732 88.0380918,178.993583 L88.0380918,178.993583 Z M102.996465,179.260329 C107.099034,178.965486 111.149604,178.368289 115.124118,177.477007 C115.967238,177.287938 116.49745,176.451184 116.308381,175.608065 C116.119312,174.764946 115.282558,174.234734 114.439439,174.423802 C110.616278,175.281144 106.719588,175.855653 102.772167,176.139346 C101.910331,176.201284 101.261887,176.950151 101.323825,177.811986 C101.385763,178.673822 102.13463,179.322267 102.996465,179.260329 L102.996465,179.260329 Z M127.004139,173.847156 C127.995492,173.459815 128.978902,173.053305 129.953879,172.627893 C130.745832,172.282339 131.10771,171.360208 130.762156,170.568255 C130.416603,169.776302 129.494471,169.414423 128.702518,169.759977 C127.764755,170.169152 126.818892,170.560141 125.865399,170.93269 C125.060591,171.247145 124.663081,172.154486 124.977536,172.959294 C125.29199,173.764101 126.199332,174.161611 127.004139,173.847156 L127.004139,173.847156 Z M140.756225,166.923741 C144.222554,164.75014 147.523404,162.32113 150.630932,159.658904 C151.287117,159.096749 151.363343,158.109089 150.801188,157.452904 C150.239033,156.796719 149.251373,156.720493 148.595188,157.282648 C145.605037,159.844317 142.428991,162.181488 139.093913,164.272786 C138.361872,164.731821 138.140557,165.697378 138.599591,166.429419 C139.058626,167.161461 140.024184,167.382776 140.756225,166.923741 L140.756225,166.923741 Z M159.304896,151.041478 C160.001797,150.238698 160.683198,149.422593 161.348681,148.59364 C161.889603,147.919844 161.781888,146.935121 161.108092,146.394199 C160.434297,145.853277 159.449574,145.960992 158.908652,146.634787 C158.268293,147.432445 157.612612,148.217747 156.942009,148.990232 C156.375573,149.642725 156.445336,150.630862 157.09783,151.197298 C157.750323,151.763734 158.73846,151.693971 159.304896,151.041478 L159.304896,151.041478 Z M168.342901,138.407306 C170.399758,134.870939 172.191305,131.18477 173.700586,127.377058 C174.018977,126.5738 173.625915,125.664523 172.822657,125.346132 C172.019399,125.02774 171.110122,125.420803 170.79173,126.224061 C169.340025,129.886517 167.616731,133.432254 165.638106,136.834116 C165.203681,137.581025 165.456999,138.538684 166.203908,138.973109 C166.950816,139.407533 167.908476,139.154215 168.342901,138.407306 L168.342901,138.407306 Z M177.40903,115.425662 C177.645415,114.389878 177.861849,113.348661 178.05816,112.302457 C178.217512,111.45322 177.658249,110.635597 176.809012,110.476245 C175.959775,110.316893 175.142152,110.876156 174.9828,111.725393 C174.793974,112.731709 174.585796,113.733205 174.358433,114.729459 C174.166181,115.571858 174.69323,116.410608 175.535629,116.602859 C176.378029,116.79511 177.216778,116.268061 177.40903,115.425662 L177.40903,115.425662 Z M179.415034,100.182955 C179.45521,99.1245533 179.475345,98.0634452 179.475345,97 C179.475345,94.0451552 179.319896,91.1090945 179.011264,88.199966 C178.920107,87.3407296 178.149661,86.7180781 177.290425,86.809235 C176.431188,86.900392 175.808537,87.670838 175.899694,88.5300745 C176.196697,91.329601 176.346313,94.1554723 176.346313,97 C176.346313,98.0238682 176.326929,99.0454059 176.288254,100.064265 C176.255478,100.927702 176.928862,101.654225 177.792299,101.687 C178.655736,101.719775 179.382259,101.046391 179.415034,100.182955 L179.415034,100.182955 Z M176.801702,76.0922836 C176.53293,75.0636431 176.244337,74.0410592 175.936126,73.0249954 C175.685311,72.198141 174.811686,71.7311694 173.984832,71.9819853 C173.157977,72.2328011 172.691006,73.1064255 172.941821,73.93328 C173.238248,74.9104958 173.515808,75.8939853 173.774306,76.8833063 C173.992741,77.7192986 174.847523,78.2199278 175.683515,78.0014929 C176.519507,77.783058 177.020136,76.9282759 176.801702,76.0922836 L176.801702,76.0922836 Z M171.50544,61.5847966 C169.745362,57.8884791 167.711693,54.3298312 165.423384,50.9372478 C164.940211,50.2209092 163.967815,50.0318911 163.251476,50.5150639 C162.535137,50.9982368 162.346119,51.9706329 162.829292,52.6869714 C165.030814,55.9508869 166.98723,59.3743521 168.680339,62.9300271 C169.051814,63.7101573 169.985374,64.0414377 170.765505,63.6699625 C171.545635,63.2984874 171.876915,62.3649268 171.50544,61.5847966 L171.50544,61.5847966 Z M157.66071,41.1204639 C156.94015,40.3386446 156.204606,39.5707257 155.454523,38.8171659 C154.844956,38.2047731 153.854362,38.2024824 153.241969,38.8120495 C152.629577,39.4216166 152.627286,40.4122107 153.236853,41.0246035 C153.958652,41.7497481 154.666458,42.4887095 155.359845,43.2410449 C155.945427,43.8764112 156.935201,43.9167691 157.570568,43.3311868 C158.205934,42.7456046 158.246292,41.7558302 157.66071,41.1204639 L157.66071,41.1204639 Z M146.344281,30.9082975 C143.067427,28.4579273 139.612868,26.253473 136.008871,24.315291 C135.247878,23.9060392 134.299208,24.1911815 133.889956,24.9521742 C133.480704,25.7131669 133.765847,26.6618375 134.526839,27.0710893 C137.993995,28.9356799 141.317605,31.0565716 144.470421,33.4141893 C145.162404,33.9316413 146.142845,33.790156 146.660297,33.0981731 C147.177749,32.4061902 147.036264,31.4257495 146.344281,30.9082975 L146.344281,30.9082975 Z M124.61238,19.2610477 C123.610809,18.9052831 122.601956,18.5689002 121.586297,18.2521285 C120.761427,17.9948614 119.884182,18.4549945 119.626915,19.2798646 C119.369648,20.1047346 119.829781,20.98198 120.654651,21.2392471 C121.631475,21.543907 122.601756,21.8674286 123.565038,22.2095926 C124.379256,22.4988082 125.273766,22.0732094 125.562982,21.2589912 C125.852197,20.4447731 125.426598,19.5502632 124.61238,19.2610477 L124.61238,19.2610477 Z M109.434496,15.4563343 C105.412896,14.848117 101.330924,14.5355414 97.2110878,14.5252315 C96.3470321,14.5230691 95.6448237,15.2217718 95.6426613,16.0858275 C95.640499,16.9498831 96.3392016,17.6520916 97.2032573,17.6542539 C101.168948,17.6641781 105.097145,17.9649784 108.96659,18.5501841 C109.820933,18.6793929 110.618259,18.0915555 110.747468,17.2372125 C110.876677,16.3828694 110.288839,15.5855431 109.434496,15.4563343 L109.434496,15.4563343 Z M85.3997793,15.334613 C84.3444543,15.4831944 83.293444,15.6520439 82.2471775,15.8410099 C81.3968762,15.9945827 80.8320661,16.8083834 80.9856389,17.6586847 C81.1392116,18.508986 81.9530124,19.0737961 82.8033137,18.9202234 C83.8097589,18.7384495 84.8207966,18.5760217 85.8360199,18.4330863 C86.6916397,18.3126218 87.2876008,17.5213491 87.1671363,16.6657294 C87.0466718,15.8101096 86.2553991,15.2141485 85.3997793,15.334613 L85.3997793,15.334613 Z M70.2828783,18.9490874 C66.4055362,20.2760046 62.6383938,21.8905325 59.0094311,23.7771444 C58.2427852,24.1757055 57.9443935,25.1202924 58.3429546,25.8869383 C58.7415157,26.6535842 59.6861026,26.951976 60.4527485,26.5534149 C63.9434178,24.7386985 67.5667892,23.1857881 71.2960206,21.909558 C72.1135319,21.6297865 72.5494562,20.740263 72.2696847,19.9227516 C71.9899132,19.1052402 71.1003897,18.6693159 70.2828783,18.9490874 L70.2828783,18.9490874 Z M48.5289993,30.2646127 C47.6697843,30.8897341 46.8226569,31.5313725 45.9881031,32.1891324 C45.3094844,32.7239909 45.1929438,33.7077085 45.7278022,34.3863272 C46.2626607,35.0649459 47.2463783,35.1814865 47.924997,34.6466281 C48.72802,34.0137194 49.5431325,33.3963299 50.3698654,32.7948409 C51.0685686,32.2864997 51.2228876,31.3079969 50.7145464,30.6092937 C50.2062053,29.9105905 49.2277025,29.7562715 48.5289993,30.2646127 L48.5289993,30.2646127 Z M37.0200703,40.3913268 C34.2110354,43.3666167 31.6253256,46.5462576 29.2863722,49.9029259 C28.7923871,50.6118516 28.9666308,51.5870034 29.6755565,52.0809886 C30.3844822,52.5749737 31.3596341,52.4007299 31.8536192,51.6918042 C34.1041589,48.4620198 36.5922432,45.4024287 39.2952848,42.5394055 C39.8884603,41.9111224 39.86,40.9209345 39.2317169,40.3277589 C38.6034338,39.7345834 37.6132459,39.7630437 37.0200703,40.3913268 L37.0200703,40.3913268 Z M22.9756798,60.59292 C22.5056393,61.546852 22.054091,62.5099735 21.6213254,63.4817888 C21.2698232,64.2711197 21.6247534,65.1959475 22.4140843,65.5474497 C23.2034151,65.8989519 24.1282429,65.5440217 24.4797451,64.7546909 C24.8960084,63.8199329 25.3303445,62.893524 25.7824748,61.97594 C26.1643852,61.200865 25.8456624,60.2629429 25.0705873,59.8810325 C24.2955123,59.4991221 23.3575902,59.8178449 22.9756798,60.59292 L22.9756798,60.59292 Z M17.4416847,75.1845246 C16.3655828,79.117822 15.581624,83.1379269 15.0992597,87.2198302 C14.9978583,88.077918 15.6112738,88.8557377 16.4693616,88.9571391 C17.3274494,89.0585405 18.1052691,88.4451251 18.2066705,87.5870373 C18.6707049,83.6602467 19.4247774,79.7933971 20.4598016,76.0102443 C20.6878178,75.1768144 20.197033,74.3163422 19.3636031,74.088326 C18.5301731,73.8603098 17.6697009,74.3510946 17.4416847,75.1845246 L17.4416847,75.1845246 Z" id="Stroke-3"></path>
                <path d="M81.2453226,61.601571 C76.9835806,61.601571 73.2662903,66.5767323 70.0965806,76.5176677 L66.3292258,74.7153452 L70.0965806,47.9965387 C72.2837742,48.215571 74.6618387,48.3501194 77.2276452,48.4064419 C79.7965806,48.4627645 82.8286129,48.4877968 86.326871,48.4877968 L131.244129,48.4877968 L131.244129,55.5375065 C129.275968,58.8136032 127.335968,62.6122484 125.424129,66.9271839 C123.51229,71.2483774 121.681806,75.6978613 119.932677,80.2881516 C118.183548,84.8784419 116.572097,89.3873774 115.098323,93.8149581 C113.621419,98.2394097 112.335387,102.257087 111.243355,105.861732 C109.165677,112.858248 107.447839,119.989313 106.080452,127.254926 C104.713065,134.523668 104.030935,141.764248 104.030935,148.976668 C104.030935,156.0827 100.970742,159.631023 94.8503548,159.631023 C88.5109355,159.631023 85.3443548,156.517635 85.3443548,150.287732 C85.3443548,147.227539 85.8888065,143.622894 86.9839677,139.467539 C88.076,135.315313 89.3839355,131.053571 90.9171613,126.682313 C92.4472581,122.311055 94.1119032,118.074345 95.9173548,113.978442 C97.7196774,109.87941 99.331129,106.246603 100.754839,103.073765 C102.49771,99.2500871 104.412677,95.2887323 106.490355,91.1897 C108.564903,87.0937968 110.533065,83.2137968 112.39171,79.552829 C114.250355,75.8918613 115.918129,72.6126355 117.391903,69.7151516 C118.868806,66.8207968 119.932677,64.608571 120.589774,63.0784742 C120.589774,62.092829 120.039065,61.601571 118.947032,61.601571 L81.2453226,61.601571 Z" id="Fill-5"></path>
            </g>
        </g>
    </g>
</svg>