<?xml version="1.0" encoding="UTF-8" standalone="no"?>
<svg width="192px" height="154px" viewBox="0 0 192 154" version="1.1" xmlns="http://www.w3.org/2000/svg" xmlns:xlink="http://www.w3.org/1999/xlink">
    <!-- Generator: Sketch 3.7 (28169) - http://www.bohemiancoding.com/sketch -->
    <title>Group 2</title>
    <desc>Created with Sketch.</desc>
    <defs></defs>
    <g id="导航栏" stroke="none" stroke-width="1" fill="none" fill-rule="evenodd">
        <g id="分享" transform="translate(-4.000000, -23.000000)" fill="#26262E">
            <g id="Group-2" transform="translate(4.000000, 23.000000)">
                <path d="M112.278834,48.770466 L112.278834,8.78070175 L98.6160575,15.1377003 L178.186905,81.7510026 L178.18662,69.037244 L98.6157725,135.656597 L112.278834,142.013357 L112.278834,103.385024 C112.278834,98.8020293 108.555208,95.0867781 103.961883,95.0867781 C99.3685579,95.0867781 95.6449323,98.8020293 95.6449323,103.385024 L95.6449323,142.013357 C95.6449323,149.062158 103.896182,152.901065 109.307993,148.370117 L188.878841,81.750764 C192.840077,78.4342859 192.839941,72.3533068 188.878556,69.0370054 L109.307708,2.42370317 C103.895828,-2.1068914 95.6449323,1.73207435 95.6449323,8.78070175 L95.6449323,48.770466 C95.6449323,53.3534605 99.3685579,57.0687116 103.961883,57.0687116 C108.555208,57.0687116 112.278834,53.3534605 112.278834,48.770466 L112.278834,48.770466 Z" id="Stroke-1"></path>
                <path d="M102.998551,41.9736842 C46.0998851,41.9736842 0,88.2913427 0,145.396621 C0,155.930495 15.5585075,156.693473 16.5938156,146.210369 C16.5869168,146.280223 16.6230279,146.068394 16.737401,145.615306 C16.9802342,144.653324 17.3717272,143.525092 17.9472094,142.266723 C19.706759,138.419234 22.6446608,134.471374 27.1093651,130.669857 C40.8920431,118.934456 65.2290766,111.616896 102.998551,111.616896 C107.591876,111.616896 111.315501,107.901645 111.315501,103.31865 C111.315501,98.7356558 107.591876,95.0204046 102.998551,95.0204046 C61.5577815,95.0204046 33.4155914,103.482084 16.311642,118.045415 C9.96602661,123.448453 5.564849,129.362617 2.81425655,135.377153 C1.05986116,139.213371 0.255797758,142.398661 0.0400856836,144.582873 L16.6339013,145.396621 C16.6339013,97.4315573 55.3125672,58.5701754 102.998551,58.5701754 C107.591876,58.5701754 111.315501,54.8549243 111.315501,50.2719298 C111.315501,45.6889353 107.591876,41.9736842 102.998551,41.9736842 L102.998551,41.9736842 Z" id="Stroke-3"></path>
            </g>
        </g>
    </g>
</svg>