<?xml version="1.0" encoding="utf-8"?>
<!-- Generator: Adobe Illustrator 19.0.0, SVG Export Plug-In . SVG Version: 6.00 Build 0)  -->
<svg version="1.1" id="图层_1" xmlns="http://www.w3.org/2000/svg" xmlns:xlink="http://www.w3.org/1999/xlink" x="0px" y="0px"
	 viewBox="0 0 200 200" style="enable-background:new 0 0 200 200;" xml:space="preserve">
<style type="text/css">
	.st0{fill-rule:evenodd;clip-rule:evenodd;fill:#26262E;}
	.st1{fill:#26262E;}
</style>
<path class="st0" d="M99.9,162.1c-0.5,0-0.9-0.1-1.4-0.2c-7.8-2.5-46.8-16.1-46.8-42.2V61.9c0-1.6,0.8-3.1,2.2-3.9
	c1.4-0.8,3.1-0.9,4.5-0.1l1.2,0.7c4.1,2.2,10.9,5.9,18.7,5.9c6.6,0,12.9-4,17-6.7c1.5-1,2.7-1.7,3.6-2.1c1.2-0.5,2.5-0.5,3.6,0h0
	c1.1,0.5,2.3,1.3,3.9,2.4c3.9,2.7,9.7,6.8,16.7,6.4c8.3-0.4,12.4-3,15.6-5.1c0.6-0.4,1.1-0.7,1.6-1c1.4-0.8,3.1-0.9,4.6,0
	c1.4,0.8,2.3,2.4,2.3,4V120c0,26.1-38.4,39.4-46.1,41.8C100.8,162,100.4,162.1,99.9,162.1z M56.8,62.7v57c0,23,38.9,36,43.3,37.4
	c4-1.4,42.2-13.9,42.2-37V63c-0.2,0.2-0.5,0.3-0.8,0.5c-3.6,2.3-8.4,5.4-18.1,5.9c-8.7,0.4-15.6-4.5-19.8-7.3
	c-1.1-0.7-2.1-1.5-2.7-1.8c-0.7,0.3-1.6,0.9-2.7,1.7c-4.3,2.8-11.6,7.5-19.8,7.5c-9.1,0-16.6-4.1-21.1-6.5L56.8,62.7z"/>
<path id="XMLID_35_" class="st0" d="M120.7,74.8c-1,0-2.1,0-3.4-0.1c-7.9-0.5-13.6-4.5-16.2-5.6c-0.4-0.2-0.8-0.2-1.2,0
	c-2.5,1.1-6.1,4.6-15.9,5.6c-7,0.7-13.2-0.7-16.2-2.4c-1-0.6-2.2,0.2-2.2,1.4v43.5c0,3,0.8,5.7,2,8.3L120.7,74.8z"/>
<path id="XMLID_34_" class="st0" d="M79.1,138c8.5,6,18.1,9.4,20.3,10.1c0.3,0.1,0.6,0.1,0.9,0c4-1.3,33.2-11.4,33.2-30.7V86.1
	L79.1,138z"/>
<rect id="XMLID_33_" x="100.6" y="61.1" transform="matrix(0.69 0.7238 -0.7238 0.69 106.7944 -42.5847)" class="st0" width="5.1" height="84.5"/>
<g>
	<path id="XMLID_29_" class="st1" d="M99.6,189.9c-49.6,0-90-40.4-90-90c0-49.6,40.4-90,90-90c49.6,0,90,40.4,90,90
		C189.6,149.5,149.2,189.9,99.6,189.9z M99.6,15.7c-46.4,0-84.2,37.8-84.2,84.2c0,46.4,37.8,84.2,84.2,84.2
		c46.4,0,84.2-37.8,84.2-84.2C183.7,53.5,146,15.7,99.6,15.7z"/>
</g>
<g>
	<path id="XMLID_2_" class="st1" d="M104.8,176.2c-0.8,0-1.4-0.6-1.4-1.4c-0.1-0.8,0.6-1.5,1.3-1.5c3.6-0.2,7.3-0.8,10.8-1.6
		c0.8-0.2,1.6,0.3,1.7,1.1c0.2,0.8-0.3,1.6-1.1,1.7c-3.7,0.8-7.5,1.4-11.2,1.6C104.9,176.2,104.8,176.2,104.8,176.2z M93.6,176.2
		c0,0-0.1,0-0.1,0c-1-0.1-2-0.2-2.9-0.3c-0.8-0.1-1.4-0.8-1.3-1.6c0.1-0.8,0.8-1.3,1.6-1.3c0.9,0.1,1.9,0.2,2.8,0.3
		c0.8,0.1,1.4,0.8,1.3,1.6C95,175.6,94.4,176.2,93.6,176.2z M79.8,173.8c-0.1,0-0.3,0-0.4-0.1c-3.6-1-7.2-2.3-10.7-3.8
		c-0.7-0.3-1.1-1.2-0.7-1.9c0.3-0.7,1.2-1.1,1.9-0.7c3.3,1.5,6.8,2.7,10.3,3.6c0.8,0.2,1.2,1,1,1.8C81,173.4,80.5,173.8,79.8,173.8z
		 M126.5,171.4c-0.6,0-1.1-0.4-1.4-0.9c-0.3-0.7,0.1-1.6,0.8-1.9c0.9-0.3,1.8-0.7,2.6-1.1c0.7-0.3,1.6,0,1.9,0.8
		c0.3,0.7,0,1.6-0.8,1.9c-0.9,0.4-1.8,0.8-2.7,1.1C126.9,171.4,126.7,171.4,126.5,171.4z M139.1,165.2c-0.5,0-1-0.2-1.2-0.7
		c-0.4-0.7-0.2-1.6,0.5-2c3.1-1.9,6.1-4.1,8.8-6.4c0.6-0.5,1.5-0.4,2,0.2c0.5,0.6,0.4,1.5-0.2,2c-2.9,2.5-6,4.7-9.2,6.7
		C139.6,165.1,139.3,165.2,139.1,165.2z M59.5,164.8c-0.3,0-0.5-0.1-0.8-0.2c-0.8-0.5-1.7-1.1-2.5-1.6c-0.7-0.5-0.8-1.4-0.4-2
		c0.5-0.7,1.4-0.8,2-0.4c0.8,0.5,1.6,1.1,2.4,1.6c0.7,0.4,0.9,1.3,0.5,2C60.4,164.6,60,164.8,59.5,164.8z M48.4,156.2
		c-0.4,0-0.7-0.1-1-0.4c-2.8-2.6-5.4-5.4-7.7-8.3c-0.5-0.6-0.4-1.5,0.2-2c0.6-0.5,1.5-0.4,2,0.2c2.3,2.8,4.8,5.5,7.4,8
		c0.6,0.5,0.6,1.5,0.1,2.1C49.1,156.1,48.8,156.2,48.4,156.2z M156,150.8c-0.3,0-0.7-0.1-1-0.4c-0.6-0.5-0.7-1.4-0.1-2
		c0.6-0.7,1.2-1.4,1.8-2.2c0.5-0.6,1.4-0.7,2-0.2c0.6,0.5,0.7,1.4,0.2,2c-0.6,0.8-1.3,1.5-1.9,2.3
		C156.8,150.6,156.4,150.8,156,150.8z M164.3,139.4c-0.3,0-0.5-0.1-0.7-0.2c-0.7-0.4-0.9-1.3-0.5-2c1.8-3.1,3.5-6.4,4.8-9.8
		c0.3-0.7,1.2-1.1,1.9-0.8c0.7,0.3,1.1,1.1,0.8,1.9c-1.4,3.5-3.1,6.9-5,10.2C165.2,139.2,164.8,139.4,164.3,139.4z M34.5,138.8
		c-0.5,0-1-0.3-1.3-0.7c-0.5-0.9-1-1.7-1.4-2.6c-0.4-0.7-0.1-1.6,0.6-2c0.7-0.4,1.6-0.1,2,0.6c0.4,0.8,0.9,1.7,1.4,2.5
		c0.4,0.7,0.2,1.6-0.5,2C35,138.8,34.8,138.8,34.5,138.8z M28.7,126.1c-0.6,0-1.2-0.4-1.4-1c-1.2-3.6-2.2-7.3-2.9-11
		c-0.1-0.8,0.4-1.5,1.2-1.7c0.8-0.1,1.5,0.4,1.7,1.2c0.7,3.6,1.6,7.1,2.8,10.6c0.3,0.8-0.1,1.6-0.9,1.8
		C29,126.1,28.8,126.1,28.7,126.1z M172.6,118.8c-0.1,0-0.2,0-0.3,0c-0.8-0.2-1.3-1-1.1-1.7c0.2-0.9,0.4-1.8,0.6-2.8
		c0.2-0.8,0.9-1.3,1.7-1.1c0.8,0.2,1.3,0.9,1.1,1.7c-0.2,1-0.4,1.9-0.6,2.9C173.8,118.4,173.2,118.8,172.6,118.8z M174.5,104.9
		C174.5,104.9,174.5,104.9,174.5,104.9c-0.9,0-1.5-0.7-1.4-1.5c0.1-1.2,0.1-2.3,0.1-3.5c0-2.5-0.1-5-0.4-7.4
		c-0.1-0.8,0.5-1.5,1.3-1.6c0.8-0.1,1.5,0.5,1.6,1.3c0.3,2.5,0.4,5.1,0.4,7.7c0,1.2,0,2.4-0.1,3.6
		C176,104.3,175.3,104.9,174.5,104.9z M24.5,104.2c-0.8,0-1.4-0.6-1.4-1.4c0-1-0.1-2-0.1-3c0-0.8,0.6-1.5,1.5-1.5
		c0.8,0,1.5,0.6,1.5,1.5c0,1,0,1.9,0.1,2.8C26,103.5,25.4,104.2,24.5,104.2C24.6,104.2,24.6,104.2,24.5,104.2z M25.1,91.3
		c-0.1,0-0.1,0-0.2,0c-0.8-0.1-1.4-0.8-1.2-1.6c0.5-3.8,1.3-7.5,2.3-11.1c0.2-0.8,1-1.2,1.8-1c0.8,0.2,1.2,1,1,1.8
		c-1,3.5-1.8,7.1-2.2,10.7C26.5,90.8,25.9,91.3,25.1,91.3z M172.3,82.8c-0.6,0-1.2-0.4-1.4-1.1c-0.2-0.9-0.5-1.8-0.8-2.7
		c-0.2-0.8,0.2-1.6,1-1.8c0.8-0.2,1.6,0.2,1.8,1c0.3,0.9,0.5,1.9,0.8,2.9c0.2,0.8-0.3,1.6-1,1.8C172.6,82.8,172.4,82.8,172.3,82.8z
		 M31.3,70c-0.2,0-0.4,0-0.6-0.1c-0.7-0.3-1-1.2-0.7-1.9c0.4-0.9,0.8-1.8,1.3-2.7c0.4-0.7,1.2-1,2-0.6c0.7,0.4,1,1.2,0.6,2
		c-0.4,0.8-0.8,1.7-1.2,2.6C32.4,69.6,31.9,70,31.3,70z M167.6,69.6c-0.5,0-1.1-0.3-1.3-0.8c-1.5-3.3-3.3-6.5-5.4-9.5
		c-0.4-0.7-0.3-1.6,0.4-2c0.7-0.4,1.6-0.3,2,0.4c2.1,3.2,4,6.5,5.6,9.9c0.3,0.7,0,1.6-0.7,1.9C168,69.5,167.8,69.6,167.6,69.6z
		 M38.4,57.8c-0.3,0-0.6-0.1-0.8-0.3c-0.7-0.5-0.8-1.4-0.3-2c2.2-3.1,4.6-6,7.3-8.7c0.6-0.6,1.5-0.6,2.1,0c0.6,0.6,0.6,1.5,0,2.1
		c-2.5,2.6-4.9,5.4-7,8.4C39.3,57.6,38.8,57.8,38.4,57.8z M155.3,51c-0.4,0-0.8-0.2-1.1-0.5c-0.6-0.7-1.3-1.4-1.9-2.1
		c-0.6-0.6-0.5-1.5,0-2.1c0.6-0.6,1.5-0.5,2.1,0c0.7,0.7,1.4,1.4,2,2.2c0.5,0.6,0.5,1.5-0.1,2C156,50.9,155.6,51,155.3,51z
		 M53.8,41.8c-0.4,0-0.9-0.2-1.2-0.6c-0.5-0.6-0.4-1.5,0.3-2c0.8-0.6,1.6-1.2,2.4-1.8c0.7-0.5,1.6-0.3,2,0.3c0.5,0.7,0.3,1.6-0.3,2
		c-0.8,0.6-1.5,1.1-2.3,1.7C54.4,41.7,54.1,41.8,53.8,41.8z M144.9,41.5c-0.3,0-0.6-0.1-0.9-0.3c-2.9-2.2-6-4.2-9.2-6
		c-0.7-0.4-1-1.3-0.6-2c0.4-0.7,1.3-1,2-0.6c3.3,1.8,6.5,3.9,9.5,6.2c0.6,0.5,0.8,1.4,0.3,2C145.8,41.3,145.4,41.5,144.9,41.5z
		 M65.7,34.3c-0.5,0-1-0.3-1.3-0.8c-0.4-0.7-0.1-1.6,0.6-2c3.4-1.7,6.9-3.2,10.5-4.4c0.8-0.3,1.6,0.2,1.8,0.9
		c0.3,0.8-0.2,1.6-0.9,1.8c-3.5,1.1-6.9,2.6-10.1,4.2C66.1,34.3,65.9,34.3,65.7,34.3z M125.5,30.9c-0.2,0-0.3,0-0.5-0.1
		c-0.9-0.3-1.8-0.6-2.7-0.9c-0.8-0.2-1.2-1.1-0.9-1.8c0.2-0.8,1.1-1.2,1.8-0.9c0.9,0.3,1.9,0.6,2.8,1c0.8,0.3,1.1,1.1,0.9,1.9
		C126.6,30.5,126.1,30.9,125.5,30.9z M86.8,27.3c-0.7,0-1.3-0.5-1.4-1.2c-0.1-0.8,0.4-1.5,1.2-1.7c1-0.2,1.9-0.3,2.9-0.4
		c0.8-0.1,1.5,0.5,1.6,1.3c0.1,0.8-0.5,1.5-1.3,1.6C88.9,27,88,27.2,87,27.3C87,27.3,86.9,27.3,86.8,27.3z M111.9,27.3
		c-0.1,0-0.2,0-0.2,0c-3.6-0.6-7.2-0.9-10.9-1c-0.8,0-1.4-0.7-1.4-1.5c0-0.8,0.6-1.5,1.5-1.4c3.8,0.1,7.6,0.4,11.3,1
		c0.8,0.1,1.3,0.9,1.2,1.7C113.2,26.8,112.6,27.3,111.9,27.3z"/>
</g>
</svg>
