<?xml version="1.0" encoding="UTF-8" standalone="no"?>
<svg width="200px" height="200px" viewBox="0 0 200 200" version="1.1" xmlns="http://www.w3.org/2000/svg" xmlns:xlink="http://www.w3.org/1999/xlink">
    <!-- Generator: Sketch 3.7.1 (28215) - http://www.bohemiancoding.com/sketch -->
    <title>Artboard 3</title>
    <desc>Created with Sketch.</desc>
    <defs>
        <filter x="-50%" y="-50%" width="200%" height="200%" filterUnits="objectBoundingBox" id="filter-1">
            <feOffset dx="0" dy="2" in="SourceAlpha" result="shadowOffsetOuter1"></feOffset>
            <feGaussianBlur stdDeviation="2" in="shadowOffsetOuter1" result="shadowBlurOuter1"></feGaussianBlur>
            <feColorMatrix values="0 0 0 0 0   0 0 0 0 0   0 0 0 0 0  0 0 0 0.5 0" type="matrix" in="shadowBlurOuter1" result="shadowMatrixOuter1"></feColorMatrix>
            <feMerge>
                <feMergeNode in="shadowMatrixOuter1"></feMergeNode>
                <feMergeNode in="SourceGraphic"></feMergeNode>
            </feMerge>
        </filter>
    </defs>
    <g id="Page-1" stroke="none" stroke-width="1" fill="none" fill-rule="evenodd">
        <g id="Artboard-3" fill="#26262E">
            <g id="Group" transform="translate(11.000000, 22.000000)">
                <path d="M81.5,0 C36.4887185,0 0,36.4887185 0,81.5 C0,126.511281 36.4887185,163 81.5,163 C126.511281,163 163,126.511281 163,81.5 C163,55.3265976 150.571171,31.2162651 129.927776,15.941542 C127.971935,14.4943513 125.213233,14.9066938 123.766042,16.8625348 C122.318851,18.8183758 122.731194,21.5770781 124.687035,23.0242688 C143.108376,36.6548217 154.189189,58.1501762 154.189189,81.5 C154.189189,121.645205 121.645205,154.189189 81.5,154.189189 C41.354795,154.189189 8.81081081,121.645205 8.81081081,81.5 C8.81081081,41.354795 41.354795,8.81081081 81.5,8.81081081 C83.9330382,8.81081081 85.9054054,6.83844363 85.9054054,4.40540541 C85.9054054,1.97236718 83.9330382,0 81.5,0 L81.5,0 Z" id="Stroke-4"></path>
                <path d="M37.9135797,90.5414338 C42.5722959,86.5259068 47.8984311,82.508177 54.8545662,77.6688392 C55.922877,76.9265284 56.5638635,75.7018257 56.5330257,74.4022311 C56.3502014,66.6839608 55.6167014,40.3396365 55.0153635,38.9805689 C54.3193095,37.4188527 51.8897284,37.0708257 47.5504041,37.9408932 C43.208877,38.9805689 40.0832419,40.5466905 38.3497149,42.6282446 C37.0302959,43.7978797 36.0853365,47.44115 35.8210122,53.55365 C35.6976608,56.3973392 38.682323,58.4943122 41.2374581,57.2409743 C41.2572824,57.2321635 41.2793095,57.22115 41.2991338,57.2101365 C42.6890392,56.5162851 44.0767419,55.8202311 45.2926338,55.1263797 C47.0283635,54.6065419 48.4182689,55.8202311 49.4579446,59.2916905 C50.499823,62.5891365 50.3258095,64.6728932 49.1099176,65.1949338 C48.0702419,65.8887851 46.85435,66.7544473 45.6406608,67.4505014 C41.660377,69.20165 38.7021473,71.8294743 36.7659716,75.1996095 C36.4091338,75.8207716 36.2615527,76.5322446 36.2923905,77.2503257 C36.4774176,81.7152041 37.5941878,90.06565 37.9135797,90.5414338 M89.5779716,68.5870959 C89.5669581,68.4042716 89.5361203,68.2192446 89.4986743,68.038623 C89.1902959,66.6090689 89.0184851,65.4900959 88.6924851,64.6728932 C87.4765932,66.9284608 85.7408635,69.0144203 83.3112824,70.9241635 C79.3640392,74.2370284 74.4145662,77.6952716 68.5906203,81.5566095 C67.4936743,82.2857041 66.8262554,83.5170149 66.8526878,84.8320284 C66.9804446,91.1736095 67.4253905,109.652082 67.6676878,119.59288 C67.7381743,122.529082 64.6411743,124.467461 62.0309716,123.126015 L58.6762554,121.401299 C57.3876743,120.738285 56.5770797,119.410055 56.5770797,117.960677 L56.5770797,94.0745689 C56.5770797,90.5039878 52.1628635,88.8277311 49.8081743,91.5128257 C42.0524581,100.356677 29.6644581,114.398907 23.8228905,120.555461 C22.2281338,122.236123 19.5452419,122.141407 18.0496068,120.374839 C16.1266473,118.106055 14.2587554,115.462812 13.0032149,114.321812 C10.9194581,112.762299 10.3996203,111.546407 11.787323,110.850353 C14.3997284,109.87015 19.9835797,105.724664 26.8405932,99.8963122 C27.6952419,99.171623 28.1930527,98.112123 28.1952554,96.9909473 C28.2216878,87.7351905 27.8075797,49.0447176 28.0102284,38.4805554 C28.0388635,36.9584878 28.9529851,35.6148392 30.3561068,35.0245149 C37.1294176,32.1742176 55.6277149,25.0969338 57.6409851,24.7995689 C58.8899176,24.6145419 62.6631473,24.8612446 65.0729041,25.3348257 C66.2932014,25.5749203 67.1742824,26.6322176 67.1742824,27.8767446 L67.1742824,59.17715 C67.1742824,63.2587581 72.6171608,64.63765 74.5555392,61.0472446 C82.6769041,46.0071905 94.3776608,22.8545824 97.7191608,10.68465 C98.0671878,8.95112297 98.5870257,7.21539324 99.2830797,5.47525811 C99.9747284,3.91354189 102.752336,4.08755541 108.133539,5.82328514 C113.168918,7.90704189 113.530161,8.95773108 111.953026,11.3785014 C109.739309,14.7794743 100.571661,31.7909473 94.9944176,42.4322041 C93.3666203,45.5336095 96.3689041,49.0248932 99.6795662,47.8750824 C102.895512,46.7539068 106.587242,45.4807446 110.737134,44.0159473 C115.598499,42.2802176 123.585499,39.676623 134.693728,35.8549338 C136.081431,34.8152581 137.819364,37.4188527 139.557296,43.3220959 C140.566134,46.8640419 140.398728,49.1658662 139.121161,50.1262446 C138.268715,50.7694338 117.142593,55.0757176 104.74358,59.280677 C103.197282,59.8049203 102.164215,61.2498932 102.139985,62.8820959 L102.043066,69.179623 C102.003418,71.6576635 104.269999,73.5321635 106.695174,73.0211365 C114.083039,71.4682311 127.834512,68.5760824 134.867742,66.9284608 C136.925066,66.4460689 138.167391,68.4945824 138.685026,72.1378527 C138.861242,76.12915 138.513215,78.2151095 137.125512,78.5609338 C130.596701,79.6732986 111.783418,84.2527176 104.525512,86.0391095 C102.809607,86.4598257 101.613539,87.9818932 101.602526,89.7484608 C101.589309,92.0128392 101.571688,95.1825284 101.558472,97.867623 C101.545255,100.317028 103.787607,102.165096 106.18635,101.673893 C118.127201,99.2222851 136.832553,96.3719878 142.854742,95.9182311 C147.755755,95.5503797 149.969472,101.187096 149.969472,108.418569 C149.969472,112.081664 150.042161,112.024393 146.572904,111.306312 C140.385512,110.022136 133.132012,109.634461 124.799188,110.156501 C117.332026,110.689555 108.944134,111.995758 104.274404,112.846001 C102.468188,113.174204 101.142161,114.718299 101.098107,116.555353 C100.820566,128.366245 100.767701,156.289907 101.710458,157.549853 C102.406512,159.109366 101.538647,159.977231 99.1068635,160.325258 C95.9812284,160.847299 93.3776338,160.847299 90.6000257,160.499272 C88.8951338,160.499272 88.3532689,160.032299 89.1660662,159.102758 C89.7321608,158.452961 90.1066203,157.65338 90.1727014,156.794326 C91.0802149,145.126609 89.9215932,74.9022446 89.5779716,68.5870959" id="Fill-1"></path>
            </g>
            <g id="Group-5-Copy" filter="url(#filter-1)" transform="translate(3.000000, 4.000000)">
                <path d="M150.995154,36.181713 C149.857701,31.10692 147.012823,25.4827051 142.46052,24.21462 C137.908217,22.946535 137.908217,21.6759971 142.46052,20.407912 C147.012823,19.139827 149.857701,15.9683879 150.995154,10.8935948 C152.132608,5.81880173 153.27255,5.81880173 154.410004,10.8935948 C155.547457,15.9683879 158.392335,19.139827 162.944638,20.407912 C167.496941,21.6759971 167.496941,22.946535 162.944638,24.21462 C158.392335,25.4827051 155.547457,31.10692 154.410004,36.181713 C153.27255,41.2565061 152.132608,41.2565061 150.995154,36.181713" id="Fill-24-Copy-4"></path>
                <path d="M14.3462117,185.019213 C13.2087583,179.94442 10.36388,174.320205 5.81157708,173.05212 C1.25927413,171.784035 1.25927413,170.513497 5.81157708,169.245412 C10.36388,167.977327 13.2087583,164.805888 14.3462117,159.731095 C15.4836652,154.656302 16.6236077,154.656302 17.7610612,159.731095 C18.8985147,164.805888 21.7433929,167.977327 26.2956959,169.245412 C30.8479988,170.513497 30.8479988,171.784035 26.2956959,173.05212 C21.7433929,174.320205 18.8985147,179.94442 17.7610612,185.019213 C16.6236077,190.094006 15.4836652,190.094006 14.3462117,185.019213" id="Fill-24-Copy-5"></path>
                <path d="M178.160049,16.5375 C179.902319,16.5375 181.313558,17.8987906 181.313558,19.578942 C181.313558,21.2590934 179.902319,22.6203839 178.160049,22.6203839 C176.417779,22.6203839 175.00654,21.2590934 175.00654,19.578942 C175.00654,17.8987906 176.417779,16.5375 178.160049,16.5375" id="Fill-26-Copy-6"></path>
                <path d="M3.15350893,148.8375 C4.89577906,148.8375 6.30701786,150.198791 6.30701786,151.878942 C6.30701786,153.559093 4.89577906,154.920384 3.15350893,154.920384 C1.4112388,154.920384 0,153.559093 0,151.878942 C0,150.198791 1.4112388,148.8375 3.15350893,148.8375" id="Fill-26-Copy-7"></path>
                <path d="M180.557399,70.875 C182.299669,70.875 183.710908,72.2362906 183.710908,73.916442 C183.710908,75.5965934 182.299669,76.9578839 180.557399,76.9578839 C178.815129,76.9578839 177.40389,75.5965934 177.40389,73.916442 C177.40389,72.2362906 178.815129,70.875 180.557399,70.875" id="Fill-26-Copy-8"></path>
                <path d="M143.265075,0 C145.594739,0 147.483858,1.81995963 147.483858,4.06424946 C147.483858,6.30853929 145.594739,8.12604614 143.265075,8.12604614 C140.935411,8.12604614 139.046292,6.30853929 139.046292,4.06424946 C139.046292,1.81995963 140.935411,0 143.265075,0" id="Fill-28-Copy-2"></path>
            </g>
        </g>
    </g>
</svg>