<?xml version="1.0" encoding="UTF-8" standalone="no"?>
<svg width="200px" height="200px" viewBox="0 0 200 200" version="1.1" xmlns="http://www.w3.org/2000/svg" xmlns:xlink="http://www.w3.org/1999/xlink">
    <!-- Generator: Sketch 3.7.1 (28215) - http://www.bohemiancoding.com/sketch -->
    <title>Artboard 4</title>
    <desc>Created with Sketch.</desc>
    <defs>
        <filter x="-50%" y="-50%" width="200%" height="200%" filterUnits="objectBoundingBox" id="filter-1">
            <feOffset dx="0" dy="2" in="SourceAlpha" result="shadowOffsetOuter1"></feOffset>
            <feGaussianBlur stdDeviation="2" in="shadowOffsetOuter1" result="shadowBlurOuter1"></feGaussianBlur>
            <feColorMatrix values="0 0 0 0 0   0 0 0 0 0   0 0 0 0 0  0 0 0 0.5 0" type="matrix" in="shadowBlurOuter1" result="shadowMatrixOuter1"></feColorMatrix>
            <feMerge>
                <feMergeNode in="shadowMatrixOuter1"></feMergeNode>
                <feMergeNode in="SourceGraphic"></feMergeNode>
            </feMerge>
        </filter>
    </defs>
    <g id="Page-1" stroke="none" stroke-width="1" fill="none" fill-rule="evenodd">
        <g id="Artboard-4">
            <g id="Group-7" transform="translate(9.000000, 28.000000)">
                <g id="Group-7-Copy-2" transform="translate(0.589399, 0.900000)" fill="#26262E">
                    <g id="Group-3">
                        <path d="M161.445881,78.7852219 C161.445881,122.1346 125.30622,157.274047 80.7229403,157.274047 C36.1396604,157.274047 0,122.1346 0,78.7852219 C0,35.4358439 36.1396604,0.296397058 80.7229403,0.296397058 C125.30622,0.296397058 161.445881,35.4358439 161.445881,78.7852219" id="Fill-3"></path>
                    </g>
                </g>
                <g id="Page-1" transform="translate(5.230582, 5.027273)" fill="#FFFFFF">
                    <path d="M56.3648763,75.7512098 C54.8730439,73.612192 52.6590093,69.3724291 53.4674445,67.2461689 C54.0085572,65.8237008 82.9505378,62.8873355 85.8738395,65.0539946 C86.542146,65.7131353 84.81964,69.1789395 84.1513336,70.9926394 C83.3148726,72.9700614 81.3077974,73.7950504 78.2982626,73.7950504 C76.0066183,73.7950504 64.7855375,76.2168608 59.1933217,77.1460365 C57.2767913,77.4649756 56.5050051,76.1190528 56.3648763,75.7512098 M40.8623227,93.8967146 C40.5281695,92.5784332 57.7122684,92.1638125 86.8439618,83.6736554 C87.4863983,83.4865445 90.8581121,85.6510774 97.0453362,89.1147553 C102.896251,92.9080035 102.889784,92.9080035 100.723178,95.7125408 C99.3908763,97.4348116 75.9764367,132.65206 72.1304409,136.9386 C71.4621345,137.436145 70.7916722,138.259008 70.1233657,139.083997 C69.1209061,139.908986 67.4479842,139.908986 64.9407571,138.920275 C62.2653755,138.09316 60.7606081,137.270297 60.4264549,136.611156 C60.0923016,135.949889 60.2583003,135.290749 61.26076,134.46576 C63.2678351,132.817908 66.6115232,127.706378 71.2939799,118.963196 C75.8082822,110.553837 77.981356,104.946889 77.981356,102.142352 C76.9788964,99.6695111 75.8082822,98.1853814 74.6398238,97.5262408 C73.801207,96.8671001 72.8742013,97.169029 71.1279812,97.8558111 C69.3149305,98.5681083 61.5517967,100.800681 47.8860078,105.442308 C45.4520789,106.116332 43.8718575,105.112737 42.8693979,101.317363 C41.5306291,97.6899628 40.8623227,95.3808442 40.8623227,93.8967146 M59.0876861,24.1404954 C65.839737,11.0597425 68.7867529,3.52427632 69.1209061,1.87642465 C68.7867529,-0.596415992 71.2939799,-0.596415992 76.4787444,1.71057635 C81.6613531,4.34926528 83.6684283,6.32881355 82.3296595,7.15167626 C80.1565857,8.63793215 78.1495105,11.7699135 76.1424354,16.2244286 C75.4741289,17.2131396 74.8058225,18.3676989 74.3035148,19.5222582 C84.2116967,36.2155272 113.597778,62.5641439 122.960535,67.8415218 C128.981761,70.9756294 137.00575,74.7667513 147.373123,78.8916962 C152.557888,81.6941071 155.231113,83.3419588 155.231113,84.3327961 C155.231113,85.3215071 153.8945,86.146496 151.387273,86.4760664 C139.681131,88.2897663 125.269426,86.301713 118.084054,84.3817001 C109.227916,79.4509026 68.3124709,30.191832 68.3124709,30.191832 C58.1154081,48.4415235 33.9981688,87.7773376 29.1475575,90.5691173 C19.2824921,97.6601951 11.435281,99.505789 4.07744262,99.505789 C-0.270860913,99.8353594 -0.270860913,98.1853814 4.07744262,94.3942594 C25.1053815,78.5642521 48.1015906,45.430739 59.0876861,24.1404954" id="Fill-1"></path>
                </g>
            </g>
            <g id="Group-5-Copy" filter="url(#filter-1)" transform="translate(0.000000, 10.000000)" fill="#26262E">
                <path d="M150.995154,36.181713 C149.857701,31.10692 147.012823,25.4827051 142.46052,24.21462 C137.908217,22.946535 137.908217,21.6759971 142.46052,20.407912 C147.012823,19.139827 149.857701,15.9683879 150.995154,10.8935948 C152.132608,5.81880173 153.27255,5.81880173 154.410004,10.8935948 C155.547457,15.9683879 158.392335,19.139827 162.944638,20.407912 C167.496941,21.6759971 167.496941,22.946535 162.944638,24.21462 C158.392335,25.4827051 155.547457,31.10692 154.410004,36.181713 C153.27255,41.2565061 152.132608,41.2565061 150.995154,36.181713" id="Fill-24-Copy-4"></path>
                <path d="M14.3462117,185.019213 C13.2087583,179.94442 10.36388,174.320205 5.81157708,173.05212 C1.25927413,171.784035 1.25927413,170.513497 5.81157708,169.245412 C10.36388,167.977327 13.2087583,164.805888 14.3462117,159.731095 C15.4836652,154.656302 16.6236077,154.656302 17.7610612,159.731095 C18.8985147,164.805888 21.7433929,167.977327 26.2956959,169.245412 C30.8479988,170.513497 30.8479988,171.784035 26.2956959,173.05212 C21.7433929,174.320205 18.8985147,179.94442 17.7610612,185.019213 C16.6236077,190.094006 15.4836652,190.094006 14.3462117,185.019213" id="Fill-24-Copy-5"></path>
                <path d="M178.160049,16.5375 C179.902319,16.5375 181.313558,17.8987906 181.313558,19.578942 C181.313558,21.2590934 179.902319,22.6203839 178.160049,22.6203839 C176.417779,22.6203839 175.00654,21.2590934 175.00654,19.578942 C175.00654,17.8987906 176.417779,16.5375 178.160049,16.5375" id="Fill-26-Copy-6"></path>
                <path d="M3.15350893,148.8375 C4.89577906,148.8375 6.30701786,150.198791 6.30701786,151.878942 C6.30701786,153.559093 4.89577906,154.920384 3.15350893,154.920384 C1.4112388,154.920384 0,153.559093 0,151.878942 C0,150.198791 1.4112388,148.8375 3.15350893,148.8375" id="Fill-26-Copy-7"></path>
                <path d="M180.557399,70.875 C182.299669,70.875 183.710908,72.2362906 183.710908,73.916442 C183.710908,75.5965934 182.299669,76.9578839 180.557399,76.9578839 C178.815129,76.9578839 177.40389,75.5965934 177.40389,73.916442 C177.40389,72.2362906 178.815129,70.875 180.557399,70.875" id="Fill-26-Copy-8"></path>
                <path d="M143.265075,0 C145.594739,0 147.483858,1.81995963 147.483858,4.06424946 C147.483858,6.30853929 145.594739,8.12604614 143.265075,8.12604614 C140.935411,8.12604614 139.046292,6.30853929 139.046292,4.06424946 C139.046292,1.81995963 140.935411,0 143.265075,0" id="Fill-28-Copy-2"></path>
            </g>
        </g>
    </g>
</svg>