<?xml version="1.0" encoding="UTF-8" standalone="no"?>
<svg width="200px" height="200px" viewBox="0 0 200 200" version="1.1" xmlns="http://www.w3.org/2000/svg" xmlns:xlink="http://www.w3.org/1999/xlink">
    <!-- Generator: Sketch 3.7.1 (28215) - http://www.bohemiancoding.com/sketch -->
    <title>Artboard 5</title>
    <desc>Created with Sketch.</desc>
    <defs>
        <filter x="-50%" y="-50%" width="200%" height="200%" filterUnits="objectBoundingBox" id="filter-1">
            <feOffset dx="0" dy="2" in="SourceAlpha" result="shadowOffsetOuter1"></feOffset>
            <feGaussianBlur stdDeviation="2" in="shadowOffsetOuter1" result="shadowBlurOuter1"></feGaussianBlur>
            <feColorMatrix values="0 0 0 0 0   0 0 0 0 0   0 0 0 0 0  0 0 0 0.5 0" type="matrix" in="shadowBlurOuter1" result="shadowMatrixOuter1"></feColorMatrix>
            <feMerge>
                <feMergeNode in="shadowMatrixOuter1"></feMergeNode>
                <feMergeNode in="SourceGraphic"></feMergeNode>
            </feMerge>
        </filter>
    </defs>
    <g id="Page-1" stroke="none" stroke-width="1" fill="none" fill-rule="evenodd">
        <g id="Artboard-5" fill="#26262E">
            <g id="Group-3" transform="translate(10.000000, 21.000000)">
                <path d="M79.3847284,106.513088 C83.3383596,93.5061931 82.8581971,72.7805594 82.5278101,28.5155107 C82.5278101,26.7068078 84.1533142,25.6119513 87.2765727,25.2418898 C89.7214365,24.9550374 117.669974,20.4967817 125.566224,21.6047765 C133.462473,22.7105815 131.101307,31.1387869 130.27534,36.0590721 C129.077136,43.1953468 128.484642,54.432954 128.876702,67.6807178 C129.209291,90.226003 129.870065,111.455271 131.193816,131.53056 C130.533042,142.724373 128.409755,145.306044 127.748981,146.293605 C126.755617,147.445394 116.969554,152.838657 111.504953,150.535079 C111.504953,150.535079 115.709678,145.001674 117.291131,131.037874 C118.870381,117.074074 116.793348,68.9967353 117.621518,53.5286026 C118.180973,40.4384981 118.610476,32.4438559 116.599521,29.7592677 C116.233892,29.2709617 109.853018,29.4330005 102.88846,31.8044597 C96.3445946,34.0335875 93.12222,35.754702 92.7896305,36.7422625 C91.4658799,38.5531552 91.0826309,43.1603114 90.9702994,50.7301493 C90.9482736,52.181929 93.7785889,51.9979932 95.9371173,51.5512917 C99.3995731,50.8352555 103.38404,50.0710457 107.192301,49.0834851 C108.846439,48.7550282 109.839802,49.9090069 110.172392,52.7030807 C110.502779,55.6679522 110.004996,57.1481982 109.011632,57.4788448 C105.703357,58.3021769 102.06029,59.2875478 98.089038,60.6035653 C95.2741407,61.5911259 92.9570265,62.9093331 91.1332903,64.5538076 C90.8051059,69.4916105 91.014351,78.1650637 91.2698502,78.1387872 C92.1508823,78.0424398 103.38404,75.0863272 108.350858,73.439663 C109.674609,73.1133958 110.667973,74.4294133 111.330949,77.0614484 C111.663539,80.0241301 111.330949,81.6664148 110.502779,81.9992512 C106.198938,83.1488506 101.320223,83.9261987 96.4326978,86.4421789 C94.42835,87.4713441 92.844695,87.6574697 92.3711403,91.5507794 C90.2368402,109.044397 85.9660375,122.329386 81.4948001,128.090521 C76.6953782,134.180112 66.8013888,138.77413 57.3655359,141.406165 C55.2136153,141.901041 55.0484218,141.075519 56.5395684,138.938359 C56.5395684,138.938359 72.8694967,127.954758 79.3847284,106.513088 M56.7047619,72.9491673 C55.7113983,53.692831 55.0484218,43.3245399 54.3854452,41.8442939 C53.7246712,40.5282764 51.737944,40.0355909 48.2622727,40.1976297 C44.2910209,40.5282764 41.6391146,41.6800654 40.1523731,43.1603114 C38.1634433,44.8069756 37.0070888,50.7301493 36.6744992,61.1006302 C37.6678628,61.4268974 38.663429,61.4268974 39.9871796,60.934212 C42.1391002,60.2751084 44.7866014,59.6160047 47.5992961,58.6306339 C48.7578532,58.3021769 49.9186129,59.6160047 50.5815895,62.4166477 C50.9097739,65.2129112 50.5815895,66.8573857 49.5860233,67.1858426 C47.4341026,67.8449463 44.9517949,68.8346966 42.6346807,69.8200674 C40.1523731,70.6433995 38.1634433,71.7951886 36.6744992,73.1133958 C36.6744992,78.3774659 36.8396927,84.3028293 37.3396784,91.0471454 C37.0070888,92.0368957 37.0070888,92.8580381 37.3396784,93.3529132 C41.4761237,90.7186885 46.7733286,87.9202352 52.7335102,84.3028293 C54.3854452,82.9846221 55.5462048,81.832833 56.8699554,81.0095009 C56.8699554,78.3774659 56.7047619,75.9096593 56.7047619,72.9491673 M26.7452685,93.514952 C27.0734529,73.2754346 27.571236,55.9964091 28.23201,41.8442939 C27.901623,39.3742976 28.5645996,37.7298231 30.2209397,37.0707195 C32.8684409,36.0853486 57.737772,29.1702349 60.6473802,29.551245 C61.5151967,29.6629204 64.125254,30.0833453 66.0833477,30.4030434 C67.3806673,30.6132558 68.2749148,31.7803728 68.1295445,33.076683 C66.8057939,44.9624452 68.3453974,110.001301 66.999621,119.417067 C66.8718713,120.321419 62.5063577,120.393679 58.0659564,117.853612 C56.9096019,117.190129 56.2047763,115.948562 56.2642459,114.621596 C56.4911117,109.596204 57.0351489,96.7885729 57.0351489,89.2406322 C37.0070888,104.049661 20.0978819,118.10105 18.7212694,120.358644 C16.646439,123.761458 17.4547859,119.642608 12.9835485,115.363908 C8.5145136,111.411476 11.8470172,106.517468 16.4812455,105.20145 C17.1420195,104.872993 20.2895064,103.228519 26.0800893,99.7709621 C26.4126789,97.9600694 26.5778724,95.9849483 26.7452685,93.514952" id="Fill-1"></path>
                <g id="Group-2">
                    <g id="Group">
                        <path d="M106.39212,3.9812254 C98.4085068,1.43837969 90.0367883,0.128728078 81.4959014,0.128728078 C36.4871268,0.128728078 0.000440516004,36.4022669 0.000440516004,81.1481098 C0.000440516004,125.893953 36.4871268,162.167491 81.4959014,162.167491 C126.504676,162.167491 162.991362,125.893953 162.991362,81.1481098 C162.991362,64.9130112 158.172716,49.3785484 149.285986,36.1655426 C147.933685,34.1549089 145.19791,33.6148206 143.175461,34.9592217 C141.153013,36.3036227 140.609751,39.0234159 141.962052,41.0340496 C149.887141,52.8172638 154.181042,66.6600416 154.181042,81.1481098 C154.181042,121.056572 121.638871,153.408639 81.4959014,153.408639 C41.3529322,153.408639 8.81076061,121.056572 8.81076061,81.1481098 C8.81076061,41.2396473 41.3529322,8.88758015 81.4959014,8.88758015 C89.1212699,8.88758015 96.5863483,10.0553992 103.704059,12.3224478 C106.020959,13.0603991 108.50092,11.7913807 109.243208,9.48801577 C109.985495,7.18465082 108.70902,4.7191768 106.39212,3.9812254 L106.39212,3.9812254 Z" id="Stroke-3"></path>
                    </g>
                </g>
            </g>
            <g id="Group-5-Copy" filter="url(#filter-1)" transform="translate(2.000000, 8.000000)">
                <path d="M150.995154,36.181713 C149.857701,31.10692 147.012823,25.4827051 142.46052,24.21462 C137.908217,22.946535 137.908217,21.6759971 142.46052,20.407912 C147.012823,19.139827 149.857701,15.9683879 150.995154,10.8935948 C152.132608,5.81880173 153.27255,5.81880173 154.410004,10.8935948 C155.547457,15.9683879 158.392335,19.139827 162.944638,20.407912 C167.496941,21.6759971 167.496941,22.946535 162.944638,24.21462 C158.392335,25.4827051 155.547457,31.10692 154.410004,36.181713 C153.27255,41.2565061 152.132608,41.2565061 150.995154,36.181713" id="Fill-24-Copy-4"></path>
                <path d="M14.3462117,185.019213 C13.2087583,179.94442 10.36388,174.320205 5.81157708,173.05212 C1.25927413,171.784035 1.25927413,170.513497 5.81157708,169.245412 C10.36388,167.977327 13.2087583,164.805888 14.3462117,159.731095 C15.4836652,154.656302 16.6236077,154.656302 17.7610612,159.731095 C18.8985147,164.805888 21.7433929,167.977327 26.2956959,169.245412 C30.8479988,170.513497 30.8479988,171.784035 26.2956959,173.05212 C21.7433929,174.320205 18.8985147,179.94442 17.7610612,185.019213 C16.6236077,190.094006 15.4836652,190.094006 14.3462117,185.019213" id="Fill-24-Copy-5"></path>
                <path d="M178.160049,16.5375 C179.902319,16.5375 181.313558,17.8987906 181.313558,19.578942 C181.313558,21.2590934 179.902319,22.6203839 178.160049,22.6203839 C176.417779,22.6203839 175.00654,21.2590934 175.00654,19.578942 C175.00654,17.8987906 176.417779,16.5375 178.160049,16.5375" id="Fill-26-Copy-6"></path>
                <path d="M3.15350893,148.8375 C4.89577906,148.8375 6.30701786,150.198791 6.30701786,151.878942 C6.30701786,153.559093 4.89577906,154.920384 3.15350893,154.920384 C1.4112388,154.920384 0,153.559093 0,151.878942 C0,150.198791 1.4112388,148.8375 3.15350893,148.8375" id="Fill-26-Copy-7"></path>
                <path d="M180.557399,70.875 C182.299669,70.875 183.710908,72.2362906 183.710908,73.916442 C183.710908,75.5965934 182.299669,76.9578839 180.557399,76.9578839 C178.815129,76.9578839 177.40389,75.5965934 177.40389,73.916442 C177.40389,72.2362906 178.815129,70.875 180.557399,70.875" id="Fill-26-Copy-8"></path>
                <path d="M143.265075,0 C145.594739,0 147.483858,1.81995963 147.483858,4.06424946 C147.483858,6.30853929 145.594739,8.12604614 143.265075,8.12604614 C140.935411,8.12604614 139.046292,6.30853929 139.046292,4.06424946 C139.046292,1.81995963 140.935411,0 143.265075,0" id="Fill-28-Copy-2"></path>
            </g>
        </g>
    </g>
</svg>