<?xml version="1.0" encoding="UTF-8" standalone="no"?>
<svg width="200px" height="200px" viewBox="0 0 200 200" version="1.1" xmlns="http://www.w3.org/2000/svg" xmlns:xlink="http://www.w3.org/1999/xlink">
    <!-- Generator: Sketch 3.7.1 (28215) - http://www.bohemiancoding.com/sketch -->
    <title>Artboard 3</title>
    <desc>Created with Sketch.</desc>
    <defs></defs>
    <g id="Page-1" stroke="none" stroke-width="1" fill="none" fill-rule="evenodd">
        <g id="Artboard-3" fill="#26262E">
            <g id="Group" transform="translate(1.000000, 1.000000)">
                <path d="M98,0 C43.8760051,0 0,43.8760051 0,98 C0,152.123995 43.8760051,196 98,196 C152.123995,196 196,152.123995 196,98 C196,66.5276879 181.054905,37.5361224 156.232172,19.1689707 C153.880364,17.4287905 150.563151,17.9246134 148.822971,20.2764223 C147.08279,22.6282311 147.578613,25.9454436 149.930422,27.6856239 C172.081238,44.0757366 185.405405,69.9229113 185.405405,98 C185.405405,146.272762 146.272762,185.405405 98,185.405405 C49.7272381,185.405405 10.5945946,146.272762 10.5945946,98 C10.5945946,49.7272381 49.7272381,10.5945946 98,10.5945946 C100.925617,10.5945946 103.297297,8.22291381 103.297297,5.2972973 C103.297297,2.37168078 100.925617,0 98,0 L98,0 Z" id="Stroke-4"></path>
                <path d="M45.5893351,108.871908 C51.191227,104.043422 57.5956595,99.2122865 65.9600919,93.3932054 C67.2446865,92.5006108 68.0154432,91.0279622 67.9783622,89.4652595 C67.7585243,80.1843946 66.8765243,48.5065568 66.1534432,46.8723405 C65.3164703,44.9944486 62.3950108,44.5759622 57.177173,45.6221784 C51.9566865,46.8723405 48.1982541,48.7555297 46.1137676,51.2585027 C44.527227,52.6649351 43.3909568,57.0458 43.0731189,64.3958 C42.9247946,67.8152054 46.5137135,70.3367189 49.5861459,68.8296378 C49.6099838,68.8190432 49.6364703,68.8058 49.6603081,68.7925568 C51.3316054,67.9582324 53.0002541,67.1212595 54.4623081,66.2869351 C56.5494432,65.6618541 58.2207405,67.1212595 59.4709027,71.2955297 C60.7237135,75.2605568 60.5144703,77.7661784 59.0524162,78.3939081 C57.8022541,79.2282324 56.3402,80.2691514 54.8807946,81.1061243 C50.0946865,83.2118 46.5375514,86.3716378 44.2093892,90.4240703 C43.7803081,91.1709892 43.6028486,92.0265027 43.6399297,92.8899622 C43.8624162,98.258773 45.2052811,108.2998 45.5893351,108.871908 M107.713389,82.472827 C107.700146,82.2529892 107.663065,82.0305027 107.618038,81.8133135 C107.247227,80.0943405 107.040632,78.748827 106.648632,77.7661784 C105.186578,80.4783946 103.099443,82.9866649 100.177984,85.2830432 C95.4316054,89.2666108 89.4800919,93.4249892 82.4770649,98.0680703 C81.1580378,98.944773 80.3554973,100.425368 80.3872811,102.006611 C80.5409027,109.63207 81.0759297,131.851584 81.3672811,143.804935 C81.4520378,147.335584 77.7280378,149.666395 74.5893892,148.053368 L70.5554973,145.979476 C69.0060378,145.182232 68.0313351,143.585097 68.0313351,141.842286 L68.0313351,113.120341 C68.0313351,108.826881 62.7234432,106.811259 59.8920378,110.039962 C50.5661459,120.674286 35.6701459,137.559422 28.6459297,144.962395 C26.7283081,146.983314 23.5022541,146.869422 21.7038216,144.745205 C19.3915514,142.017097 17.1454973,138.838719 15.6357676,137.466719 C13.1301459,135.591476 12.5050649,134.129422 14.1737135,133.292449 C17.3150108,132.1138 24.0293351,127.129043 32.2745784,120.120719 C33.3022541,119.249314 33.9008486,117.975314 33.9034973,116.627151 C33.9352811,105.49753 33.4373351,58.9740162 33.6810108,46.2710973 C33.7154432,44.4408811 34.8146324,42.8252054 36.5018216,42.1153676 C44.6464162,38.6880162 66.8897676,30.1779081 69.3106324,29.8203405 C70.8124162,29.5978541 75.3495514,29.8945027 78.247173,30.4639622 C79.7145243,30.7526649 80.7739838,32.0240162 80.7739838,33.5205027 L80.7739838,71.1578 C80.7739838,76.0657459 87.3187946,77.7238 89.6496054,73.4065027 C99.415173,55.3215297 113.484795,27.4815838 117.502795,12.8478 C117.921281,10.7633135 118.546362,8.67617838 119.383335,6.58374595 C120.215011,4.70585405 123.554957,4.9150973 130.025605,7.00223243 C136.080416,9.50785405 136.514795,10.7712595 134.618362,13.6821243 C131.95647,17.7716378 120.932795,38.2271514 114.226416,51.022773 C112.269065,54.7520703 115.879173,58.9501784 119.860092,57.5675838 C123.727119,56.2194216 128.166254,54.6885027 133.156308,52.9271514 C139.001876,50.8400162 148.605876,47.7093135 161.963011,43.1139081 C163.631659,41.8637459 165.721443,44.9944486 167.811227,52.092827 C169.024308,56.3518541 168.823011,59.1196919 167.286795,60.2745027 C166.261768,61.0479081 140.858578,66.2260162 125.949335,71.2822865 C124.089984,71.9126649 122.847768,73.6501784 122.818632,75.612827 L122.702092,83.1853135 C122.654416,86.1650432 125.379876,88.4190432 128.296038,87.8045568 C137.179605,85.9372595 153.715119,82.4595838 162.172254,80.4783946 C164.646092,79.8983405 166.13993,82.3615838 166.762362,86.7424486 C166.974254,91.5418 166.555768,94.0500703 164.887119,94.4659081 C157.036524,95.8034757 134.414416,101.310016 125.687119,103.45807 C123.623822,103.963962 122.185605,105.794178 122.172362,107.918395 C122.15647,110.641205 122.135281,114.452611 122.119389,117.681314 C122.103497,120.626611 124.799822,122.848827 127.6842,122.258178 C142.042524,119.310232 164.534849,115.882881 171.776254,115.337259 C177.669497,114.894935 180.331389,121.672827 180.331389,130.368341 C180.331389,134.773043 180.418795,134.704178 176.247173,133.840719 C168.807119,132.296557 160.085119,131.830395 150.065281,132.458124 C141.086362,133.099097 131.000308,134.669746 125.385173,135.692124 C123.213281,136.086773 121.618795,137.943476 121.565822,140.152449 C121.232092,154.354503 121.168524,187.931422 122.302146,189.446449 C123.139119,191.321692 122.095551,192.365259 119.171443,192.783746 C115.413011,193.411476 112.282308,193.411476 108.942362,192.992989 C106.892308,192.992989 106.240741,192.431476 107.218092,191.313746 C107.898795,190.532395 108.349065,189.570935 108.428524,188.537962 C109.519768,174.50807 108.126578,90.0665027 107.713389,82.472827" id="Fill-1"></path>
            </g>
        </g>
    </g>
</svg>