<?xml version="1.0" encoding="UTF-8" standalone="no"?>
<svg width="196px" height="195px" viewBox="0 0 196 195" version="1.1" xmlns="http://www.w3.org/2000/svg" xmlns:xlink="http://www.w3.org/1999/xlink">
    <!-- Generator: Sketch 3.7.1 (28215) - http://www.bohemiancoding.com/sketch -->
    <title>Group 3</title>
    <desc>Created with Sketch.</desc>
    <defs></defs>
    <g id="Page-1" stroke="none" stroke-width="1" fill="none" fill-rule="evenodd">
        <g id="Artboard-5" transform="translate(-2.000000, -2.000000)" fill="#26262E">
            <g id="Group-3" transform="translate(2.000000, 2.000000)">
                <path d="M95.4564833,128.077088 C100.210543,112.436895 99.6331696,87.5152739 99.2358944,34.2885896 C99.2358944,32.1137075 101.190488,30.7971929 104.946063,30.352211 C107.885899,30.0072842 141.49273,24.6464368 150.987607,25.9787496 C160.482483,27.3084293 157.64329,37.4429585 156.650102,43.359375 C155.209317,51.940417 154.496871,65.4531226 154.968304,81.382949 C155.368227,108.492617 156.162778,134.019835 157.754527,158.159446 C156.959977,171.619491 154.406821,174.723832 153.612271,175.911329 C152.417797,177.296302 140.650507,183.781453 134.079575,181.011506 C134.079575,181.011506 139.135564,174.357841 141.037188,157.567014 C142.936163,140.776188 140.438627,82.9653995 141.434463,64.3656816 C142.107182,48.6254333 142.62364,39.0122439 140.205558,35.7841502 C139.765907,35.1969847 132.093199,35.3918288 123.718639,38.2433994 C115.849942,40.9238231 111.975185,42.993384 111.575261,44.1808801 C109.983512,46.3583952 109.522673,51.8982886 109.387599,61.0006703 C109.361114,62.7463687 112.764438,62.5251942 115.359969,61.9880563 C119.523413,61.1270557 124.314552,60.2081286 128.89381,59.0206324 C130.882834,58.625678 132.077308,60.0132844 132.477232,63.3730296 C132.874507,66.9381511 132.275946,68.7180788 131.081472,69.1156662 C127.103423,70.1056851 122.722802,71.2905483 117.947555,72.8729988 C114.56277,74.0604949 111.776547,75.6455785 109.583588,77.6229834 C109.188962,83.5604641 109.440569,93.9898926 109.747795,93.9582962 C110.807196,93.8424429 124.314552,90.2878536 130.286922,88.3078157 C131.878671,87.9154943 133.073145,89.4979448 133.870344,92.6628459 C134.270267,96.2253343 133.870344,98.2001062 132.874507,98.6003266 C127.699336,99.9826669 121.832906,100.917392 115.955882,103.942743 C113.545746,105.180266 111.641474,105.404074 111.072046,110.0856 C108.505648,131.12087 103.370205,147.095458 97.9937474,154.022957 C92.2226634,161.345411 80.3255963,166.869506 68.9794175,170.034407 C66.3918318,170.629472 66.1931943,169.63682 67.9862295,167.066984 C67.9862295,167.066984 87.6222169,153.859709 95.4564833,128.077088 M68.1848671,87.7180171 C66.9903931,64.5631588 66.1931943,52.0957657 65.3959954,50.315838 C64.6014451,48.7333875 62.2124971,48.140956 58.0331623,48.3358001 C53.2579147,48.7333875 50.0691194,50.1183609 48.2813811,51.8982886 C45.8897846,53.8783265 44.4993215,61.0006703 44.0993978,73.4706964 C45.2938718,73.8630177 46.4909943,73.8630177 48.0827435,73.2705862 C50.6703291,72.4780444 53.8538275,71.6855026 57.2359634,70.5006395 C58.629075,70.1056851 60.0248351,71.6855026 60.822034,75.0531469 C61.2166606,78.4155251 60.822034,80.39293 59.6249115,80.7878844 C57.0373258,81.5804262 54.0524651,82.7705554 51.2662419,83.9554185 C48.2813811,84.9454374 45.8897846,86.3304108 44.0993978,87.9154943 C44.0993978,94.2452964 44.2980354,101.370273 44.8992452,109.480003 C44.4993215,110.670132 44.4993215,111.657518 44.8992452,112.252583 C49.8731303,109.085049 56.2427755,105.720037 63.4096196,101.370273 C65.3959954,99.7851897 66.7917555,98.4002164 68.3835047,97.4101974 C68.3835047,94.2452964 68.1848671,91.2778726 68.1848671,87.7180171 M32.1599547,112.447427 C32.5545814,88.1103385 33.1531426,67.3331054 33.947693,50.315838 C33.5504178,47.3457812 34.3476166,45.3683763 36.3392895,44.5758345 C39.5227879,43.3909714 69.4270141,35.0758653 72.9256841,35.5340124 C73.9691936,35.6682969 77.1076674,36.1738385 79.4621849,36.5582607 C81.0221521,36.8110315 82.0974436,38.2144361 81.9226425,39.7731893 C80.3308933,54.0652716 82.1821956,132.271503 80.5639614,143.593529 C80.4103483,144.68097 75.1610191,144.76786 69.8216408,141.713546 C68.4311777,140.915738 67.5836574,139.422811 67.6551669,137.827195 C67.9279625,131.784393 68.5821423,116.383806 68.5821423,107.307754 C44.4993215,125.11493 24.1667783,142.011078 22.5114651,144.725731 C20.016577,148.817459 20.9885769,143.864731 15.6121196,138.719792 C10.2383108,133.967174 14.245493,128.082354 19.8179394,126.499904 C20.6124898,126.104949 24.3971979,124.127544 31.3601074,119.969991 C31.760031,117.792476 31.9586686,115.417484 32.1599547,112.447427" id="Fill-1"></path>
                <g id="Group-2">
                    <g id="Group">
                        <path d="M127.931629,4.78724036 C118.331701,1.72958539 108.265095,0.15478959 97.9950716,0.15478959 C43.8740911,0.15478959 0.000529700226,43.772051 0.000529700226,97.5768682 C0.000529700226,151.381685 43.8740911,194.998947 97.9950716,194.998947 C152.116052,194.998947 195.989614,151.381685 195.989614,97.5768682 C195.989614,78.0549092 190.195413,59.3754324 179.509529,43.4874009 C177.883449,41.0697064 174.593806,40.420275 172.161904,42.0368555 C169.730003,43.6534359 169.076756,46.923862 170.702835,49.3415566 C180.23239,63.5103295 185.395609,80.1556328 185.395609,97.5768682 C185.395609,145.564958 146.265145,184.46683 97.9950716,184.46683 C49.7249983,184.46683 10.5945342,145.564958 10.5945342,97.5768682 C10.5945342,49.5887784 49.7249983,10.6869062 97.9950716,10.6869062 C107.164226,10.6869062 116.14064,12.0911548 124.699359,14.8171764 C127.485324,15.704529 130.467364,14.1785928 131.359931,11.4089024 C132.252498,8.63921203 130.717595,5.67459296 127.931629,4.78724036 L127.931629,4.78724036 Z" id="Stroke-3"></path>
                    </g>
                </g>
            </g>
        </g>
    </g>
</svg>