<?xml version="1.0" encoding="utf-8"?>
<!-- Generator: Adobe Illustrator 19.0.0, SVG Export Plug-In . SVG Version: 6.00 Build 0)  -->
<svg version="1.1" id="图层_1" xmlns="http://www.w3.org/2000/svg" xmlns:xlink="http://www.w3.org/1999/xlink" x="0px" y="0px"
	 viewBox="0 0 200 200" style="enable-background:new 0 0 200 200;" xml:space="preserve">
<style type="text/css">
	.st0{fill:#1E1231;}
</style>
<g id="XMLID_42_">
	<g id="XMLID_48_">
		<path id="XMLID_44_" class="st0" d="M49.6,180.1c-12.5,0-22.6-10.3-22.6-23c0-0.7,0-1.4,0.1-2.1l-8.2,0.2h-0.1
			c-8.2,0-14.9-6.8-14.9-15.1V97.7c0-2.3,0.5-4.7,1.6-6.7L26,48.8c2.5-5.2,7.7-8.4,13.4-8.4h26.9c2.6,0,4.7,2.1,4.7,4.7
			s-2.1,4.7-4.7,4.7H39.4c-2.1,0-4,1.2-5,3.2L13.7,95.1c-0.4,0.8-0.6,1.7-0.6,2.6v42.4c0,3.2,2.5,5.8,5.5,5.8l14.2-0.4
			c1.5,0,3,0.7,3.9,2s1.1,2.9,0.5,4.4c-0.7,1.7-1,3.4-1,5.2c0,7.5,6,13.7,13.3,13.7s13.3-6.1,13.3-13.7c0-1.8-0.3-3.5-1-5.2
			c-0.6-1.4-0.4-3.1,0.5-4.3c0.9-1.3,2.3-2,3.9-2l0,0H127c1.5,0,3,0.8,3.8,2c0.9,1.3,1.1,2.9,0.5,4.3c-0.6,1.6-0.9,3.3-0.9,5.1
			c0,7.5,6,13.7,13.3,13.7S157,164.6,157,157c0-1.7-0.3-3.4-0.9-5.1c-0.6-1.4-0.3-3.1,0.5-4.3s2.4-2,3.9-2l14.3,0.3
			c6.7,0,12.1-5.6,12.1-12.6V41.8c0-6.9-5.5-12.6-12.2-12.6h-64c-6.7,0-12.2,5.6-12.2,12.6v61.8c0,2.6-2.1,4.7-4.7,4.7
			s-4.7-2.1-4.7-4.7V41.8c0-12.1,9.7-21.9,21.5-21.9h64c11.9,0,21.5,9.8,21.5,21.9v91.4c0,12.1-9.7,21.9-21.5,21.9l-8.5-0.2
			c0.1,0.7,0.1,1.3,0.1,2c0,12.7-10.1,23-22.6,23s-22.6-10.3-22.6-23c0-0.7,0-1.4,0.1-2.1H72c0.1,0.8,0.1,1.5,0.1,2.3
			C72.2,169.7,62,180.1,49.6,180.1z"/>
	</g>
	<g id="XMLID_47_">
		<path id="XMLID_43_" class="st0" d="M61.2,108.3L61.2,108.3H37.9c-2.6,0-4.6-2.1-4.6-4.7S35.4,99,38,99l0,0h23.3V75.7
			c0-2.6,2.1-4.7,4.7-4.7s4.7,2.1,4.7,4.7V99c0,2.5-1,4.8-2.7,6.5C66,107.4,63.7,108.3,61.2,108.3z"/>
	</g>
</g>
</svg>
