<?xml version="1.0" encoding="UTF-8" standalone="no"?>
<svg width="200px" height="200px" viewBox="0 0 200 200" version="1.1" xmlns="http://www.w3.org/2000/svg" xmlns:xlink="http://www.w3.org/1999/xlink">
    <!-- Generator: Sketch 3.7 (28169) - http://www.bohemiancoding.com/sketch -->
    <title>待收货</title>
    <desc>Created with Sketch.</desc>
    <defs></defs>
    <g id="侧边栏" stroke="none" stroke-width="1" fill="none" fill-rule="evenodd">
        <g id="待收货" fill="#26262E">
            <g id="Group" transform="translate(3.000000, 19.000000)">
                <path d="M46.5181259,161.755733 C33.9860583,161.755733 23.7882578,151.346832 23.7882578,138.555397 C23.7882578,137.845806 23.821003,137.145614 23.8818156,136.445421 L15.5925942,136.694483 L15.5879164,136.694483 C7.18642567,136.694483 0.459619657,129.842935 0.459619657,121.421829 L0.459619657,78.5879084 C0.459619657,76.23357 1.00225491,73.8792317 2.02671285,71.7880529 L22.8386461,29.1374043 C25.3880962,23.9071077 30.5337753,20.6599065 36.2641908,20.6599065 L63.2883621,20.6599065 C65.8705574,20.6599065 67.9662522,22.7604838 67.9662522,25.3591847 C67.9662522,27.9531862 65.8705574,30.0584628 63.2883621,30.0584628 L36.2641908,30.0584628 C34.1310729,30.0584628 32.2037821,31.2896737 31.2354589,33.2727691 L10.4282035,75.9281169 C10.025905,76.7457913 9.81539993,77.6621506 9.81539993,78.5879084 L9.81539993,121.421829 C9.81539993,124.659631 12.3461385,127.295927 15.4522575,127.295927 L29.6590099,126.872991 C31.314983,126.854194 32.7277058,127.577883 33.6305386,128.870185 C34.5286935,130.167185 34.7251649,131.835429 34.1404286,133.306303 C33.4808461,134.979246 33.144038,136.741476 33.144038,138.555397 C33.144038,146.163528 39.1457711,152.357177 46.5181259,152.357177 C53.8904808,152.357177 59.8922138,146.163528 59.8922138,138.555397 C59.8922138,136.732077 59.5554057,134.965148 58.8958232,133.311003 C58.311087,131.863625 58.4888468,130.223577 59.3589344,128.926576 C60.2290219,127.634275 61.6791679,126.858894 63.2322274,126.858894 L124.35354,126.868292 C125.897244,126.868292 127.338034,127.634275 128.208121,128.912478 C129.082887,130.190682 129.270002,131.816632 128.713334,133.26401 C128.086496,134.899359 127.7684,136.619294 127.7684,138.390922 C127.7684,145.999054 133.765455,152.192702 141.142488,152.192702 C148.514842,152.192702 154.516576,145.999054 154.516576,138.390922 C154.516576,136.638091 154.198479,134.908757 153.562286,133.240513 C153.010295,131.783737 153.216122,130.143689 154.109599,128.865485 C154.998398,127.587282 156.350308,126.915285 158.020315,126.868292 L172.432895,127.126752 C179.126956,127.126752 184.63751,121.431227 184.63751,114.429303 L184.63751,22.0931863 C184.63751,15.0959612 179.126956,9.40043603 172.348693,9.40043603 L107.934146,9.40043603 C101.155883,9.40043603 95.6359724,15.0959612 95.6359724,22.0931863 L95.6359724,84.5371945 C95.6359724,87.1358954 93.5449555,89.2364727 90.9580822,89.2364727 C88.3758869,89.2364727 86.2801921,87.1358954 86.2801921,84.5371945 L86.2801921,22.0931863 C86.2801921,9.90795807 95.9961699,0.00187971126 107.934146,0.00187971126 L172.348693,0.00187971126 C184.286668,0.00187971126 193.99329,9.90795807 193.99329,22.0931863 L193.99329,114.429303 C193.99329,126.614531 184.286668,136.525309 172.348693,136.525309 L163.788154,136.374932 C163.844288,137.042229 163.872356,137.714226 163.872356,138.390922 C163.872356,151.182357 153.674555,161.591259 141.142488,161.591259 C128.605742,161.591259 118.412619,151.182357 118.412619,138.390922 C118.412619,137.676632 118.440687,136.97174 118.506177,136.266849 L69.1357247,136.25745 C69.210571,137.018733 69.2479941,137.780016 69.2479941,138.555397 C69.2479941,151.346832 59.0501936,161.755733 46.5181259,161.755733" id="Fill-1"></path>
                <path d="M58.2357729,89.2909843 L58.2170614,89.2909843 L34.771476,89.2674879 C32.1892807,89.2674879 30.0982638,87.157512 30.0982638,84.5635105 C30.1029417,81.9695089 32.1986364,79.8689316 34.7761539,79.8689316 L34.7808318,79.8689316 L58.231095,79.892428 L58.188994,56.3725408 C58.188994,53.77384 60.2800109,51.6732626 62.8668842,51.6732626 C65.4490795,51.6732626 67.5447743,53.77384 67.5447743,56.3725408 L67.5447743,79.9347215 C67.5447743,82.4300382 66.5717732,84.7796773 64.8035307,86.5513052 C63.044644,88.3182337 60.7103768,89.2909843 58.2357729,89.2909843" id="Fill-4"></path>
            </g>
        </g>
    </g>
</svg>