<?xml version="1.0" encoding="utf-8"?>
<!-- Generator: Adobe Illustrator 19.0.0, SVG Export Plug-In . SVG Version: 6.00 Build 0)  -->
<svg version="1.1" id="图层_1" xmlns="http://www.w3.org/2000/svg" xmlns:xlink="http://www.w3.org/1999/xlink" x="0px" y="0px"
	 viewBox="0 0 200 200" style="enable-background:new 0 0 200 200;" xml:space="preserve">
<style type="text/css">
	.st0{fill:#26262E;}
	.st1{fill-rule:evenodd;clip-rule:evenodd;fill:#26262E;}
</style>
<g>
	<path id="XMLID_29_" class="st0" d="M99.7,189.7c-49.6,0-90-40.4-90-90s40.4-90,90-90s90,40.4,90,90S149.3,189.7,99.7,189.7z
		 M99.7,15.5c-46.4,0-84.2,37.8-84.2,84.2s37.8,84.2,84.2,84.2s84.2-37.8,84.2-84.2S146.1,15.5,99.7,15.5z"/>
</g>
<g>
	<path id="XMLID_2_" class="st0" d="M104.9,176c-0.8,0-1.4-0.6-1.4-1.4c-0.1-0.8,0.6-1.5,1.3-1.5c3.6-0.2,7.3-0.8,10.8-1.6
		c0.8-0.2,1.6,0.3,1.7,1.1c0.2,0.8-0.3,1.6-1.1,1.7c-3.7,0.8-7.5,1.4-11.2,1.6C105,176,104.9,176,104.9,176z M93.8,176
		c0,0-0.1,0-0.1,0c-1-0.1-2-0.2-2.9-0.3c-0.8-0.1-1.4-0.8-1.3-1.6c0.1-0.8,0.8-1.3,1.6-1.3c0.9,0.1,1.9,0.2,2.8,0.3
		c0.8,0.1,1.4,0.8,1.3,1.6C95.1,175.4,94.5,176,93.8,176z M79.9,173.6c-0.1,0-0.3,0-0.4-0.1c-3.6-1-7.2-2.3-10.7-3.8
		c-0.7-0.3-1.1-1.2-0.7-1.9c0.3-0.7,1.2-1.1,1.9-0.7c3.3,1.5,6.8,2.7,10.3,3.6c0.8,0.2,1.2,1,1,1.8
		C81.1,173.1,80.6,173.6,79.9,173.6z M126.6,171.2c-0.6,0-1.1-0.4-1.4-0.9c-0.3-0.7,0.1-1.6,0.8-1.9c0.9-0.3,1.8-0.7,2.6-1.1
		c0.7-0.3,1.6,0,1.9,0.8c0.3,0.7,0,1.6-0.8,1.9c-0.9,0.4-1.8,0.8-2.7,1.1C127,171.2,126.8,171.2,126.6,171.2z M139.2,164.9
		c-0.5,0-1-0.2-1.2-0.7c-0.4-0.7-0.2-1.6,0.5-2c3.1-1.9,6.1-4.1,8.8-6.4c0.6-0.5,1.5-0.4,2,0.2c0.5,0.6,0.4,1.5-0.2,2
		c-2.9,2.5-6,4.7-9.2,6.7C139.7,164.9,139.5,164.9,139.2,164.9z M59.6,164.6c-0.3,0-0.5-0.1-0.8-0.2c-0.8-0.5-1.7-1.1-2.5-1.6
		c-0.7-0.5-0.8-1.4-0.4-2c0.5-0.7,1.4-0.8,2-0.4c0.8,0.5,1.6,1.1,2.4,1.6c0.7,0.4,0.9,1.3,0.5,2C60.5,164.4,60.1,164.6,59.6,164.6z
		 M48.5,156c-0.4,0-0.7-0.1-1-0.4c-2.8-2.6-5.4-5.4-7.7-8.3c-0.5-0.6-0.4-1.5,0.2-2c0.6-0.5,1.5-0.4,2,0.2c2.3,2.9,4.8,5.6,7.4,8
		c0.6,0.5,0.6,1.5,0.1,2.1C49.3,155.9,48.9,156,48.5,156z M156.2,150.6c-0.3,0-0.7-0.1-1-0.4c-0.6-0.5-0.7-1.4-0.1-2
		c0.6-0.7,1.2-1.4,1.8-2.2c0.5-0.6,1.4-0.7,2-0.2c0.6,0.5,0.7,1.4,0.2,2c-0.6,0.8-1.3,1.5-1.9,2.3
		C157,150.4,156.6,150.6,156.2,150.6z M164.4,139.2c-0.3,0-0.5-0.1-0.7-0.2c-0.7-0.4-0.9-1.3-0.5-2c1.8-3.1,3.5-6.4,4.8-9.8
		c0.3-0.7,1.2-1.1,1.9-0.8c0.7,0.3,1.1,1.1,0.8,1.9c-1.4,3.5-3.1,6.9-5,10.2C165.4,138.9,164.9,139.2,164.4,139.2z M34.6,138.6
		c-0.5,0-1-0.3-1.3-0.7c-0.5-0.9-1-1.7-1.4-2.6c-0.4-0.7-0.1-1.6,0.6-2c0.7-0.4,1.6-0.1,2,0.6c0.4,0.8,0.9,1.7,1.4,2.5
		c0.4,0.7,0.2,1.6-0.5,2C35.1,138.6,34.9,138.6,34.6,138.6z M28.8,125.9c-0.6,0-1.2-0.4-1.4-1c-1.2-3.6-2.2-7.3-2.9-11
		c-0.1-0.8,0.4-1.5,1.2-1.7c0.8-0.1,1.5,0.4,1.7,1.2c0.7,3.6,1.6,7.1,2.8,10.6c0.3,0.8-0.1,1.6-0.9,1.8
		C29.1,125.8,28.9,125.9,28.8,125.9z M172.7,118.6c-0.1,0-0.2,0-0.3,0c-0.8-0.2-1.3-1-1.1-1.7c0.2-0.9,0.4-1.8,0.6-2.8
		c0.2-0.8,0.9-1.3,1.7-1.1c0.8,0.2,1.3,0.9,1.1,1.7c-0.2,1-0.4,1.9-0.6,2.9C173.9,118.1,173.4,118.6,172.7,118.6z M174.7,104.7
		C174.6,104.7,174.6,104.7,174.7,104.7c-0.9,0-1.5-0.7-1.4-1.5c0.1-1.2,0.1-2.3,0.1-3.5c0-2.5-0.1-5-0.4-7.4
		c-0.1-0.8,0.5-1.5,1.3-1.6c0.8-0.1,1.5,0.5,1.6,1.3c0.3,2.5,0.4,5.1,0.4,7.7c0,1.2,0,2.4-0.1,3.6
		C176.1,104.1,175.4,104.7,174.7,104.7z M24.6,104c-0.8,0-1.4-0.6-1.4-1.4c0-1-0.1-2-0.1-3c0-0.8,0.6-1.5,1.5-1.5
		c0.8,0,1.5,0.6,1.5,1.5c0,1,0,1.9,0.1,2.8C26.1,103.3,25.5,104,24.6,104C24.7,104,24.7,104,24.6,104z M25.3,91.1
		c-0.1,0-0.1,0-0.2,0c-0.8-0.1-1.4-0.8-1.2-1.6c0.5-3.8,1.3-7.5,2.3-11.1c0.2-0.8,1-1.2,1.8-1c0.8,0.2,1.2,1,1,1.8
		c-1,3.5-1.8,7.1-2.2,10.7C26.6,90.6,26,91.1,25.3,91.1z M172.4,82.6c-0.6,0-1.2-0.4-1.4-1.1c-0.2-0.9-0.5-1.8-0.8-2.7
		c-0.2-0.8,0.2-1.6,1-1.8c0.8-0.2,1.6,0.2,1.8,1c0.3,0.9,0.5,1.9,0.8,2.9c0.2,0.8-0.3,1.6-1,1.8C172.7,82.6,172.5,82.6,172.4,82.6z
		 M31.4,69.7c-0.2,0-0.4,0-0.6-0.1c-0.7-0.3-1-1.2-0.7-1.9c0.4-0.9,0.8-1.8,1.3-2.7c0.4-0.7,1.2-1,2-0.6c0.7,0.4,1,1.2,0.6,2
		c-0.4,0.8-0.8,1.7-1.2,2.6C32.5,69.4,32,69.7,31.4,69.7z M167.7,69.3c-0.5,0-1.1-0.3-1.3-0.8c-1.5-3.3-3.3-6.5-5.4-9.5
		c-0.4-0.7-0.3-1.6,0.4-2c0.7-0.4,1.6-0.3,2,0.4c2.1,3.2,4,6.5,5.6,9.9c0.3,0.7,0,1.6-0.7,1.9C168.1,69.3,167.9,69.3,167.7,69.3z
		 M38.5,57.6c-0.3,0-0.6-0.1-0.8-0.3c-0.7-0.5-0.8-1.4-0.3-2c2.2-3.1,4.6-6,7.3-8.7c0.6-0.6,1.5-0.6,2.1,0c0.6,0.6,0.6,1.5,0,2.1
		c-2.5,2.6-4.9,5.5-7,8.4C39.4,57.4,38.9,57.6,38.5,57.6z M155.4,50.8c-0.4,0-0.8-0.2-1.1-0.5c-0.6-0.7-1.3-1.4-1.9-2.1
		c-0.6-0.6-0.5-1.5,0-2.1c0.6-0.6,1.5-0.5,2.1,0c0.7,0.7,1.4,1.4,2,2.2c0.5,0.6,0.5,1.5-0.1,2C156.1,50.7,155.7,50.8,155.4,50.8z
		 M53.9,41.6c-0.4,0-0.9-0.2-1.2-0.6c-0.5-0.6-0.4-1.5,0.3-2c0.8-0.6,1.6-1.2,2.4-1.8c0.7-0.5,1.6-0.3,2,0.3c0.5,0.7,0.3,1.6-0.3,2
		c-0.8,0.6-1.5,1.1-2.3,1.7C54.5,41.5,54.2,41.6,53.9,41.6z M145.1,41.3c-0.3,0-0.6-0.1-0.9-0.3c-2.9-2.2-6-4.2-9.2-6
		c-0.7-0.4-1-1.3-0.6-2c0.4-0.7,1.3-1,2-0.6c3.3,1.8,6.5,3.9,9.5,6.2c0.6,0.5,0.8,1.4,0.3,2C145.9,41.1,145.5,41.3,145.1,41.3z
		 M65.8,34.1c-0.5,0-1-0.3-1.3-0.8c-0.4-0.7-0.1-1.6,0.6-2c3.4-1.7,6.9-3.2,10.5-4.4c0.8-0.3,1.6,0.2,1.8,0.9
		c0.3,0.8-0.2,1.6-0.9,1.8c-3.5,1.1-6.9,2.6-10.1,4.2C66.2,34.1,66,34.1,65.8,34.1z M125.6,30.6c-0.2,0-0.3,0-0.5-0.1
		c-0.9-0.3-1.8-0.6-2.7-0.9c-0.8-0.2-1.2-1.1-0.9-1.8c0.2-0.8,1.1-1.2,1.8-0.9c0.9,0.3,1.9,0.6,2.8,1c0.8,0.3,1.1,1.1,0.9,1.9
		C126.7,30.3,126.2,30.6,125.6,30.6z M86.9,27.1c-0.7,0-1.3-0.5-1.4-1.2c-0.1-0.8,0.4-1.5,1.2-1.7c1-0.2,1.9-0.3,2.9-0.4
		c0.8-0.1,1.5,0.5,1.6,1.3c0.1,0.8-0.5,1.5-1.3,1.6c-0.9,0.1-1.9,0.3-2.8,0.4C87.1,27.1,87,27.1,86.9,27.1z M112,27.1
		c-0.1,0-0.2,0-0.2,0c-3.6-0.6-7.2-0.9-10.9-1c-0.8,0-1.4-0.7-1.4-1.5c0-0.8,0.6-1.5,1.5-1.4c3.8,0.1,7.6,0.4,11.3,1
		c0.8,0.1,1.3,0.9,1.2,1.7C113.3,26.6,112.7,27.1,112,27.1z"/>
</g>
<path class="st1" d="M63.7,114.1c-6.2,0-12,4.5-13,10.1l-0.3,1.7h-4.5c-4.7,0-4.7-4.2-4.7-5.6v-15c0-1.2,0.4-2.4,1.2-3.3l0,0
	l17.3-23.1c1-1.2,2.5-1.9,4.1-1.9h16.1c2.9,0,5.3,2.4,5.3,5.3v30.3c0,0.9-0.7,1.7-1.6,1.7C79.4,114.1,68.5,114.1,63.7,114.1
	 M81,102.3V82.2c0-0.6-0.5-1.2-1.2-1.2H63.8c-0.3,0.2-0.6,0.3-0.9,0.4c0,0-12.3,15.8-16.3,20.9c-0.5,0.7-0.1,1.6,0.8,1.6l32,0
	C80.3,103.9,81,103.2,81,102.3"/>
<path id="XMLID_36_" class="st1" d="M55.5,127.4c0,4.5,3.7,8.2,8.2,8.2c4.5,0,8.2-3.7,8.2-8.2s-3.7-8.2-8.2-8.2
	C59.2,119.2,55.5,122.9,55.5,127.4"/>
<path id="XMLID_35_" class="st1" d="M118.8,127.4c0,4.5,3.7,8.2,8.2,8.2s8.2-3.7,8.2-8.2s-3.7-8.2-8.2-8.2S118.8,122.9,118.8,127.4"
	/>
<path id="XMLID_34_" class="st1" d="M138.8,69.5H93.2c-2.3,0-4.2,1.9-4.2,4.2v43.4L138.8,69.5z"/>
<path id="XMLID_33_" class="st1" d="M106.5,123.8h8.1c1.2-5.5,6.1-9.6,12-9.6c5.9,0,10.8,4.1,12,9.6h9.5c2.3,0,4.2-1.9,4.2-4.2V80.1
	L106.5,123.8z"/>
<path id="XMLID_32_" class="st1" d="M93.2,123.8h4.7L152,72.2c-0.6-1.6-2.1-2.7-3.9-2.7h-0.6l-56.4,53.8
	C91.7,123.6,92.4,123.8,93.2,123.8"/>
</svg>
