<?xml version="1.0" encoding="utf-8"?>
<!-- Generator: Adobe Illustrator 19.0.0, SVG Export Plug-In . SVG Version: 6.00 Build 0)  -->
<svg version="1.1" id="图层_1" xmlns="http://www.w3.org/2000/svg" xmlns:xlink="http://www.w3.org/1999/xlink" x="0px" y="0px"
	 viewBox="0 0 200 200" style="enable-background:new 0 0 200 200;" xml:space="preserve">
<style type="text/css">
	.st0{fill:#1E1231;}
</style>
<path id="XMLID_21_" class="st0" d="M180.6,75H175V54.9c0-13.8-9.2-22.8-23.5-22.8H39.3c-17.9,0-28.6,11.6-28.6,22.8v85.7
	c0,13.7,14.2,27.2,28.6,27.2h112.2c14.7,0,23.5-13.8,23.5-27.2V125h5.6c4.8,0,8.7-4,8.7-8.9V83.9C189.3,79,185.4,75,180.6,75z
	 M167.9,140.6c0,9.9-6.1,20.1-16.3,20.1H39.3c-10.4,0-21.4-10.3-21.4-20.1V54.9c0-9.6,11.1-15.6,21.4-15.6h112.2
	c10.4,0,16.3,5.7,16.3,15.6V75h-33.2c-13.2,0-24,11.2-24,25s10.8,25,24,25h33.2L167.9,140.6L167.9,140.6z M182.1,116.1
	c0,1-0.7,1.8-1.5,1.8h-45.9c-9.3,0-16.8-8-16.8-17.9s7.6-17.9,16.8-17.9h45.9c0.8,0,1.5,0.8,1.5,1.8V116.1z"/>
</svg>
