<?xml version="1.0" encoding="UTF-8" standalone="no"?>
<svg width="200px" height="200px" viewBox="0 0 200 200" version="1.1" xmlns="http://www.w3.org/2000/svg" xmlns:xlink="http://www.w3.org/1999/xlink">
    <!-- Generator: Sketch 3.7 (28169) - http://www.bohemiancoding.com/sketch -->
    <title>钱包空</title>
    <desc>Created with Sketch.</desc>
    <defs></defs>
    <g id="nothing页面" stroke="none" stroke-width="1" fill="none" fill-rule="evenodd">
        <g id="钱包空" fill="#26262E">
            <g id="Group" transform="translate(14.000000, 5.000000)">
                <path d="M158.231707,103.48337 L158.231707,83.6304026 C158.231707,70.2778559 149.753932,62.3012128 135.628835,62.3012128 L27.4078415,62.3012128 C12.3769647,62.3012128 0,70.6958405 0,83.6304026 L0,162.311555 C0,175.762214 13.3800715,189.015544 27.4078415,189.015544 L135.628835,189.015544 C149.241102,189.015544 158.231707,176.661576 158.231707,162.311555 L158.231707,147.833386 C158.231707,145.50064 156.342567,143.609575 154.012195,143.609575 C151.681823,143.609575 149.792683,145.50064 149.792683,147.833386 L149.792683,162.311555 C149.792683,172.469169 143.898813,180.567922 135.628835,180.567922 L27.4078415,180.567922 C18.021029,180.567922 8.43902439,171.076682 8.43902439,162.311555 L8.43902439,83.6304026 C8.43902439,76.2156664 16.4992724,70.7488349 27.4078415,70.7488349 L135.628835,70.7488349 C145.206048,70.7488349 149.792683,75.0643481 149.792683,83.6304026 L149.792683,103.48337 C149.792683,105.816117 151.681823,107.707182 154.012195,107.707182 C156.342567,107.707182 158.231707,105.816117 158.231707,103.48337 L158.231707,103.48337 Z" id="Stroke-1"></path>
                <path d="M167.110194,142.695226 L104.139249,142.695226 C94.515743,142.695226 86.7147732,134.886308 86.7147732,125.252998 C86.7147732,115.619688 94.515743,107.81077 104.139249,107.81077 L167.110194,107.81077 C165.324148,107.81077 163.874883,106.361103 163.874883,104.572163 L163.874883,145.933833 C163.874883,144.144902 165.323084,142.695226 167.110194,142.695226 L167.110194,142.695226 Z M167.110194,151.142848 C169.983828,151.142848 172.313907,148.810395 172.313907,145.933833 L172.313907,104.572163 C172.313907,101.69421 169.983494,99.3631484 167.110194,99.3631484 L104.139249,99.3631484 C89.8549985,99.3631484 78.2757488,110.954195 78.2757488,125.252998 C78.2757488,139.551801 89.8549985,151.142848 104.139249,151.142848 L167.110194,151.142848 L167.110194,151.142848 Z" id="Stroke-3"></path>
                <path d="M115.012826,125.252787 C115.012826,130.695168 110.604491,135.107994 105.167649,135.107994 C99.7308079,135.107994 95.3224726,130.695168 95.3224726,125.252787 C95.3224726,119.810406 99.7308079,115.39758 105.167649,115.39758 C110.604491,115.39758 115.012826,119.810406 115.012826,125.252787" id="Fill-5"></path>
                <path d="M107.407706,64.252718 L109.419359,54.9677254 C110.408643,50.409004 107.516277,45.909902 102.960621,44.92138 L33.8709072,29.9195848 C29.31668,28.929261 24.8221571,31.8245738 23.8346411,36.3848712 L18.1837881,62.4620865 C17.6897778,64.741815 19.1355077,66.9907826 21.412916,67.4852961 C23.6903243,67.9798096 25.9370029,66.5326069 26.4310132,64.2528783 L32.0819949,38.175069 C32.0820474,38.1748266 32.0815721,38.1751328 32.080722,38.1749479 L101.17226,53.1771393 C101.172487,53.1771888 101.172181,53.176713 101.172366,53.1758621 L99.1604119,62.4622467 C98.6664901,64.7419945 100.112307,66.9909058 102.389735,67.4853308 C104.667162,67.9797558 106.913785,66.5324658 107.407706,64.252718 L107.407706,64.252718 Z" id="Stroke-7"></path>
                <path d="M118.76094,65.1005008 L124.16719,53.4554538 C126.131156,49.2236635 124.296659,44.2010844 120.070637,42.2348167 L57.4970008,13.1283578 C53.270728,11.1619731 48.2515583,12.9980703 46.2875839,17.2298797 L38.3772125,34.2705026 C37.3951816,36.3860061 38.3122973,38.897865 40.4256477,39.8808964 C42.5389981,40.8639278 45.0483005,39.9458778 46.0303314,37.8303742 L53.9408619,20.7894086 C53.9409977,20.7891161 53.9406706,20.7892358 53.9403577,20.7890902 L116.513994,49.8955491 C116.514134,49.895614 116.5141,49.8955208 116.51398,49.8957783 L111.107957,61.5403361 C110.125846,63.655802 111.042865,66.167696 113.156178,67.1508083 C115.269491,68.1339206 117.778828,67.2159667 118.76094,65.1005008 L118.76094,65.1005008 Z" id="Stroke-9"></path>
                <path d="M138.876288,66.3761064 L143.665434,61.2135534 C146.837787,57.7972663 146.640066,52.4513914 143.224832,49.2755143 L93.3339689,2.89346787 C89.9193933,-0.281796996 84.5795892,-0.0845506895 81.4078317,3.33336817 L65.7646524,20.1952451 C64.1788578,21.9045826 64.2775988,24.5771247 65.9851966,26.1645349 C67.6927944,27.7519451 70.3626165,27.6531035 71.9484111,25.943766 L87.5911976,9.08231229 C87.5906225,9.08293209 87.5906578,9.08293078 87.5907131,9.08298217 L137.481576,55.4650286 C137.481952,55.4653782 137.481929,55.4647587 137.482937,55.4636738 L132.692361,60.627767 C131.106616,62.337151 131.205436,65.0096902 132.91308,66.5970503 C134.620724,68.1844104 137.290543,68.0854905 138.876288,66.3761064 L138.876288,66.3761064 Z" id="Stroke-11"></path>
            </g>
        </g>
    </g>
</svg>