<?xml version="1.0" encoding="UTF-8" standalone="no"?>
<svg width="200px" height="200px" viewBox="0 0 200 200" version="1.1" xmlns="http://www.w3.org/2000/svg" xmlns:xlink="http://www.w3.org/1999/xlink">
    <!-- Generator: Sketch 3.7.1 (28215) - http://www.bohemiancoding.com/sketch -->
    <title>qianbao</title>
    <desc>Created with Sketch.</desc>
    <defs></defs>
    <g id="nothing页面" stroke="none" stroke-width="1" fill="none" fill-rule="evenodd">
        <g id="qianbao" fill="#26262E">
            <g id="Group-5" transform="translate(11.000000, 38.000000)">
                <path d="M164.516328,46.9351852 L164.516328,23.1168472 C164.516328,9.15269681 155.341709,0.211419753 141.038769,0.211419753 L28.7694345,0.211419753 C13.5183164,0.211419753 0.194847605,9.67609203 0.194847605,23.1168472 L0.194847605,109.376106 C0.194847605,123.285793 14.4070654,136.78858 28.7694345,136.78858 L141.038769,136.78858 C154.827589,136.78858 164.516328,124.16007 164.516328,109.376106 L164.516328,90.0648148 C164.516328,88.0798284 162.916997,86.470679 160.944122,86.470679 C158.971247,86.470679 157.371916,88.0798284 157.371916,90.0648148 L157.371916,109.376106 C157.371916,120.537205 150.418597,129.600309 141.038769,129.600309 L28.7694345,129.600309 C18.264146,129.600309 7.3392598,119.220759 7.3392598,109.376106 L7.3392598,23.1168472 C7.3392598,14.2894653 17.0380307,7.39969136 28.7694345,7.39969136 L141.038769,7.39969136 C151.446033,7.39969136 157.371916,13.1748591 157.371916,23.1168472 L157.371916,46.9351852 C157.371916,48.9201716 158.971247,50.529321 160.944122,50.529321 C162.916997,50.529321 164.516328,48.9201716 164.516328,46.9351852 L164.516328,46.9351852 Z" id="Stroke-3"></path>
                <path d="M170.129795,86.470679 L124.201431,86.470679 C114.941479,86.470679 107.36103,78.4623454 107.36103,68.5 C107.36103,58.5376546 114.941479,50.529321 124.201431,50.529321 L170.129795,50.529321 C170.933825,50.529321 171.66074,51.297268 171.66074,52.3263889 L171.66074,84.6736111 C171.66074,85.702732 170.933825,86.470679 170.129795,86.470679 L170.129795,86.470679 Z M170.129795,93.6589506 C174.959644,93.6589506 178.805152,89.5963791 178.805152,84.6736111 L178.805152,52.3263889 C178.805152,47.4036209 174.959644,43.3410494 170.129795,43.3410494 L124.201431,43.3410494 C110.915659,43.3410494 100.216618,54.6440075 100.216618,68.5 C100.216618,82.3559925 110.915659,93.6589506 124.201431,93.6589506 L170.129795,93.6589506 L170.129795,93.6589506 Z" id="Stroke-5"></path>
            </g>
        </g>
    </g>
</svg>