<?xml version="1.0" encoding="UTF-8" standalone="no"?>
<svg width="200px" height="200px" viewBox="0 0 200 200" version="1.1" xmlns="http://www.w3.org/2000/svg" xmlns:xlink="http://www.w3.org/1999/xlink">
    <!-- Generator: Sketch 3.7 (28169) - http://www.bohemiancoding.com/sketch -->
    <title>低于40度</title>
    <desc>Created with Sketch.</desc>
    <defs></defs>
    <g id="内容区域" stroke="none" stroke-width="1" fill="none" fill-rule="evenodd">
        <g id="低于40度" fill="#26262E">
            <g id="Group" transform="translate(6.000000, 4.000000)">
                <path d="M179.060024,3.93858225 L149.881263,186.773784 L154.389496,182.943294 L34.6105036,182.943294 L39.1187369,186.773784 L9.93997576,3.93858225 C9.54450045,1.46051926 7.20549955,-0.229266582 4.71567102,0.164339932 C2.22584249,0.557946446 0.528033755,2.88589454 0.923509065,5.36395753 L30.1022703,188.19916 C30.454381,190.405499 32.3658996,192.02965 34.6105036,192.02965 L154.389496,192.02965 C156.6341,192.02965 158.545619,190.405499 158.89773,188.19916 L188.076491,5.36395753 C188.471966,2.88589454 186.774158,0.557946446 184.284329,0.164339932 C181.7945,-0.229266582 179.4555,1.46051926 179.060024,3.93858225 L179.060024,3.93858225 Z" id="Stroke-7"></path>
                <path d="M16.9340172,60.2225337 C18.8172292,60.2225337 21.8955847,59.9388278 25.7849443,59.1024464 C32.2106262,57.7206453 38.6370034,55.2331343 44.6549425,51.3507784 C49.8791571,47.9804784 54.5429783,43.7022852 58.4877904,38.4358126 C58.1323947,38.9090664 57.2807242,38.9947624 56.570236,38.0774035 C77.3638329,64.8554334 110.357718,70.1628674 136.319408,38.8467296 C135.903367,39.3479804 135.158805,39.3399907 134.747056,38.8159157 C144.94622,51.8359405 162.00679,60.250796 175.427524,59.7000902 C177.946425,59.5967297 179.90421,57.4806161 179.800358,54.9736181 C179.696507,52.4666202 177.570346,50.518087 175.051446,50.6214474 C164.668343,51.0475072 150.386934,44.0034286 141.942896,33.2239651 C138.750209,29.1602958 132.572561,29.0940052 129.279214,33.0618503 C107.505375,59.3264147 81.3403777,55.1174833 63.7973692,32.5255717 C60.5419481,28.3222735 54.2062569,28.9597781 51.1717905,33.0005 C47.8865274,37.3864441 44.0240445,40.9295577 39.6892065,43.7260938 C34.6654955,46.9670428 29.2615334,49.0587991 23.8568759,50.2210355 C21.9722411,50.626314 20.2304656,50.885623 18.682022,51.0283299 C17.7915869,51.1103937 17.192069,51.1361782 16.9340172,51.1361782 C14.4129764,51.1361782 12.369269,53.1702281 12.369269,55.6793559 C12.369269,58.1884837 14.4129764,60.2225337 16.9340172,60.2225337 L16.9340172,60.2225337 Z" id="Stroke-1"></path>
                <path d="M86.1498509,116.014529 C86.1498509,123.358964 80.1689174,129.311635 72.7896122,129.311635 C65.4103071,129.311635 59.4293736,123.358964 59.4293736,116.014529 C59.4293736,108.670095 65.4103071,102.717424 72.7896122,102.717424 C80.1689174,102.717424 86.1498509,108.670095 86.1498509,116.014529" id="Fill-3"></path>
                <path d="M131.713609,116.014529 C131.713609,123.358964 125.732675,129.311635 118.35337,129.311635 C110.974065,129.311635 104.993131,123.358964 104.993131,116.014529 C104.993131,108.670095 110.974065,102.717424 118.35337,102.717424 C125.732675,102.717424 131.713609,108.670095 131.713609,116.014529" id="Fill-5"></path>
            </g>
        </g>
    </g>
</svg>