<?xml version="1.0" encoding="UTF-8" standalone="no"?>
<svg width="200px" height="200px" viewBox="0 0 200 200" version="1.1" xmlns="http://www.w3.org/2000/svg" xmlns:xlink="http://www.w3.org/1999/xlink">
    <!-- Generator: Sketch 3.7 (28169) - http://www.bohemiancoding.com/sketch -->
    <title>微信（分享方式）</title>
    <desc>Created with Sketch.</desc>
    <defs></defs>
    <g id="-分享方式" stroke="none" stroke-width="1" fill="none" fill-rule="evenodd">
        <g id="微信（分享方式）" fill="#26262E">
            <g id="Stroke-1-+-Group" transform="translate(3.000000, 3.000000)">
                <path d="M3.62616822,97 C3.62616822,45.4284152 45.4284152,3.62616822 97,3.62616822 C148.571585,3.62616822 190.373832,45.4284152 190.373832,97 C190.373832,148.571585 148.571585,190.373832 97,190.373832 C60.1076563,190.373832 27.1357058,168.776999 12.0523856,135.81361 C11.6357416,134.903068 10.5598447,134.502685 9.64930256,134.919329 C8.73876043,135.335973 8.33837689,136.41187 8.7550209,137.322412 C24.423375,171.564346 58.6759576,194 97,194 C150.574262,194 194,150.574262 194,97 C194,43.4257378 150.574262,0 97,0 C43.4257378,0 0,43.4257378 0,97 C0,98.0013387 0.811745407,98.8130841 1.81308411,98.8130841 C2.81442282,98.8130841 3.62616822,98.0013387 3.62616822,97 L3.62616822,97 Z" id="Stroke-1"></path>
                <g id="Group" transform="translate(36.261682, 48.953271)">
                    <path d="M0.59313347,35.6469051 C0.59313347,45.242936 5.15615625,53.9465897 12.5688373,60.324113 C13.6277918,61.2343379 15.8468367,62.7989728 16.9474355,63.5664173 C17.3400815,63.8400797 17.5007094,64.3338619 17.357929,64.7859997 L14.8057298,72.7698023 C14.3238461,74.2749454 15.9003794,75.6135114 17.3103356,74.8936603 L28.4412555,69.2240897 C28.6792228,69.105106 28.946936,69.0753601 29.2027509,69.1408011 C30.0772807,69.36687 32.1892404,69.9141948 33.1530079,70.1045686 C36.2882269,70.7232836 39.5602772,71.0504886 42.9275143,71.0504886 C43.8853327,71.0504886 44.8312526,71.0147935 45.7712234,70.9612509 C44.9026428,68.2722205 44.4267082,65.4404098 44.4267082,62.5134121 C44.4267082,44.6658654 61.6971843,30.191505 82.9893075,30.191505 C83.5901749,30.191505 84.179144,30.2034033 84.768113,30.2331492 C81.6507415,13.2482339 64.1066031,0.243321554 42.9275143,0.243321554 C19.5472281,0.243321554 0.59313347,16.091943 0.59313347,35.6469051 Z M28.1967442,29.2116746 C24.9127956,29.2116746 22.2535111,26.6297296 22.2535111,23.4528662 C22.2535111,20.2760029 24.9127956,17.700007 28.1967442,17.700007 C31.4806928,17.700007 34.1459264,20.2760029 34.1459264,23.4528662 C34.1459264,26.6297296 31.4806928,29.2116746 28.1967442,29.2116746 Z M57.6588794,29.2116746 C54.3749308,29.2116746 51.7156463,26.6297296 51.7156463,23.4528662 C51.7156463,20.2760029 54.3749308,17.700007 57.6588794,17.700007 C60.942828,17.700007 63.5961633,20.2760029 63.5961633,23.4528662 C63.5961633,26.6297296 60.942828,29.2116746 57.6588794,29.2116746 Z" id="Combined-Shape"></path>
                    <path d="M85.6341723,33.3285938 C65.8769381,33.3285938 49.8617395,46.720203 49.8617395,63.2351329 C49.8617395,79.756012 65.8769381,93.1476212 85.6341723,93.1476212 C88.4243388,93.1476212 91.1371659,92.879908 93.7429077,92.3742275 C94.5757932,92.2135996 96.3724463,91.7495634 97.1636875,91.541342 C97.4195023,91.475901 97.6812664,91.5056469 97.9192336,91.6246305 L106.67643,96.0924664 C108.086386,96.8123175 109.662919,95.4737515 109.181036,93.9626592 L107.271348,87.9718327 C107.122619,87.5196948 107.289196,87.0259127 107.681842,86.7581995 C108.360048,86.3060616 109.377359,85.6100073 109.888988,85.2114121 C116.956617,79.7500628 121.388758,71.9268881 121.388758,63.2351329 C121.388758,46.720203 105.379508,33.3285938 85.6341723,33.3285938 Z M73.1843186,57.79996 C70.4119997,57.79996 68.1632088,55.6225593 68.1632088,52.9335289 C68.1632088,50.2504477 70.4119997,48.0789962 73.1843186,48.0789962 C75.9625867,48.0789962 78.2113776,50.2504477 78.2113776,52.9335289 C78.2113776,55.6225593 75.9625867,57.79996 73.1843186,57.79996 Z M98.069153,57.79996 C95.2968341,57.79996 93.0480432,55.6225593 93.0480432,52.9335289 C93.0480432,50.2504477 95.2968341,48.0789962 98.069153,48.0789962 C100.847421,48.0789962 103.096212,50.2504477 103.096212,52.9335289 C103.096212,55.6225593 100.847421,57.79996 98.069153,57.79996 Z" id="Combined-Shape"></path>
                </g>
            </g>
        </g>
    </g>
</svg>