<?xml version="1.0" encoding="UTF-8" standalone="no"?>
<svg width="192px" height="192px" viewBox="0 0 192 192" version="1.1" xmlns="http://www.w3.org/2000/svg" xmlns:xlink="http://www.w3.org/1999/xlink">
    <!-- Generator: Sketch 3.7 (28169) - http://www.bohemiancoding.com/sketch -->
    <title>Stroke 1 + Group</title>
    <desc>Created with Sketch.</desc>
    <defs></defs>
    <g id="第三方登录方式" stroke="none" stroke-width="1" fill="none" fill-rule="evenodd">
        <g id="微信" transform="translate(-4.000000, -4.000000)" fill="#26262E">
            <g id="Stroke-1-+-Group" transform="translate(4.000000, 4.000000)">
                <path d="M4.68292683,96 C4.68292683,45.564374 45.564374,4.68292683 96,4.68292683 C146.435626,4.68292683 187.317073,45.564374 187.317073,96 C187.317073,146.435626 146.435626,187.317073 96,187.317073 C59.9201333,187.317073 27.6744865,166.195974 12.9232971,133.95843 C12.3852323,132.782533 10.9957914,132.265467 9.81989388,132.803532 C8.64399637,133.341597 8.12693078,134.731038 8.66499556,135.906935 C24.1717127,169.795625 58.0712008,192 96,192 C149.021935,192 192,149.021935 192,96 C192,42.978065 149.021935,0 96,0 C42.978065,0 0,42.978065 0,96 C0,97.2931545 1.04830888,98.3414634 2.34146341,98.3414634 C3.63461795,98.3414634 4.68292683,97.2931545 4.68292683,96 L4.68292683,96 Z" id="Stroke-1"></path>
                <g id="Group" transform="translate(32.780488, 44.487805)">
                    <path d="M44.5797073,0.239414634 C20.3641057,0.239414634 0.583609756,16.7807632 0.583609756,37.416 C0.583609756,47.3180797 5.17370926,56.5824856 13.1814014,63.4719286 C14.1124339,64.2721984 15.7018952,65.430255 17.6775254,66.8078566 C17.2165129,66.4865449 17.0227278,65.9051895 17.187904,65.3821314 L14.679185,73.2298714 C13.5700451,76.6942209 17.1982011,79.7723358 20.4385492,78.1179808 L31.3887657,72.5404532 C31.1059554,72.6819311 30.7918022,72.7164335 30.4950246,72.6405136 C31.3151228,72.8525195 31.7287512,72.9585714 32.2998216,73.1014728 C32.4021092,73.1270414 32.4021092,73.1270414 32.5047634,73.1525851 C33.3728854,73.3683396 34.0484599,73.5266154 34.5084025,73.6174683 C37.7821151,74.2635141 41.1543271,74.5925854 44.5797073,74.5925854 C45.5032406,74.5925854 46.4520589,74.5613056 47.5109147,74.5009911 L50.5377357,74.3285772 L49.6058681,71.4436172 C48.8068538,68.9699565 48.3962927,66.4260877 48.3962927,63.851122 C48.3962927,47.6842409 64.2581864,34.3896585 83.9982439,34.3896585 C84.5827802,34.3896585 85.1174914,34.40175 85.6303826,34.4276536 L88.5856557,34.5769098 L88.0514831,31.6664844 C84.7355333,13.5996206 66.2822918,0.239414634 44.5797073,0.239414634 L44.5797073,0.239414634 Z M44.5797073,4.92234146 C64.143521,4.92234146 80.5637246,16.8106216 83.4454925,32.5118571 L85.7484878,32.0891707 L85.866593,29.7506879 C85.2705541,29.7205849 84.6579353,29.7067317 83.9982439,29.7067317 C61.8368514,29.7067317 43.7133659,44.8968582 43.7133659,63.851122 C43.7133659,66.9209194 44.2022192,69.9498934 45.1496441,72.883017 L47.3777561,72.1633171 L47.2445975,69.8256431 C46.2687216,69.8812309 45.406418,69.9096585 44.5797073,69.9096585 C41.4584816,69.9096585 38.3899292,69.6102193 35.4154758,69.0232304 C35.0520321,68.951439 34.4320027,68.8061765 33.6342516,68.6079113 C33.5353952,68.5833127 33.5353952,68.5833127 33.4366004,68.5586172 C32.8811247,68.419618 32.4755181,68.3156229 31.6613301,68.1051525 C30.8563427,67.8992178 30.015302,67.9915865 29.2789145,68.3597802 L18.3111367,73.9461809 C18.7756255,73.7090356 19.3003312,74.1541941 19.1394273,74.6567703 L21.6509614,66.8001774 C22.1015122,65.3734815 21.5846476,63.8228877 20.3556121,62.9662872 C18.5264914,61.6908462 16.9968207,60.5763522 16.2347551,59.9213182 C9.22591547,53.8912408 5.26653659,45.8998469 5.26653659,37.416 C5.26653659,19.5709118 22.7836081,4.92234146 44.5797073,4.92234146 L44.5797073,4.92234146 Z" id="Stroke-1"></path>
                    <path d="M30.0854634,31.0840976 C26.8542439,31.0840976 24.2376585,28.5436098 24.2376585,25.4177561 C24.2376585,22.2919024 26.8542439,19.7572683 30.0854634,19.7572683 C33.3166829,19.7572683 35.939122,22.2919024 35.939122,25.4177561 C35.939122,28.5436098 33.3166829,31.0840976 30.0854634,31.0840976" id="Fill-3"></path>
                    <path d="M59.0745366,31.0840976 C55.8433171,31.0840976 53.2267317,28.5436098 53.2267317,25.4177561 C53.2267317,22.2919024 55.8433171,19.7572683 59.0745366,19.7572683 C62.3057561,19.7572683 64.9164878,22.2919024 64.9164878,25.4177561 C64.9164878,28.5436098 62.3057561,31.0840976 59.0745366,31.0840976" id="Fill-5"></path>
                    <path d="M127.690537,69.9131707 C127.690537,52.2682066 110.806387,38.1453659 90.1685854,38.1453659 C69.5199552,38.1453659 52.6290732,52.2673462 52.6290732,69.9131707 C52.6290732,87.56386 69.5188173,101.686829 90.1685854,101.686829 C93.029357,101.686829 95.8485784,101.415601 98.5931935,100.88297 C99.3280283,100.741254 100.685218,100.403891 102.108862,100.029248 C101.795026,100.109589 101.475155,100.074047 101.209256,99.9410978 L109.808873,104.328625 C113.050174,105.983467 116.674018,102.903728 115.568145,99.4359269 L113.689204,93.541554 C113.861773,94.0658461 113.6583,94.6678745 113.181276,94.9931177 C114.071592,94.3997264 114.978229,93.7690956 115.472957,93.3836676 C123.180976,87.4274946 127.690537,78.9926962 127.690537,69.9131707 L127.690537,69.9131707 Z M123.00761,69.9131707 C123.00761,77.4787157 119.213658,84.5750198 112.602269,89.6838205 C112.219046,89.982355 111.38097,90.565297 110.563434,91.1103213 C109.293903,91.9757569 108.762076,93.549305 109.234125,94.9843331 L111.106504,100.858446 C110.948696,100.363592 111.471321,99.9194367 111.937671,100.157531 L103.320493,95.7611312 C102.56766,95.3846286 101.732567,95.2918405 100.932683,95.496462 C99.6073877,95.8451666 98.2973689,96.1708041 97.7037246,96.2852927 C95.2502814,96.7614159 92.7298067,97.0039024 90.1685854,97.0039024 C71.9382626,97.0039024 57.312,84.773625 57.312,69.9131707 C57.312,55.0577488 71.9392898,42.8282927 90.1685854,42.8282927 C108.386683,42.8282927 123.00761,55.0580488 123.00761,69.9131707 L123.00761,69.9131707 Z" id="Stroke-7"></path>
                    <path d="M77.9186341,64.5652683 C75.1908293,64.5652683 72.9781463,62.4228293 72.9781463,59.7769756 C72.9781463,57.1369756 75.1908293,55.0003902 77.9186341,55.0003902 C80.6522927,55.0003902 82.8649756,57.1369756 82.8649756,59.7769756 C82.8649756,62.4228293 80.6522927,64.5652683 77.9186341,64.5652683" id="Fill-9"></path>
                    <path d="M102.403902,64.5652683 C99.6760976,64.5652683 97.4634146,62.4228293 97.4634146,59.7769756 C97.4634146,57.1369756 99.6760976,55.0003902 102.403902,55.0003902 C105.137561,55.0003902 107.350244,57.1369756 107.350244,59.7769756 C107.350244,62.4228293 105.137561,64.5652683 102.403902,64.5652683" id="Fill-11"></path>
                </g>
            </g>
        </g>
    </g>
</svg>