<?xml version="1.0" encoding="UTF-8" standalone="no"?>
<svg width="200px" height="200px" viewBox="0 0 200 200" version="1.1" xmlns="http://www.w3.org/2000/svg" xmlns:xlink="http://www.w3.org/1999/xlink">
    <!-- Generator: Sketch 3.7 (28169) - http://www.bohemiancoding.com/sketch -->
    <title>微信（第三方支付）</title>
    <desc>Created with Sketch.</desc>
    <defs>
        <path d="M3,41.7935333 L3,158.2097 C3,179.614367 20.3662333,197 41.7935333,197 L158.206467,197 C179.614367,197 197,179.630533 197,158.2097 L197,41.7935333 C197,20.3888667 179.630533,3 158.206467,3 L41.7935333,3 C20.3888667,3 3,20.3662333 3,41.7935333 Z M19.9501887,82.4224549 C19.9501887,95.0986933 25.9778854,106.596112 35.7699456,115.020742 C37.1688113,116.223138 40.1001424,118.290001 41.5540197,119.303786 C42.0727002,119.665291 42.2848877,120.317571 42.0962766,120.914839 L38.724853,131.461344 C38.0882905,133.449619 40.1708715,135.217848 42.0334062,134.266934 L56.7372141,126.777501 C57.051566,126.620325 57.4052118,126.581031 57.74314,126.667478 C58.8983831,126.966112 61.6882558,127.689122 62.9613808,127.940603 C67.1029664,128.757918 71.4253044,129.190152 75.8733831,129.190152 C77.1386493,129.190152 78.3881979,129.142999 79.6298877,129.07227 C78.4825035,125.520094 77.8537998,121.779307 77.8537998,117.912779 C77.8537998,94.33639 100.667885,75.2159387 128.794517,75.2159387 C129.588256,75.2159387 130.366277,75.2316562 131.144297,75.2709502 C127.026288,52.8340868 103.850698,35.6547581 75.8733831,35.6547581 C44.9883137,35.6547581 19.9501887,56.5905914 19.9501887,82.4224549 Z M179.519717,118.866163 C179.519717,97.0501447 158.371696,79.3599942 132.288351,79.3599942 C106.189289,79.3599942 85.033409,97.0501447 85.033409,118.866163 C85.033409,140.690041 106.189289,158.380191 132.288351,158.380191 C135.974127,158.380191 139.557738,158.026545 142.99989,157.358547 C144.100122,157.14636 146.473478,156.533374 147.518698,156.258316 C147.856627,156.171869 148.202414,156.211163 148.516765,156.368339 L160.084914,162.270295 C161.947448,163.221209 164.030029,161.45298 163.393467,159.456846 L160.870793,151.543038 C160.674323,150.94577 160.89437,150.29349 161.41305,149.939844 C162.308953,149.342575 163.652807,148.423096 164.328664,147.896557 C173.664914,140.682182 179.519717,130.347865 179.519717,118.866163 Z M56.4142176,73.9215949 C52.076162,73.9215949 48.5632801,70.5108773 48.5632801,66.3142801 C48.5632801,62.1176829 52.076162,58.7148241 56.4142176,58.7148241 C60.7522731,58.7148241 64.2730139,62.1176829 64.2730139,66.3142801 C64.2730139,70.5108773 60.7522731,73.9215949 56.4142176,73.9215949 Z M95.3333345,73.9215949 C90.9952789,73.9215949 87.482397,70.5108773 87.482397,66.3142801 C87.482397,62.1176829 90.9952789,58.7148241 95.3333345,58.7148241 C99.67139,58.7148241 103.176413,62.1176829 103.176413,66.3142801 C103.176413,70.5108773 99.67139,73.9215949 95.3333345,73.9215949 Z M115.842248,111.686367 C112.180049,111.686367 109.209424,108.810047 109.209424,105.257872 C109.209424,101.713554 112.180049,98.8450938 115.842248,98.8450938 C119.512306,98.8450938 122.482931,101.713554 122.482931,105.257872 C122.482931,108.810047 119.512306,111.686367 115.842248,111.686367 Z M148.714807,111.686367 C145.052608,111.686367 142.081983,108.810047 142.081983,105.257872 C142.081983,101.713554 145.052608,98.8450938 148.714807,98.8450938 C152.384865,98.8450938 155.35549,101.713554 155.35549,105.257872 C155.35549,108.810047 152.384865,111.686367 148.714807,111.686367 Z" id="path-1"></path>
    </defs>
    <g id="第三方支付方式" stroke="none" stroke-width="1" fill="none" fill-rule="evenodd">
        <g id="微信（第三方支付）">
            <mask id="mask-2" fill="white">
                <use xlink:href="#path-1"></use>
            </mask>
            <use id="Combined-Shape" fill="#26262E" xlink:href="#path-1"></use>
        </g>
    </g>
</svg>