<?xml version="1.0" encoding="UTF-8" standalone="no"?>
<svg width="200px" height="200px" viewBox="0 0 200 200" version="1.1" xmlns="http://www.w3.org/2000/svg" xmlns:xlink="http://www.w3.org/1999/xlink">
    <!-- Generator: Sketch 3.7 (28169) - http://www.bohemiancoding.com/sketch -->
    <title>微信快照（分享方式）</title>
    <desc>Created with Sketch.</desc>
    <defs></defs>
    <g id="-分享方式" stroke="none" stroke-width="1" fill="none" fill-rule="evenodd">
        <g id="微信快照（分享方式）">
            <g id="Group-2" transform="translate(3.000000, 3.000000)">
                <path d="M3.62616822,97 C3.62616822,45.4284152 45.4284152,3.62616822 97,3.62616822 C148.571585,3.62616822 190.373832,45.4284152 190.373832,97 C190.373832,148.571585 148.571585,190.373832 97,190.373832 C60.1076563,190.373832 27.1357058,168.776999 12.0523856,135.81361 C11.6357416,134.903068 10.5598447,134.502685 9.64930256,134.919329 C8.73876043,135.335973 8.33837689,136.41187 8.7550209,137.322412 C24.423375,171.564346 58.6759576,194 97,194 C150.574262,194 194,150.574262 194,97 C194,43.4257378 150.574262,0 97,0 C43.4257378,0 0,43.4257378 0,97 C0,98.0013387 0.811745407,98.8130841 1.81308411,98.8130841 C2.81442282,98.8130841 3.62616822,98.0013387 3.62616822,97 L3.62616822,97 Z" id="Stroke-1" fill="#26262E"></path>
                <path d="M156.090752,143.978578 L40.0117554,143.978578 C36.7399279,143.978578 34.806327,140.342363 36.6579957,137.665329 L62.8640877,102.15398 C64.5518919,99.7099669 68.3262371,100.203105 69.3203482,102.999359 L78.0488629,116.135253 C79.1303685,117.755563 81.4954791,117.847688 82.6916898,116.308664 L114.710809,75.2427398 C116.830123,72.5277717 120.877576,72.2893314 123.30277,74.7441828 L160.487782,137.05839 C162.033571,140.266496 158.009267,143.978578 154.426097,143.978578" id="Fill-3" fill="#26262E"></path>
                <path d="M49.4851069,58.6465012 C49.4851069,51.6362698 55.1664642,45.9549124 62.1766957,45.9549124 C69.1869271,45.9549124 74.8682844,51.6362698 74.8682844,58.6465012 C74.8682844,65.6567327 69.1869271,71.33809 62.1766957,71.33809 C55.1664642,71.33809 49.4851069,65.6567327 49.4851069,58.6465012 Z" id="Fill-5" fill="#26262E"></path>
                <rect id="Rectangle-651" fill="#FFFFFF" x="101.53271" y="132.35514" width="83.4018692" height="61.6448598"></rect>
                <path d="M101.53271,135.981308 L101.53271,135.981308 L105.158879,132.35514 L105.158879,194 L101.53271,190.373832 L184.934579,190.373832 L181.308411,194 L181.308411,132.35514 L184.934579,135.981308 L101.53271,135.981308 Z M101.53271,132.35514 L184.934579,132.35514 L184.934579,194 L101.53271,194 L101.53271,132.35514 L101.53271,132.35514 Z" id="Rectangle-651" fill="#26262E"></path>
                <g id="Group" transform="translate(121.476636, 145.046729)" fill="#26262E">
                    <path d="M0.228466225,13.7670806 C0.228466225,17.4731339 1.986075,20.834545 4.84132993,23.2975885 C5.24922349,23.6491236 6.10396674,24.2533964 6.52790106,24.5497888 C6.6791425,24.6554791 6.74101399,24.8461811 6.68601711,25.0207999 L5.70294779,28.1041995 C5.51733331,28.6854961 6.12459058,29.2024596 6.66768481,28.9244481 L10.9551503,26.7348208 C11.0468118,26.6888685 11.1499309,26.6773805 11.248467,26.7026542 C11.5853229,26.7899636 12.3988185,27.0013442 12.7700475,27.0748679 C13.9776874,27.3138199 15.2380327,27.4401887 16.5350425,27.4401887 C16.90398,27.4401887 17.2683343,27.426403 17.6303972,27.4057245 C17.2958328,26.3672024 17.1125098,25.2735376 17.1125098,24.1431109 C17.1125098,17.2502652 23.7648414,11.6601674 31.9662518,11.6601674 C32.197697,11.6601674 32.4245592,11.6647627 32.6514213,11.6762507 C31.450656,5.11655931 24.6929138,0.0939724621 16.5350425,0.0939724621 C7.52930267,0.0939724621 0.228466225,6.21481938 0.228466225,13.7670806 Z M10.8609681,11.2817502 C9.59603977,11.2817502 8.57172279,10.2845852 8.57172279,9.05765869 C8.57172279,7.83073216 9.59603977,6.83586478 10.8609681,6.83586478 C12.1258965,6.83586478 13.152505,7.83073216 13.152505,9.05765869 C13.152505,10.2845852 12.1258965,11.2817502 10.8609681,11.2817502 Z M22.2093461,11.2817502 C20.9444178,11.2817502 19.9201008,10.2845852 19.9201008,9.05765869 C19.9201008,7.83073216 20.9444178,6.83586478 22.2093461,6.83586478 C23.4742745,6.83586478 24.4962999,7.83073216 24.4962999,9.05765869 C24.4962999,10.2845852 23.4742745,11.2817502 22.2093461,11.2817502 Z" id="Combined-Shape"></path>
                    <path d="M46.7571511,24.4218444 C46.7571511,18.0436646 40.5906254,12.8717328 32.9850145,12.8717328 C25.3748206,12.8717328 19.2060034,18.0436646 19.2060034,24.4218444 C19.2060034,30.8023219 25.3748206,35.9742537 32.9850145,35.9742537 C34.0597453,35.9742537 35.1046861,35.870861 36.1083793,35.6755637 C36.4291944,35.6135281 37.1212386,35.4343141 37.426013,35.3538976 C37.524549,35.3286238 37.6253767,35.3401119 37.7170381,35.3860642 L41.0901804,37.1115732 C41.6332746,37.3895847 42.2405319,36.8726213 42.0549174,36.289027 L41.3193341,33.9753285 C41.2620457,33.8007097 41.3262087,33.6100077 41.4774501,33.506615 C41.7386853,33.3319962 42.1305381,33.0631752 42.3276103,32.909235 C45.0499561,30.8000243 46.7571511,27.7786602 46.7571511,24.4218444 Z M28.1895153,22.3227432 C27.1216591,22.3227432 26.2554582,21.481816 26.2554582,20.4432939 C26.2554582,19.4070695 27.1216591,18.5684399 28.1895153,18.5684399 C29.259663,18.5684399 30.125864,19.4070695 30.125864,20.4432939 C30.125864,21.481816 29.259663,22.3227432 28.1895153,22.3227432 Z M37.7747849,22.3227432 C36.7069287,22.3227432 35.8407278,21.481816 35.8407278,20.4432939 C35.8407278,19.4070695 36.7069287,18.5684399 37.7747849,18.5684399 C38.8449326,18.5684399 39.7111335,19.4070695 39.7111335,20.4432939 C39.7111335,21.481816 38.8449326,22.3227432 37.7747849,22.3227432 Z" id="Combined-Shape"></path>
                </g>
            </g>
        </g>
    </g>
</svg>