<?xml version="1.0" encoding="UTF-8" standalone="no"?>
<svg width="200px" height="200px" viewBox="0 0 200 200" version="1.1" xmlns="http://www.w3.org/2000/svg" xmlns:xlink="http://www.w3.org/1999/xlink">
    <!-- Generator: Sketch 3.7 (28169) - http://www.bohemiancoding.com/sketch -->
    <title>微博（第三方支付）</title>
    <desc>Created with Sketch.</desc>
    <defs>
        <path d="M0,38.7935333 L0,155.2097 C0,176.614367 17.3662333,194 38.7935333,194 L155.206467,194 C176.614367,194 194,176.630533 194,155.2097 L194,38.7935333 C194,17.3888667 176.630533,0 155.206467,0 L38.7935333,0 C17.3888667,0 0,17.3662333 0,38.7935333 Z M132.346154,98.1310261 C129.052624,96.9819117 128.01592,96.1241221 128.486424,95.072116 C130.177049,90.8721838 130.743249,85.9924938 129.802241,83.1278001 C126.88352,74.0562703 116.245339,71.952258 100.431611,77.3984129 L94.123664,79.5995334 L94.689864,73.1984807 C95.3517598,65.6483135 93.7488555,61.5373972 89.3229256,59.2472608 C85.6545873,57.337465 78.5890488,57.5316815 72.5681893,59.7247097 C62.0257041,63.5443012 51.8580274,70.9002519 40.932759,82.7474594 C15.0470503,110.641807 16.7376758,137.200916 45.2629931,151.33826 C74.9207106,166.050161 114.833826,161.178563 136.580692,140.162718 C152.864924,124.495918 150.895186,104.815311 132.346154,98.1310261 Z M124.034178,35.5512271 C119.512552,37.5581312 118.475848,42.3326206 121.777352,45.6747631 C123.372282,47.3013265 124.87949,47.5845589 131.474525,47.5845589 C140.693218,47.5845589 146.905469,50.0689118 151.618487,55.612175 C157.360233,62.2074442 158.022129,64.2143482 158.022129,76.24768 C158.022129,86.9457732 158.022129,87.1399897 160.462372,88.5723365 C166.116397,91.8173708 169.880431,87.8035628 171.196248,77.1054696 C172.894849,63.1623421 164.704885,46.9209858 152.368104,39.4679269 C144.273835,34.6934375 130.43782,32.7836418 124.034178,35.5512271 Z M125.63469,55.134726 C121.304456,59.5288747 124.223177,64.7808131 131.097324,64.7808131 C137.022488,64.7808131 139.662096,67.8397232 139.662096,74.7182249 C139.662096,79.0152654 140.036905,80.261488 141.735505,81.4025101 C146.815356,85.0359774 150.954198,81.0221694 150.954198,72.5171044 C150.954198,62.110336 143.617522,54.2769364 133.162758,53.5081627 C128.457715,53.127822 127.325315,53.4110544 125.63469,55.134726 Z" id="path-1"></path>
    </defs>
    <g id="第三方支付方式" stroke="none" stroke-width="1" fill="none" fill-rule="evenodd">
        <g id="微博（第三方支付）">
            <g id="Group" transform="translate(3.000000, 3.000000)">
                <mask id="mask-2" fill="white">
                    <use xlink:href="#path-1"></use>
                </mask>
                <use id="Combined-Shape" fill="#26262E" xlink:href="#path-1"></use>
                <path d="M95.1603683,146.466662 C86.4999001,149.331356 70.3990849,149.905913 62.4962084,147.712885 C47.5277933,143.407752 39.050742,134.999795 39.050742,124.204594 C39.050742,118.289082 41.5946549,113.12616 47.1450102,107.874221 C52.3285316,102.905516 56.2839572,100.518271 63.9077211,97.9368096 C75.3912148,94.0201098 87.7279959,93.5426609 98.7409854,96.6986793 C112.768392,100.615379 121.333164,109.20946 121.333164,119.430104 C121.333164,130.799863 111.348905,141.020507 95.1603683,146.466662" id="Path" fill="#26262E"></path>
                <path d="M89.1355214,105.19808 C83.768583,102.907943 74.7333063,103.288284 69.0872553,105.958761 C59.5734997,110.450018 54.4936487,117.32852 54.4936487,125.930693 C54.4936487,133.764093 57.8828742,139.113139 65.3152466,143.126947 C71.0569934,146.274873 81.6074533,145.991641 88.0031213,142.649498 C96.1930852,138.255349 101.560024,130.130625 101.560024,122.200117 C101.464328,115.710049 95.8182767,107.965665 89.1355214,105.19808" id="Fill-7" fill="#FFFFFF"></path>
                <path d="M65.9771424,133.092427 C64.1908211,131.27974 64.6613254,126.788483 66.7267593,124.68447 C68.8001679,122.580458 74.1671063,122.103009 75.9534275,123.923789 C76.6153234,124.587362 77.0858276,126.213925 77.0858276,127.646272 C77.0858276,132.420762 69.1749764,136.337461 65.9771424,133.092427" id="Path" fill="#26262E"></path>
                <ellipse id="Oval-50-Copy" fill="#26262E" cx="81.2285315" cy="122.47915" rx="2.27476024" ry="1.79109558"></ellipse>
            </g>
        </g>
    </g>
</svg>