<?xml version="1.0" encoding="UTF-8" standalone="no"?>
<svg width="200px" height="200px" viewBox="0 0 200 200" version="1.1" xmlns="http://www.w3.org/2000/svg" xmlns:xlink="http://www.w3.org/1999/xlink">
    <!-- Generator: Sketch 3.7 (28169) - http://www.bohemiancoding.com/sketch -->
    <title>微博（分享方式）</title>
    <desc>Created with Sketch.</desc>
    <defs></defs>
    <g id="-分享方式" stroke="none" stroke-width="1" fill="none" fill-rule="evenodd">
        <g id="微博（分享方式）" fill="#26262E">
            <g id="Group" transform="translate(3.000000, 3.000000)">
                <path d="M3.62616822,97 C3.62616822,45.4284152 45.4284152,3.62616822 97,3.62616822 C148.571585,3.62616822 190.373832,45.4284152 190.373832,97 C190.373832,148.571585 148.571585,190.373832 97,190.373832 C60.1076563,190.373832 27.1357058,168.776999 12.0523856,135.81361 C11.6357416,134.903068 10.5598447,134.502685 9.64930256,134.919329 C8.73876043,135.335973 8.33837689,136.41187 8.7550209,137.322412 C24.423375,171.564346 58.6759576,194 97,194 C150.574262,194 194,150.574262 194,97 C194,43.4257378 150.574262,0 97,0 C43.4257378,0 0,43.4257378 0,97 C0,98.0013387 0.811745407,98.8130841 1.81308411,98.8130841 C2.81442282,98.8130841 3.62616822,98.0013387 3.62616822,97 L3.62616822,97 Z" id="Stroke-1-Copy"></path>
                <path d="M95.337344,135.172149 C88.9326093,137.290695 77.0254644,137.715601 71.1809966,136.093776 C60.1113032,132.909972 53.842212,126.691979 53.842212,118.708531 C53.842212,114.333792 55.7235291,110.515621 59.828221,106.63162 C63.6616257,102.957079 66.5868084,101.191624 72.2248622,99.2825383 C80.7173281,96.3859948 89.8408313,96.0329038 97.985342,98.3668954 C108.359125,101.263439 114.693089,107.619078 114.693089,115.17762 C114.693089,123.585975 107.309362,131.144517 95.337344,135.172149 M122.8376,99.4261686 C120.401913,98.5763562 119.635233,97.9419893 119.983188,97.163992 C121.233467,94.0579877 121.652193,90.4492775 120.956283,88.3307312 C118.797781,81.6220013 110.930455,80.0660069 99.2356217,84.0936387 L94.570663,85.7214482 L94.9893888,80.9876343 C95.4788851,75.4040081 94.2934784,72.3638343 91.0203405,70.6701942 C88.3074694,69.25783 83.0822439,69.4014603 78.6295969,71.0232853 C70.8330414,73.8480137 63.3136705,79.2880096 55.2340328,88.0494553 C36.0905993,108.678351 37.340879,128.319789 58.4364002,138.774874 C80.3693729,149.654866 109.886589,146.052141 125.969197,130.51015 C138.011985,118.923976 136.555291,104.369443 122.8376,99.4261686" id="Fill-4"></path>
                <path d="M116.690588,53.1461059 C113.346679,54.6302853 112.579999,58.1611958 115.021582,60.6328331 C116.201092,61.8357365 117.315728,62.0451973 122.192998,62.0451973 C129.010561,62.0451973 133.604749,63.8824677 137.090199,67.9819146 C141.336432,72.8593587 141.825928,74.343538 141.825928,83.2426294 C141.825928,91.1542627 141.825928,91.297893 143.630577,92.3571661 C147.811937,94.7569883 150.595578,91.7886297 151.568674,83.8769963 C152.824851,73.5655408 146.768071,61.5544606 137.644568,56.0426495 C131.658559,52.511739 121.426317,51.0993748 116.690588,53.1461059 L116.690588,53.1461059 Z" id="Fill-1"></path>
                <path d="M73.7552753,125.28141 C72.434225,123.940861 72.7821802,120.619411 74.3096446,119.063417 C75.8430065,117.507423 79.8120548,117.154332 81.133105,118.500865 C81.6226013,118.991602 81.9705565,120.194505 81.9705565,121.253778 C81.9705565,124.784689 76.1201911,127.681232 73.7552753,125.28141 M90.8817482,104.652515 C86.9126999,102.958874 80.2307805,103.24015 76.0553181,105.215066 C69.019546,108.536516 65.2628094,113.623421 65.2628094,119.985045 C65.2628094,125.778132 67.7692663,129.733948 73.265779,132.702307 C77.5120119,135.030314 85.314465,134.820853 90.0442967,132.349216 C96.1010762,129.099581 100.070124,123.091049 100.070124,117.226147 C99.9993539,112.426502 95.8238915,106.699246 90.8817482,104.652515" id="Fill-7"></path>
                <path d="M117.874225,67.6288235 C114.671858,70.8784581 116.83036,74.7624596 121.914044,74.7624596 C126.295921,74.7624596 128.248008,77.0246362 128.248008,82.1115411 C128.248008,85.2893605 128.525193,86.210988 129.78137,87.0548158 C133.538107,89.7418985 136.598933,86.7735399 136.598933,80.4837315 C136.598933,72.7875436 131.173191,66.9944566 123.441509,66.4259201 C119.961957,66.1446442 119.124505,66.354105 117.874225,67.6288235" id="Fill-9"></path>
            </g>
        </g>
    </g>
</svg>