<?xml version="1.0" encoding="UTF-8" standalone="no"?>
<svg width="200px" height="200px" viewBox="0 0 200 200" version="1.1" xmlns="http://www.w3.org/2000/svg" xmlns:xlink="http://www.w3.org/1999/xlink">
    <!-- Generator: Sketch 3.7.1 (28215) - http://www.bohemiancoding.com/sketch -->
    <title>Artboard 5</title>
    <desc>Created with Sketch.</desc>
    <defs></defs>
    <g id="主页" stroke="none" stroke-width="1" fill="none" fill-rule="evenodd">
        <g id="Artboard-5">
            <g id="个人中心-copy" transform="translate(6.000000, 0.000000)">
                <path d="M35.3408967,76.0797051 L35.3408967,76.0797051 C34.7796345,75.8405769 34.3231772,75.8190489 34.1467893,75.8609434 C34.4774556,75.7824057 35.0731165,75.5063449 35.8343173,75.0102706 C37.7734304,73.7465513 40.0777787,71.5182831 42.2138115,68.8166185 C44.2808006,66.2022808 45.9854972,63.4001409 46.8870744,61.2063279 C47.2223269,60.390556 47.3876534,59.7967776 47.4062318,59.591362 C47.3302446,60.4315278 47.604964,61.670628 48.7993802,63.0070951 C47.2588886,61.2833941 45.7628477,59.505312 43.8173487,57.1161556 C43.5480393,56.7854321 40.8509693,53.4534866 40.0781794,52.5114529 C32.1235284,42.8147038 27.5409794,39.4148204 21.645079,39.4148204 C12.9594155,39.4148204 7.93957413,46.1287452 7.93957413,57.7164 C7.93957413,63.308256 12.8596907,66.8708582 29.5195692,73.670394 C29.755067,73.7665053 29.755067,73.7665053 29.9911236,73.8628475 C32.5134491,74.8923488 33.8359362,75.4385103 35.3408967,76.0797051 L35.3408967,76.0797051 Z M32.2288853,83.3839657 L32.2288853,83.3839657 C17.2357383,76.9960714 0,71.9162453 0,57.7164 C0,43.5165547 6.97780473,31.4752462 21.645079,31.4752462 C36.3123533,31.4752462 44.177719,45.9211237 54.7192938,57.7163995 C58.8529425,62.3416596 41.3427967,87.2669865 32.2288853,83.3839657 L32.2288853,83.3839657 Z M153.468077,76.0797051 L153.468077,76.0797051 C154.973038,75.4385103 156.295525,74.8923488 158.81785,73.8628475 C159.053907,73.7665053 159.053907,73.7665053 159.289405,73.670394 C175.949283,66.8708582 180.8694,63.308256 180.8694,57.7164 C180.8694,46.1287452 175.849559,39.4148204 167.163895,39.4148204 C161.267995,39.4148204 156.685446,42.8147038 148.730795,52.5114529 C147.958005,53.4534866 145.260935,56.7854321 144.991625,57.1161556 C143.046126,59.505312 141.550085,61.2833941 140.009594,63.0070951 C141.20401,61.670628 141.478729,60.4315278 141.402742,59.591362 C141.421321,59.7967776 141.586647,60.390556 141.9219,61.2063279 C142.823477,63.4001409 144.528174,66.2022808 146.595163,68.8166185 C148.731195,71.5182831 151.035544,73.7465513 152.974657,75.0102706 C153.735858,75.5063449 154.331518,75.7824057 154.662185,75.8609434 C154.485797,75.8190489 154.02934,75.8405769 153.468077,76.0797051 L153.468077,76.0797051 Z M156.580089,83.3839657 C147.466177,87.2669865 129.956032,62.3416596 134.08968,57.7163995 C144.631255,45.9211237 152.496621,31.4752462 167.163895,31.4752462 C181.831169,31.4752462 188.808974,43.5165547 188.808974,57.7164 C188.808974,71.9162453 171.573236,76.9960714 156.580089,83.3839657 L156.580089,83.3839657 Z M94.404487,190.661408 L94.404487,190.661408 C134.958333,190.661408 167.848091,157.624821 167.848091,116.854486 C167.848091,76.0841512 134.958333,43.0475639 94.404487,43.0475639 C80.842049,43.0475639 67.837762,46.7400601 56.4900801,53.6287566 C34.6113098,66.9104303 20.9608827,90.6900013 20.9608827,116.854486 C20.9608827,157.624821 53.8506407,190.661408 94.404487,190.661408 L94.404487,190.661408 Z M94.404487,198.600982 L94.404487,198.600982 C49.4577987,198.600982 13.0213086,162.001829 13.0213086,116.854486 C13.0213086,87.1569385 28.7870104,61.1581067 52.3700376,46.841851 C64.6388268,39.3939893 79.0233571,35.1079898 94.404487,35.1079898 C139.351175,35.1079898 175.787666,71.7071428 175.787666,116.854486 C175.787666,162.001829 139.351175,198.600982 94.404487,198.600982 L94.404487,198.600982 Z" id="Oval-9" fill="#26262E"></path>
                <ellipse id="Oval-11" fill="#26262E" cx="63.4788792" cy="105.409977" rx="8.13831785" ry="8.17464962"></ellipse>
                <path d="M34.180935,164.617417 C43.275206,164.617417 50.8148006,158.727109 50.8148006,151.188014 C50.8148006,143.64892 43.275206,137.758611 34.180935,137.758611 C25.0866639,137.758611 17.5470693,143.64892 17.5470693,151.188014 C17.5470693,158.727109 25.0866639,164.617417 34.180935,164.617417 L34.180935,164.617417 Z M34.180935,160.64763 C27.0943982,160.64763 21.5168564,156.290176 21.5168564,151.188014 C21.5168564,146.085853 27.0943982,141.728399 34.180935,141.728399 C41.2674717,141.728399 46.8450136,146.085853 46.8450136,151.188014 C46.8450136,156.290176 41.2674717,160.64763 34.180935,160.64763 L34.180935,160.64763 Z" id="Oval-13" fill="#26262E"></path>
                <path d="M154.628039,164.617417 C163.72231,164.617417 171.261905,158.727109 171.261905,151.188014 C171.261905,143.64892 163.72231,137.758611 154.628039,137.758611 C145.533768,137.758611 137.994173,143.64892 137.994173,151.188014 C137.994173,158.727109 145.533768,164.617417 154.628039,164.617417 L154.628039,164.617417 Z M154.628039,160.64763 C147.541502,160.64763 141.963961,156.290176 141.963961,151.188014 C141.963961,146.085853 147.541502,141.728399 154.628039,141.728399 C161.714576,141.728399 167.292118,146.085853 167.292118,151.188014 C167.292118,156.290176 161.714576,160.64763 154.628039,160.64763 L154.628039,160.64763 Z" id="Oval-13-Copy" fill="#26262E"></path>
                <ellipse id="Oval-11-Copy" fill="#26262E" cx="125.330095" cy="105.409977" rx="8.13831785" ry="8.17464962"></ellipse>
                <text id="" font-family="Helvetica" font-size="12" font-weight="normal" fill="#000000">
                    <tspan x="73" y="104">26262E</tspan>
                </text>
                <ellipse id="Oval-16" fill="#26262E" cx="83.0108421" cy="165.902384" rx="4.88299071" ry="3.26985985"></ellipse>
                <ellipse id="Oval-16-Copy" fill="#26262E" cx="105.798132" cy="165.902384" rx="4.88299071" ry="3.26985985"></ellipse>
                <text id="" font-family="Helvetica" font-size="12" font-weight="normal" fill="#000000">
                    <tspan x="73" y="104">26262E</tspan>
                </text>
                <path d="M65.2328453,65.496356 L62.665803,31.4217947 L62.4631273,28.7315051 L59.8871359,27.9296298 C59.027041,27.6618925 57.5267509,26.9705739 56.0559241,25.8530488 C54.3285294,24.540585 53.1860493,22.9968376 52.7623359,21.2036801 C51.4481381,15.6419874 53.7792664,10.8786142 58.8042241,9.32270213 C63.8542162,7.75903849 67.9844064,9.9507287 69.9912647,14.8711421 C70.2436057,15.4898315 70.3832737,16.1927526 70.4105629,16.982351 C70.4718583,18.7559017 69.9657222,20.8369238 69.061245,22.9561087 C68.5316313,24.1969905 68.0094316,25.1439267 67.7046005,25.6159708 L66.7060139,27.1623255 L67.2411398,28.923583 L77.196644,61.6900943 L84.7933185,59.3819839 L74.8378143,26.6154726 L74.3743536,29.9230849 C74.9059775,29.0998422 75.6384603,27.7715869 76.3635291,26.0727549 C77.6856859,22.9749492 78.4529574,19.8202467 78.3453996,16.7081164 C78.2870309,15.0192494 77.9648029,13.3975409 77.3428708,11.8726884 C73.8377618,3.27886541 65.5994341,-1.09281282 56.4558389,1.73838118 C47.2152061,4.59962159 42.8084316,13.6043217 45.0355451,23.0294788 C45.9276011,26.8046651 48.1666851,29.8301707 51.2526469,32.1748654 C53.5715312,33.9367393 55.860952,34.9916815 57.5273311,35.5104054 L54.748664,32.0182405 L57.3157063,66.0928019 L65.2328453,65.496356 L65.2328453,65.496356 Z" id="Path-5" fill="#26262E"></path>
                <text id="" font-family="Helvetica" font-size="12" font-weight="normal" fill="#000000">
                    <tspan x="73" y="104">26262E</tspan>
                </text>
                <path d="M132.732734,66.0928019 L135.299776,32.0182405 L132.521109,35.5104054 C134.187488,34.9916815 136.476909,33.9367393 138.795794,32.1748654 C141.881755,29.8301707 144.120839,26.8046651 145.012895,23.0294788 C147.240009,13.6043217 142.833234,4.59962159 133.592602,1.73838118 C124.449006,-1.09281282 116.210679,3.27886541 112.70557,11.8726884 C112.083638,13.3975409 111.76141,15.0192494 111.703041,16.7081164 C111.595483,19.8202467 112.362755,22.9749492 113.684911,26.0727549 C114.40998,27.7715869 115.142463,29.0998422 115.674087,29.9230849 L115.210626,26.6154726 L105.255122,59.3819839 L112.851796,61.6900943 L122.807301,28.923583 L123.342427,27.1623255 L122.34384,25.6159708 C122.039009,25.1439267 121.516809,24.1969905 120.987196,22.9561087 C120.082718,20.8369238 119.576582,18.7559017 119.637878,16.982351 C119.665167,16.1927526 119.804835,15.4898315 120.057176,14.8711421 C122.064034,9.9507287 126.194224,7.75903849 131.244216,9.32270213 C136.269174,10.8786142 138.600302,15.6419874 137.286105,21.2036801 C136.862391,22.9968376 135.719911,24.540585 133.992516,25.8530488 C132.52169,26.9705739 131.021399,27.6618925 130.161305,27.9296298 L127.585313,28.7315051 L127.382637,31.4217947 L124.815595,65.496356 L132.732734,66.0928019 L132.732734,66.0928019 Z" id="Path-5-Copy" fill="#26262E"></path>
            </g>
        </g>
    </g>
</svg>